<?xml version="1.0" encoding="UTF-8" standalone="no"?>
<!DOCTYPE svg PUBLIC "-//W3C//DTD SVG 1.1//EN"
 "http://www.w3.org/Graphics/SVG/1.1/DTD/svg11.dtd">
<!-- Generated by graphviz version 2.43.0 (0)
 -->
<!-- Title: org&#45;roam Pages: 1 -->
<svg width="1537pt" height="404pt"
 viewBox="0.00 0.00 1536.99 404.00" xmlns="http://www.w3.org/2000/svg" xmlns:xlink="http://www.w3.org/1999/xlink">
<g id="graph0" class="graph" transform="scale(1 1) rotate(0) translate(4 400)">
<title>org&#45;roam</title>
<polygon fill="white" stroke="transparent" points="-4,4 -4,-400 1532.99,-400 1532.99,4 -4,4"/>
<!-- f0cefeef&#45;6f99&#45;4ce2&#45;bff7&#45;db6e508f2c84 -->
<g id="node1" class="node">
<title>f0cefeef&#45;6f99&#45;4ce2&#45;bff7&#45;db6e508f2c84</title>
<g id="a_node1"><a xlink:href="org-protocol://roam-node?node=f0cefeef-6f99-4ce2-bff7-db6e508f2c84" xlink:title="create&#45;link">
<ellipse fill="#eeeeee" stroke="#c9c9c9" stroke-width="2" cx="579.3" cy="-306" rx="48.19" ry="18"/>
<text text-anchor="middle" x="579.3" y="-302.3" font-family="Times,serif" font-size="14.00" fill="#111111">create&#45;link</text>
</a>
</g>
</g>
<!-- a9fab970&#45;2057&#45;48ce&#45;95ee&#45;19964d639a38 -->
<g id="node2" class="node">
<title>a9fab970&#45;2057&#45;48ce&#45;95ee&#45;19964d639a38</title>
<g id="a_node2"><a xlink:href="org-protocol://roam-node?node=a9fab970-2057-48ce-95ee-19964d639a38" xlink:title="Project">
<ellipse fill="#eeeeee" stroke="#c9c9c9" stroke-width="2" cx="902.3" cy="-234" rx="36" ry="18"/>
<text text-anchor="middle" x="902.3" y="-230.3" font-family="Times,serif" font-size="14.00" fill="#111111">Project</text>
</a>
</g>
</g>
<!-- f0cefeef&#45;6f99&#45;4ce2&#45;bff7&#45;db6e508f2c84&#45;&gt;a9fab970&#45;2057&#45;48ce&#45;95ee&#45;19964d639a38 -->
<g id="edge1" class="edge">
<title>f0cefeef&#45;6f99&#45;4ce2&#45;bff7&#45;db6e508f2c84&#45;&gt;a9fab970&#45;2057&#45;48ce&#45;95ee&#45;19964d639a38</title>
<path fill="none" stroke="black" d="M621.58,-297.36C693.7,-284.25 834.92,-258.31 857.3,-252 860.08,-251.21 862.94,-250.33 865.8,-249.39"/>
<polygon fill="black" stroke="black" points="867.14,-252.63 875.42,-246.02 864.83,-246.02 867.14,-252.63"/>
</g>
<!-- 1ad8c3d5&#45;97ba&#45;4905&#45;be11&#45;e6f2626127ad -->
<g id="node3" class="node">
<title>1ad8c3d5&#45;97ba&#45;4905&#45;be11&#45;e6f2626127ad</title>
<g id="a_node3"><a xlink:href="org-protocol://roam-node?node=1ad8c3d5-97ba-4905-be11-e6f2626127ad" xlink:title="Emacs">
<ellipse fill="#eeeeee" stroke="#c9c9c9" stroke-width="2" cx="579.3" cy="-234" rx="34.39" ry="18"/>
<text text-anchor="middle" x="579.3" y="-230.3" font-family="Times,serif" font-size="14.00" fill="#111111">Emacs</text>
</a>
</g>
</g>
<!-- f0cefeef&#45;6f99&#45;4ce2&#45;bff7&#45;db6e508f2c84&#45;&gt;1ad8c3d5&#45;97ba&#45;4905&#45;be11&#45;e6f2626127ad -->
<g id="edge2" class="edge">
<title>f0cefeef&#45;6f99&#45;4ce2&#45;bff7&#45;db6e508f2c84&#45;&gt;1ad8c3d5&#45;97ba&#45;4905&#45;be11&#45;e6f2626127ad</title>
<path fill="none" stroke="black" d="M573.42,-288.05C572.59,-280.23 572.35,-270.75 572.71,-261.98"/>
<polygon fill="black" stroke="black" points="576.21,-262.01 573.43,-251.79 569.23,-261.51 576.21,-262.01"/>
</g>
<!-- 70f249a8&#45;f8c8&#45;4a7e&#45;978c&#45;8ff04ffd09c0 -->
<g id="node6" class="node">
<title>70f249a8&#45;f8c8&#45;4a7e&#45;978c&#45;8ff04ffd09c0</title>
<g id="a_node6"><a xlink:href="org-protocol://roam-node?node=70f249a8-f8c8-4a7e-978c-8ff04ffd09c0" xlink:title="digger">
<ellipse fill="#eeeeee" stroke="#c9c9c9" stroke-width="2" cx="1030.3" cy="-162" rx="33.29" ry="18"/>
<text text-anchor="middle" x="1030.3" y="-158.3" font-family="Times,serif" font-size="14.00" fill="#111111">digger</text>
</a>
</g>
</g>
<!-- a9fab970&#45;2057&#45;48ce&#45;95ee&#45;19964d639a38&#45;&gt;70f249a8&#45;f8c8&#45;4a7e&#45;978c&#45;8ff04ffd09c0 -->
<g id="edge30" class="edge">
<title>a9fab970&#45;2057&#45;48ce&#45;95ee&#45;19964d639a38&#45;&gt;70f249a8&#45;f8c8&#45;4a7e&#45;978c&#45;8ff04ffd09c0</title>
<path fill="none" stroke="black" d="M925.77,-220.16C946.33,-208.92 976.35,-192.5 998.95,-180.14"/>
<polygon fill="black" stroke="black" points="1000.73,-183.16 1007.83,-175.29 997.37,-177.02 1000.73,-183.16"/>
</g>
<!-- 1ad8c3d5&#45;97ba&#45;4905&#45;be11&#45;e6f2626127ad&#45;&gt;f0cefeef&#45;6f99&#45;4ce2&#45;bff7&#45;db6e508f2c84 -->
<g id="edge43" class="edge">
<title>1ad8c3d5&#45;97ba&#45;4905&#45;be11&#45;e6f2626127ad&#45;&gt;f0cefeef&#45;6f99&#45;4ce2&#45;bff7&#45;db6e508f2c84</title>
<path fill="none" stroke="black" d="M585.16,-251.79C586,-259.59 586.24,-269.07 585.89,-277.85"/>
<polygon fill="black" stroke="black" points="582.39,-277.83 585.17,-288.05 589.37,-278.33 582.39,-277.83"/>
</g>
<!-- 8c81068f&#45;0e51&#45;4d6d&#45;bd1f&#45;392ce8cb3a21 -->
<g id="node4" class="node">
<title>8c81068f&#45;0e51&#45;4d6d&#45;bd1f&#45;392ce8cb3a21</title>
<g id="a_node4"><a xlink:href="org-protocol://roam-node?node=8c81068f-0e51-4d6d-bd1f-392ce8cb3a21" xlink:title="current&#45;word&#45;highlight">
<ellipse fill="#eeeeee" stroke="#c9c9c9" stroke-width="2" cx="341.3" cy="-162" rx="90.98" ry="18"/>
<text text-anchor="middle" x="341.3" y="-158.3" font-family="Times,serif" font-size="14.00" fill="#111111">current&#45;word&#45;highlight</text>
</a>
</g>
</g>
<!-- 1ad8c3d5&#45;97ba&#45;4905&#45;be11&#45;e6f2626127ad&#45;&gt;8c81068f&#45;0e51&#45;4d6d&#45;bd1f&#45;392ce8cb3a21 -->
<g id="edge42" class="edge">
<title>1ad8c3d5&#45;97ba&#45;4905&#45;be11&#45;e6f2626127ad&#45;&gt;8c81068f&#45;0e51&#45;4d6d&#45;bd1f&#45;392ce8cb3a21</title>
<path fill="none" stroke="black" d="M548.97,-225.38C510.4,-214.76 443.38,-195.2 395.86,-180.8"/>
<polygon fill="black" stroke="black" points="396.62,-177.38 386.04,-177.82 394.59,-184.07 396.62,-177.38"/>
</g>
<!-- c7e81fac&#45;9f8b&#45;4538&#45;9851&#45;21d4ff3c2b08 -->
<g id="node8" class="node">
<title>c7e81fac&#45;9f8b&#45;4538&#45;9851&#45;21d4ff3c2b08</title>
<g id="a_node8"><a xlink:href="org-protocol://roam-node?node=c7e81fac-9f8b-4538-9851-21d4ff3c2b08" xlink:title="Emacs Lisp">
<ellipse fill="#eeeeee" stroke="#c9c9c9" stroke-width="2" cx="579.3" cy="-162" rx="52.79" ry="18"/>
<text text-anchor="middle" x="579.3" y="-158.3" font-family="Times,serif" font-size="14.00" fill="#111111">Emacs Lisp</text>
</a>
</g>
</g>
<!-- 1ad8c3d5&#45;97ba&#45;4905&#45;be11&#45;e6f2626127ad&#45;&gt;c7e81fac&#45;9f8b&#45;4538&#45;9851&#45;21d4ff3c2b08 -->
<g id="edge39" class="edge">
<title>1ad8c3d5&#45;97ba&#45;4905&#45;be11&#45;e6f2626127ad&#45;&gt;c7e81fac&#45;9f8b&#45;4538&#45;9851&#45;21d4ff3c2b08</title>
<path fill="none" stroke="black" d="M573.42,-216.05C572.6,-208.35 572.36,-199.03 572.69,-190.36"/>
<polygon fill="black" stroke="black" points="576.19,-190.49 573.38,-180.28 569.21,-190.01 576.19,-190.49"/>
</g>
<!-- 7dab097c&#45;60ba&#45;43b9&#45;949f&#45;c58bf3151aa8 -->
<g id="node11" class="node">
<title>7dab097c&#45;60ba&#45;43b9&#45;949f&#45;c58bf3151aa8</title>
<g id="a_node11"><a xlink:href="org-protocol://roam-node?node=7dab097c-60ba-43b9-949f-c58bf3151aa8" xlink:title="MySQL">
<ellipse fill="#eeeeee" stroke="#c9c9c9" stroke-width="2" cx="40.3" cy="-162" rx="40.09" ry="18"/>
<text text-anchor="middle" x="40.3" y="-158.3" font-family="Times,serif" font-size="14.00" fill="#111111">MySQL</text>
</a>
</g>
</g>
<!-- 1ad8c3d5&#45;97ba&#45;4905&#45;be11&#45;e6f2626127ad&#45;&gt;7dab097c&#45;60ba&#45;43b9&#45;949f&#45;c58bf3151aa8 -->
<g id="edge44" class="edge">
<title>1ad8c3d5&#45;97ba&#45;4905&#45;be11&#45;e6f2626127ad&#45;&gt;7dab097c&#45;60ba&#45;43b9&#45;949f&#45;c58bf3151aa8</title>
<path fill="none" stroke="black" d="M546.28,-228.86C476.12,-220.05 307,-198.71 165.3,-180 139.86,-176.64 111.52,-172.8 88.27,-169.61"/>
<polygon fill="black" stroke="black" points="88.69,-166.14 78.31,-168.25 87.74,-173.07 88.69,-166.14"/>
</g>
<!-- 8b69b8d4&#45;1612&#45;4dc5&#45;8412&#45;96b431fdd101 -->
<g id="node12" class="node">
<title>8b69b8d4&#45;1612&#45;4dc5&#45;8412&#45;96b431fdd101</title>
<g id="a_node12"><a xlink:href="org-protocol://roam-node?node=8b69b8d4-1612-4dc5-8412-96b431fdd101" xlink:title="SQL">
<ellipse fill="#eeeeee" stroke="#c9c9c9" stroke-width="2" cx="460.3" cy="-18" rx="27.1" ry="18"/>
<text text-anchor="middle" x="460.3" y="-14.3" font-family="Times,serif" font-size="14.00" fill="#111111">SQL</text>
</a>
</g>
</g>
<!-- 1ad8c3d5&#45;97ba&#45;4905&#45;be11&#45;e6f2626127ad&#45;&gt;8b69b8d4&#45;1612&#45;4dc5&#45;8412&#45;96b431fdd101 -->
<g id="edge45" class="edge">
<title>1ad8c3d5&#45;97ba&#45;4905&#45;be11&#45;e6f2626127ad&#45;&gt;8b69b8d4&#45;1612&#45;4dc5&#45;8412&#45;96b431fdd101</title>
<path fill="none" stroke="black" d="M555.36,-220.88C539.23,-211.63 518.55,-197.51 505.3,-180 475.11,-140.12 465.17,-80.96 461.9,-46.56"/>
<polygon fill="black" stroke="black" points="465.37,-46 461.06,-36.32 458.39,-46.57 465.37,-46"/>
</g>
<!-- e04aa1a3&#45;509c&#45;45b2&#45;ac64&#45;53d69c961214 -->
<g id="node15" class="node">
<title>e04aa1a3&#45;509c&#45;45b2&#45;ac64&#45;53d69c961214</title>
<g id="a_node15"><a xlink:href="org-protocol://roam-node?node=e04aa1a3-509c-45b2-ac64-53d69c961214" xlink:title="Rails">
<ellipse fill="#eeeeee" stroke="#c9c9c9" stroke-width="2" cx="517.3" cy="-90" rx="28.7" ry="18"/>
<text text-anchor="middle" x="517.3" y="-86.3" font-family="Times,serif" font-size="14.00" fill="#111111">Rails</text>
</a>
</g>
</g>
<!-- 1ad8c3d5&#45;97ba&#45;4905&#45;be11&#45;e6f2626127ad&#45;&gt;e04aa1a3&#45;509c&#45;45b2&#45;ac64&#45;53d69c961214 -->
<g id="edge46" class="edge">
<title>1ad8c3d5&#45;97ba&#45;4905&#45;be11&#45;e6f2626127ad&#45;&gt;e04aa1a3&#45;509c&#45;45b2&#45;ac64&#45;53d69c961214</title>
<path fill="none" stroke="black" d="M556.2,-220.31C542.1,-211.15 525.3,-197.36 517.3,-180 508.38,-160.64 509.07,-136.31 511.61,-117.98"/>
<polygon fill="black" stroke="black" points="515.08,-118.4 513.25,-107.96 508.18,-117.26 515.08,-118.4"/>
</g>
<!-- a6980e15&#45;ecee&#45;466e&#45;9ea7&#45;2c0210243c0d -->
<g id="node18" class="node">
<title>a6980e15&#45;ecee&#45;466e&#45;9ea7&#45;2c0210243c0d</title>
<g id="a_node18"><a xlink:href="org-protocol://roam-node?node=a6980e15-ecee-466e-9ea7-2c0210243c0d" xlink:title="JavaScript">
<ellipse fill="#eeeeee" stroke="#c9c9c9" stroke-width="2" cx="931.3" cy="-162" rx="47.39" ry="18"/>
<text text-anchor="middle" x="931.3" y="-158.3" font-family="Times,serif" font-size="14.00" fill="#111111">JavaScript</text>
</a>
</g>
</g>
<!-- 1ad8c3d5&#45;97ba&#45;4905&#45;be11&#45;e6f2626127ad&#45;&gt;a6980e15&#45;ecee&#45;466e&#45;9ea7&#45;2c0210243c0d -->
<g id="edge48" class="edge">
<title>1ad8c3d5&#45;97ba&#45;4905&#45;be11&#45;e6f2626127ad&#45;&gt;a6980e15&#45;ecee&#45;466e&#45;9ea7&#45;2c0210243c0d</title>
<path fill="none" stroke="black" d="M610.84,-226.73C671.85,-214.6 806.45,-187.83 880.32,-173.14"/>
<polygon fill="black" stroke="black" points="881.2,-176.53 890.33,-171.15 879.83,-169.67 881.2,-176.53"/>
</g>
<!-- afccf86d&#45;70b8&#45;44c0&#45;86a8&#45;cdac25f7dfd3 -->
<g id="node19" class="node">
<title>afccf86d&#45;70b8&#45;44c0&#45;86a8&#45;cdac25f7dfd3</title>
<g id="a_node19"><a xlink:href="org-protocol://roam-node?node=afccf86d-70b8-44c0-86a8-cdac25f7dfd3" xlink:title="RSpec">
<ellipse fill="#eeeeee" stroke="#c9c9c9" stroke-width="2" cx="794.3" cy="-162" rx="33.6" ry="18"/>
<text text-anchor="middle" x="794.3" y="-158.3" font-family="Times,serif" font-size="14.00" fill="#111111">RSpec</text>
</a>
</g>
</g>
<!-- 1ad8c3d5&#45;97ba&#45;4905&#45;be11&#45;e6f2626127ad&#45;&gt;afccf86d&#45;70b8&#45;44c0&#45;86a8&#45;cdac25f7dfd3 -->
<g id="edge47" class="edge">
<title>1ad8c3d5&#45;97ba&#45;4905&#45;be11&#45;e6f2626127ad&#45;&gt;afccf86d&#45;70b8&#45;44c0&#45;86a8&#45;cdac25f7dfd3</title>
<path fill="none" stroke="black" d="M608.12,-224.08C616.56,-221.47 625.8,-218.62 634.3,-216 686.29,-199.97 699.96,-198.02 751.3,-180 753.68,-179.16 756.13,-178.27 758.59,-177.36"/>
<polygon fill="black" stroke="black" points="759.94,-180.59 768.04,-173.76 757.45,-174.05 759.94,-180.59"/>
</g>
<!-- 585d3b5e&#45;989d&#45;4363&#45;bcc3&#45;894402fcfcf9 -->
<g id="node21" class="node">
<title>585d3b5e&#45;989d&#45;4363&#45;bcc3&#45;894402fcfcf9</title>
<g id="a_node21"><a xlink:href="org-protocol://roam-node?node=585d3b5e-989d-4363-bcc3-894402fcfcf9" xlink:title="Shell">
<ellipse fill="#eeeeee" stroke="#c9c9c9" stroke-width="2" cx="203.3" cy="-162" rx="28.7" ry="18"/>
<text text-anchor="middle" x="203.3" y="-158.3" font-family="Times,serif" font-size="14.00" fill="#111111">Shell</text>
</a>
</g>
</g>
<!-- 1ad8c3d5&#45;97ba&#45;4905&#45;be11&#45;e6f2626127ad&#45;&gt;585d3b5e&#45;989d&#45;4363&#45;bcc3&#45;894402fcfcf9 -->
<g id="edge40" class="edge">
<title>1ad8c3d5&#45;97ba&#45;4905&#45;be11&#45;e6f2626127ad&#45;&gt;585d3b5e&#45;989d&#45;4363&#45;bcc3&#45;894402fcfcf9</title>
<path fill="none" stroke="black" d="M545.06,-230.64C483.27,-225.73 349.5,-212.07 241.3,-180 239.02,-179.32 236.69,-178.54 234.38,-177.69"/>
<polygon fill="black" stroke="black" points="235.61,-174.41 225.02,-173.9 232.98,-180.9 235.61,-174.41"/>
</g>
<!-- 815a2c31&#45;7ddb&#45;40ad&#45;bae0&#45;f84e1cfd8de1 -->
<g id="node26" class="node">
<title>815a2c31&#45;7ddb&#45;40ad&#45;bae0&#45;f84e1cfd8de1</title>
<g id="a_node26"><a xlink:href="org-protocol://roam-node?node=815a2c31-7ddb-40ad-bae0-f84e1cfd8de1" xlink:title="Org&#45;roam">
<ellipse fill="#eeeeee" stroke="#c9c9c9" stroke-width="2" cx="696.3" cy="-162" rx="46.29" ry="18"/>
<text text-anchor="middle" x="696.3" y="-158.3" font-family="Times,serif" font-size="14.00" fill="#111111">Org&#45;roam</text>
</a>
</g>
</g>
<!-- 1ad8c3d5&#45;97ba&#45;4905&#45;be11&#45;e6f2626127ad&#45;&gt;815a2c31&#45;7ddb&#45;40ad&#45;bae0&#45;f84e1cfd8de1 -->
<g id="edge41" class="edge">
<title>1ad8c3d5&#45;97ba&#45;4905&#45;be11&#45;e6f2626127ad&#45;&gt;815a2c31&#45;7ddb&#45;40ad&#45;bae0&#45;f84e1cfd8de1</title>
<path fill="none" stroke="black" d="M597.68,-218.67C614.22,-207.93 638.76,-193.16 659.28,-181.53"/>
<polygon fill="black" stroke="black" points="661.07,-184.54 668.09,-176.6 657.65,-178.43 661.07,-184.54"/>
</g>
<!-- 8c81068f&#45;0e51&#45;4d6d&#45;bd1f&#45;392ce8cb3a21&#45;&gt;1ad8c3d5&#45;97ba&#45;4905&#45;be11&#45;e6f2626127ad -->
<g id="edge3" class="edge">
<title>8c81068f&#45;0e51&#45;4d6d&#45;bd1f&#45;392ce8cb3a21&#45;&gt;1ad8c3d5&#45;97ba&#45;4905&#45;be11&#45;e6f2626127ad</title>
<path fill="none" stroke="black" d="M393.96,-176.87C438.65,-189.51 501.55,-208.03 541.43,-220.29"/>
<polygon fill="black" stroke="black" points="540.46,-223.65 551.05,-223.27 542.53,-216.97 540.46,-223.65"/>
</g>
<!-- d694ecaa&#45;6a8b&#45;4669&#45;a95c&#45;f76de6dcbd2c -->
<g id="node5" class="node">
<title>d694ecaa&#45;6a8b&#45;4669&#45;a95c&#45;f76de6dcbd2c</title>
<g id="a_node5"><a xlink:href="org-protocol://roam-node?node=d694ecaa-6a8b-4669-a95c-f76de6dcbd2c" xlink:title="GNU Guix">
<ellipse fill="#eeeeee" stroke="#c9c9c9" stroke-width="2" cx="733.3" cy="-306" rx="50.09" ry="18"/>
<text text-anchor="middle" x="733.3" y="-302.3" font-family="Times,serif" font-size="14.00" fill="#111111">GNU Guix</text>
</a>
</g>
</g>
<!-- d694ecaa&#45;6a8b&#45;4669&#45;a95c&#45;f76de6dcbd2c&#45;&gt;a9fab970&#45;2057&#45;48ce&#45;95ee&#45;19964d639a38 -->
<g id="edge4" class="edge">
<title>d694ecaa&#45;6a8b&#45;4669&#45;a95c&#45;f76de6dcbd2c&#45;&gt;a9fab970&#45;2057&#45;48ce&#45;95ee&#45;19964d639a38</title>
<path fill="none" stroke="black" d="M765.08,-291.83C793.9,-279.9 836.34,-262.32 866.37,-249.88"/>
<polygon fill="black" stroke="black" points="867.76,-253.1 875.65,-246.03 865.08,-246.63 867.76,-253.1"/>
</g>
<!-- d694ecaa&#45;6a8b&#45;4669&#45;a95c&#45;f76de6dcbd2c&#45;&gt;1ad8c3d5&#45;97ba&#45;4905&#45;be11&#45;e6f2626127ad -->
<g id="edge5" class="edge">
<title>d694ecaa&#45;6a8b&#45;4669&#45;a95c&#45;f76de6dcbd2c&#45;&gt;1ad8c3d5&#45;97ba&#45;4905&#45;be11&#45;e6f2626127ad</title>
<path fill="none" stroke="black" d="M703.6,-291.5C677.92,-279.83 640.76,-262.94 613.76,-250.67"/>
<polygon fill="black" stroke="black" points="614.87,-247.33 604.32,-246.37 611.97,-253.7 614.87,-247.33"/>
</g>
<!-- cfd092c4&#45;1bb2&#45;43d3&#45;88b1&#45;9f647809e546 -->
<g id="node7" class="node">
<title>cfd092c4&#45;1bb2&#45;43d3&#45;88b1&#45;9f647809e546</title>
<g id="a_node7"><a xlink:href="org-protocol://roam-node?node=cfd092c4-1bb2-43d3-88b1-9f647809e546" xlink:title="Ruby">
<ellipse fill="#eeeeee" stroke="#c9c9c9" stroke-width="2" cx="837.3" cy="-18" rx="29.8" ry="18"/>
<text text-anchor="middle" x="837.3" y="-14.3" font-family="Times,serif" font-size="14.00" fill="#111111">Ruby</text>
</a>
</g>
</g>
<!-- 70f249a8&#45;f8c8&#45;4a7e&#45;978c&#45;8ff04ffd09c0&#45;&gt;cfd092c4&#45;1bb2&#45;43d3&#45;88b1&#45;9f647809e546 -->
<g id="edge6" class="edge">
<title>70f249a8&#45;f8c8&#45;4a7e&#45;978c&#45;8ff04ffd09c0&#45;&gt;cfd092c4&#45;1bb2&#45;43d3&#45;88b1&#45;9f647809e546</title>
<path fill="none" stroke="black" d="M1011.44,-147.13C976.96,-121.76 903.66,-67.83 864.04,-38.68"/>
<polygon fill="black" stroke="black" points="865.79,-35.62 855.66,-32.51 861.64,-41.26 865.79,-35.62"/>
</g>
<!-- c7e81fac&#45;9f8b&#45;4538&#45;9851&#45;21d4ff3c2b08&#45;&gt;1ad8c3d5&#45;97ba&#45;4905&#45;be11&#45;e6f2626127ad -->
<g id="edge7" class="edge">
<title>c7e81fac&#45;9f8b&#45;4538&#45;9851&#45;21d4ff3c2b08&#45;&gt;1ad8c3d5&#45;97ba&#45;4905&#45;be11&#45;e6f2626127ad</title>
<path fill="none" stroke="black" d="M585.21,-180.28C586.01,-188.03 586.24,-197.36 585.89,-206.01"/>
<polygon fill="black" stroke="black" points="582.39,-205.83 585.17,-216.05 589.37,-206.33 582.39,-205.83"/>
</g>
<!-- 02b46258&#45;7650&#45;4a02&#45;9f0e&#45;c422555b29d0 -->
<g id="node9" class="node">
<title>02b46258&#45;7650&#45;4a02&#45;9f0e&#45;c422555b29d0</title>
<g id="a_node9"><a xlink:href="org-protocol://roam-node?node=02b46258-7650-4a02-9f0e-c422555b29d0" xlink:title="Archive">
<ellipse fill="#eeeeee" stroke="#c9c9c9" stroke-width="2" cx="1039.3" cy="-378" rx="38.99" ry="18"/>
<text text-anchor="middle" x="1039.3" y="-374.3" font-family="Times,serif" font-size="14.00" fill="#111111">Archive</text>
</a>
</g>
</g>
<!-- 02b46258&#45;7650&#45;4a02&#45;9f0e&#45;c422555b29d0&#45;&gt;70f249a8&#45;f8c8&#45;4a7e&#45;978c&#45;8ff04ffd09c0 -->
<g id="edge9" class="edge">
<title>02b46258&#45;7650&#45;4a02&#45;9f0e&#45;c422555b29d0&#45;&gt;70f249a8&#45;f8c8&#45;4a7e&#45;978c&#45;8ff04ffd09c0</title>
<path fill="none" stroke="black" d="M1045.78,-360.1C1049.37,-349.84 1053.47,-336.36 1055.3,-324 1062.28,-276.74 1049.16,-221.75 1039.43,-189.81"/>
<polygon fill="black" stroke="black" points="1042.65,-188.39 1036.3,-179.91 1035.98,-190.5 1042.65,-188.39"/>
</g>
<!-- d3394774&#45;aba5&#45;4167&#45;bd18&#45;f194eb2bd9ed -->
<g id="node10" class="node">
<title>d3394774&#45;aba5&#45;4167&#45;bd18&#45;f194eb2bd9ed</title>
<g id="a_node10"><a xlink:href="org-protocol://roam-node?node=d3394774-aba5-4167-bd18-f194eb2bd9ed" xlink:title="TextLint">
<ellipse fill="#eeeeee" stroke="#c9c9c9" stroke-width="2" cx="1004.3" cy="-306" rx="41.69" ry="18"/>
<text text-anchor="middle" x="1004.3" y="-302.3" font-family="Times,serif" font-size="14.00" fill="#111111">TextLint</text>
</a>
</g>
</g>
<!-- 02b46258&#45;7650&#45;4a02&#45;9f0e&#45;c422555b29d0&#45;&gt;d3394774&#45;aba5&#45;4167&#45;bd18&#45;f194eb2bd9ed -->
<g id="edge8" class="edge">
<title>02b46258&#45;7650&#45;4a02&#45;9f0e&#45;c422555b29d0&#45;&gt;d3394774&#45;aba5&#45;4167&#45;bd18&#45;f194eb2bd9ed</title>
<path fill="none" stroke="black" d="M1031,-360.41C1026.92,-352.25 1021.91,-342.22 1017.33,-333.07"/>
<polygon fill="black" stroke="black" points="1020.38,-331.34 1012.77,-323.96 1014.12,-334.47 1020.38,-331.34"/>
</g>
<!-- d3394774&#45;aba5&#45;4167&#45;bd18&#45;f194eb2bd9ed&#45;&gt;1ad8c3d5&#45;97ba&#45;4905&#45;be11&#45;e6f2626127ad -->
<g id="edge32" class="edge">
<title>d3394774&#45;aba5&#45;4167&#45;bd18&#45;f194eb2bd9ed&#45;&gt;1ad8c3d5&#45;97ba&#45;4905&#45;be11&#45;e6f2626127ad</title>
<path fill="none" stroke="black" d="M967.12,-297.52C951.19,-294.41 932.36,-290.87 915.3,-288 805.46,-269.55 777.12,-270.57 667.3,-252 652.23,-249.45 635.78,-246.36 621.22,-243.51"/>
<polygon fill="black" stroke="black" points="621.49,-240 611,-241.5 620.14,-246.87 621.49,-240"/>
</g>
<!-- d3394774&#45;aba5&#45;4167&#45;bd18&#45;f194eb2bd9ed&#45;&gt;a6980e15&#45;ecee&#45;466e&#45;9ea7&#45;2c0210243c0d -->
<g id="edge31" class="edge">
<title>d3394774&#45;aba5&#45;4167&#45;bd18&#45;f194eb2bd9ed&#45;&gt;a6980e15&#45;ecee&#45;466e&#45;9ea7&#45;2c0210243c0d</title>
<path fill="none" stroke="black" d="M1002.2,-288.02C999.35,-269.4 993.07,-239.11 980.3,-216 974.3,-205.14 965.61,-194.76 957.21,-186.1"/>
<polygon fill="black" stroke="black" points="959.56,-183.5 949.98,-178.97 954.64,-188.48 959.56,-183.5"/>
</g>
<!-- 7dab097c&#45;60ba&#45;43b9&#45;949f&#45;c58bf3151aa8&#45;&gt;8b69b8d4&#45;1612&#45;4dc5&#45;8412&#45;96b431fdd101 -->
<g id="edge10" class="edge">
<title>7dab097c&#45;60ba&#45;43b9&#45;949f&#45;c58bf3151aa8&#45;&gt;8b69b8d4&#45;1612&#45;4dc5&#45;8412&#45;96b431fdd101</title>
<path fill="none" stroke="black" d="M71.52,-150.44C148.64,-124.37 347.6,-57.1 426.93,-30.28"/>
<polygon fill="black" stroke="black" points="428.08,-33.59 436.43,-27.07 425.83,-26.96 428.08,-33.59"/>
</g>
<!-- 4bfa17d7&#45;18db&#45;47d5&#45;9f3c&#45;5f3bb3c3231f -->
<g id="node13" class="node">
<title>4bfa17d7&#45;18db&#45;47d5&#45;9f3c&#45;5f3bb3c3231f</title>
<g id="a_node13"><a xlink:href="org-protocol://roam-node?node=4bfa17d7-18db-47d5-9f3c-5f3bb3c3231f" xlink:title="ej&#45;dict">
<ellipse fill="#eeeeee" stroke="#c9c9c9" stroke-width="2" cx="370.3" cy="-306" rx="33.29" ry="18"/>
<text text-anchor="middle" x="370.3" y="-302.3" font-family="Times,serif" font-size="14.00" fill="#111111">ej&#45;dict</text>
</a>
</g>
</g>
<!-- 4bfa17d7&#45;18db&#45;47d5&#45;9f3c&#45;5f3bb3c3231f&#45;&gt;1ad8c3d5&#45;97ba&#45;4905&#45;be11&#45;e6f2626127ad -->
<g id="edge11" class="edge">
<title>4bfa17d7&#45;18db&#45;47d5&#45;9f3c&#45;5f3bb3c3231f&#45;&gt;1ad8c3d5&#45;97ba&#45;4905&#45;be11&#45;e6f2626127ad</title>
<path fill="none" stroke="black" d="M395.94,-294.25C401.31,-292.11 406.97,-289.92 412.3,-288 455.48,-272.44 505.77,-256.81 539.79,-246.6"/>
<polygon fill="black" stroke="black" points="541.22,-249.82 549.8,-243.61 539.22,-243.11 541.22,-249.82"/>
</g>
<!-- a23ceb84&#45;e89a&#45;4905&#45;b931&#45;1944a0b828b7 -->
<g id="node14" class="node">
<title>a23ceb84&#45;e89a&#45;4905&#45;b931&#45;1944a0b828b7</title>
<g id="a_node14"><a xlink:href="org-protocol://roam-node?node=a23ceb84-e89a-4905-b931-1944a0b828b7" xlink:title="Learning">
<ellipse fill="#eeeeee" stroke="#c9c9c9" stroke-width="2" cx="864.3" cy="-306" rx="42.49" ry="18"/>
<text text-anchor="middle" x="864.3" y="-302.3" font-family="Times,serif" font-size="14.00" fill="#111111">Learning</text>
</a>
</g>
</g>
<!-- a23ceb84&#45;e89a&#45;4905&#45;b931&#45;1944a0b828b7&#45;&gt;a9fab970&#45;2057&#45;48ce&#45;95ee&#45;19964d639a38 -->
<g id="edge12" class="edge">
<title>a23ceb84&#45;e89a&#45;4905&#45;b931&#45;1944a0b828b7&#45;&gt;a9fab970&#45;2057&#45;48ce&#45;95ee&#45;19964d639a38</title>
<path fill="none" stroke="black" d="M873.3,-288.41C877.85,-280.04 883.45,-269.71 888.52,-260.37"/>
<polygon fill="black" stroke="black" points="891.66,-261.93 893.36,-251.47 885.51,-258.59 891.66,-261.93"/>
</g>
<!-- e04aa1a3&#45;509c&#45;45b2&#45;ac64&#45;53d69c961214&#45;&gt;cfd092c4&#45;1bb2&#45;43d3&#45;88b1&#45;9f647809e546 -->
<g id="edge13" class="edge">
<title>e04aa1a3&#45;509c&#45;45b2&#45;ac64&#45;53d69c961214&#45;&gt;cfd092c4&#45;1bb2&#45;43d3&#45;88b1&#45;9f647809e546</title>
<path fill="none" stroke="black" d="M544.03,-83.15C600.92,-70.71 734.12,-41.57 799.6,-27.25"/>
<polygon fill="black" stroke="black" points="800.48,-30.64 809.51,-25.08 798.99,-23.8 800.48,-30.64"/>
</g>
<!-- e04aa1a3&#45;509c&#45;45b2&#45;ac64&#45;53d69c961214&#45;&gt;8b69b8d4&#45;1612&#45;4dc5&#45;8412&#45;96b431fdd101 -->
<g id="edge14" class="edge">
<title>e04aa1a3&#45;509c&#45;45b2&#45;ac64&#45;53d69c961214&#45;&gt;8b69b8d4&#45;1612&#45;4dc5&#45;8412&#45;96b431fdd101</title>
<path fill="none" stroke="black" d="M504.65,-73.46C497.19,-64.31 487.62,-52.55 479.28,-42.31"/>
<polygon fill="black" stroke="black" points="481.94,-40.04 472.91,-34.49 476.51,-44.46 481.94,-40.04"/>
</g>
<!-- 1658782a&#45;d331&#45;464b&#45;9fd7&#45;1f8233b8b7f8 -->
<g id="node16" class="node">
<title>1658782a&#45;d331&#45;464b&#45;9fd7&#45;1f8233b8b7f8</title>
<g id="a_node16"><a xlink:href="org-protocol://roam-node?node=1658782a-d331-464b-9fd7-1f8233b8b7f8" xlink:title="Docker">
<ellipse fill="#eeeeee" stroke="#c9c9c9" stroke-width="2" cx="82.3" cy="-234" rx="36.29" ry="18"/>
<text text-anchor="middle" x="82.3" y="-230.3" font-family="Times,serif" font-size="14.00" fill="#111111">Docker</text>
</a>
</g>
</g>
<!-- 1658782a&#45;d331&#45;464b&#45;9fd7&#45;1f8233b8b7f8&#45;&gt;7dab097c&#45;60ba&#45;43b9&#45;949f&#45;c58bf3151aa8 -->
<g id="edge16" class="edge">
<title>1658782a&#45;d331&#45;464b&#45;9fd7&#45;1f8233b8b7f8&#45;&gt;7dab097c&#45;60ba&#45;43b9&#45;949f&#45;c58bf3151aa8</title>
<path fill="none" stroke="black" d="M72.34,-216.41C67.27,-207.95 60.99,-197.49 55.34,-188.08"/>
<polygon fill="black" stroke="black" points="58.32,-186.24 50.18,-179.47 52.32,-189.85 58.32,-186.24"/>
</g>
<!-- 1658782a&#45;d331&#45;464b&#45;9fd7&#45;1f8233b8b7f8&#45;&gt;e04aa1a3&#45;509c&#45;45b2&#45;ac64&#45;53d69c961214 -->
<g id="edge15" class="edge">
<title>1658782a&#45;d331&#45;464b&#45;9fd7&#45;1f8233b8b7f8&#45;&gt;e04aa1a3&#45;509c&#45;45b2&#45;ac64&#45;53d69c961214</title>
<path fill="none" stroke="black" d="M86.78,-216.08C93.19,-195.44 107.1,-161.16 132.3,-144 188.17,-105.95 392.48,-94.99 478.6,-92.03"/>
<polygon fill="black" stroke="black" points="478.86,-95.52 488.74,-91.7 478.63,-88.53 478.86,-95.52"/>
</g>
<!-- a0f58a2a&#45;e92d&#45;496e&#45;9c81&#45;dc5401ab314f -->
<g id="node17" class="node">
<title>a0f58a2a&#45;e92d&#45;496e&#45;9c81&#45;dc5401ab314f</title>
<g id="a_node17"><a xlink:href="org-protocol://roam-node?node=a0f58a2a-e92d-496e-9c81-dc5401ab314f" xlink:title="History">
<ellipse fill="#eeeeee" stroke="#c9c9c9" stroke-width="2" cx="541.3" cy="-378" rx="37.09" ry="18"/>
<text text-anchor="middle" x="541.3" y="-374.3" font-family="Times,serif" font-size="14.00" fill="#111111">History</text>
</a>
</g>
</g>
<!-- a0f58a2a&#45;e92d&#45;496e&#45;9c81&#45;dc5401ab314f&#45;&gt;f0cefeef&#45;6f99&#45;4ce2&#45;bff7&#45;db6e508f2c84 -->
<g id="edge19" class="edge">
<title>a0f58a2a&#45;e92d&#45;496e&#45;9c81&#45;dc5401ab314f&#45;&gt;f0cefeef&#45;6f99&#45;4ce2&#45;bff7&#45;db6e508f2c84</title>
<path fill="none" stroke="black" d="M550.3,-360.41C554.78,-352.16 560.29,-342.01 565.3,-332.78"/>
<polygon fill="black" stroke="black" points="568.4,-334.41 570.09,-323.96 562.24,-331.07 568.4,-334.41"/>
</g>
<!-- a0f58a2a&#45;e92d&#45;496e&#45;9c81&#45;dc5401ab314f&#45;&gt;1ad8c3d5&#45;97ba&#45;4905&#45;be11&#45;e6f2626127ad -->
<g id="edge17" class="edge">
<title>a0f58a2a&#45;e92d&#45;496e&#45;9c81&#45;dc5401ab314f&#45;&gt;1ad8c3d5&#45;97ba&#45;4905&#45;be11&#45;e6f2626127ad</title>
<path fill="none" stroke="black" d="M531.85,-360.32C522.79,-341.96 511.88,-311.9 522.3,-288 528.06,-274.77 538.93,-263.36 549.65,-254.55"/>
<polygon fill="black" stroke="black" points="551.94,-257.2 557.73,-248.33 547.67,-251.65 551.94,-257.2"/>
</g>
<!-- a0f58a2a&#45;e92d&#45;496e&#45;9c81&#45;dc5401ab314f&#45;&gt;8c81068f&#45;0e51&#45;4d6d&#45;bd1f&#45;392ce8cb3a21 -->
<g id="edge18" class="edge">
<title>a0f58a2a&#45;e92d&#45;496e&#45;9c81&#45;dc5401ab314f&#45;&gt;8c81068f&#45;0e51&#45;4d6d&#45;bd1f&#45;392ce8cb3a21</title>
<path fill="none" stroke="black" d="M505.35,-373.34C450.48,-366.92 349.89,-351.62 328.3,-324 298.12,-285.39 315.2,-224.47 329.08,-189.69"/>
<polygon fill="black" stroke="black" points="332.42,-190.78 333.05,-180.2 325.96,-188.08 332.42,-190.78"/>
</g>
<!-- a0f58a2a&#45;e92d&#45;496e&#45;9c81&#45;dc5401ab314f&#45;&gt;d694ecaa&#45;6a8b&#45;4669&#45;a95c&#45;f76de6dcbd2c -->
<g id="edge21" class="edge">
<title>a0f58a2a&#45;e92d&#45;496e&#45;9c81&#45;dc5401ab314f&#45;&gt;d694ecaa&#45;6a8b&#45;4669&#45;a95c&#45;f76de6dcbd2c</title>
<path fill="none" stroke="black" d="M570.04,-366.52C601.83,-354.93 653.38,-336.14 690.05,-322.77"/>
<polygon fill="black" stroke="black" points="691.3,-326.04 699.5,-319.32 688.9,-319.46 691.3,-326.04"/>
</g>
<!-- a0f58a2a&#45;e92d&#45;496e&#45;9c81&#45;dc5401ab314f&#45;&gt;d3394774&#45;aba5&#45;4167&#45;bd18&#45;f194eb2bd9ed -->
<g id="edge20" class="edge">
<title>a0f58a2a&#45;e92d&#45;496e&#45;9c81&#45;dc5401ab314f&#45;&gt;d3394774&#45;aba5&#45;4167&#45;bd18&#45;f194eb2bd9ed</title>
<path fill="none" stroke="black" d="M577.57,-374.3C649.11,-368.53 813.16,-353.1 948.3,-324 952.96,-323 957.79,-321.79 962.57,-320.49"/>
<polygon fill="black" stroke="black" points="963.6,-323.83 972.26,-317.72 961.68,-317.1 963.6,-323.83"/>
</g>
<!-- a0f58a2a&#45;e92d&#45;496e&#45;9c81&#45;dc5401ab314f&#45;&gt;7dab097c&#45;60ba&#45;43b9&#45;949f&#45;c58bf3151aa8 -->
<g id="edge25" class="edge">
<title>a0f58a2a&#45;e92d&#45;496e&#45;9c81&#45;dc5401ab314f&#45;&gt;7dab097c&#45;60ba&#45;43b9&#45;949f&#45;c58bf3151aa8</title>
<path fill="none" stroke="black" d="M504.61,-374.67C417.32,-368.73 199.55,-351.54 132.3,-324 83.27,-303.92 60.87,-299.44 37.3,-252 27.76,-232.81 29.43,-208.32 32.96,-189.89"/>
<polygon fill="black" stroke="black" points="36.39,-190.6 35.13,-180.08 29.56,-189.09 36.39,-190.6"/>
</g>
<!-- a0f58a2a&#45;e92d&#45;496e&#45;9c81&#45;dc5401ab314f&#45;&gt;4bfa17d7&#45;18db&#45;47d5&#45;9f3c&#45;5f3bb3c3231f -->
<g id="edge22" class="edge">
<title>a0f58a2a&#45;e92d&#45;496e&#45;9c81&#45;dc5401ab314f&#45;&gt;4bfa17d7&#45;18db&#45;47d5&#45;9f3c&#45;5f3bb3c3231f</title>
<path fill="none" stroke="black" d="M513.82,-365.75C484.39,-353.71 437.59,-334.55 405.48,-321.4"/>
<polygon fill="black" stroke="black" points="406.6,-318.08 396.02,-317.53 403.95,-324.56 406.6,-318.08"/>
</g>
<!-- a0f58a2a&#45;e92d&#45;496e&#45;9c81&#45;dc5401ab314f&#45;&gt;e04aa1a3&#45;509c&#45;45b2&#45;ac64&#45;53d69c961214 -->
<g id="edge23" class="edge">
<title>a0f58a2a&#45;e92d&#45;496e&#45;9c81&#45;dc5401ab314f&#45;&gt;e04aa1a3&#45;509c&#45;45b2&#45;ac64&#45;53d69c961214</title>
<path fill="none" stroke="black" d="M506.84,-371.1C421.56,-355.67 204.8,-311.21 167.3,-252 141.61,-211.44 133.98,-180.39 165.3,-144 185.61,-120.4 392.14,-101.11 479.06,-93.97"/>
<polygon fill="black" stroke="black" points="479.37,-97.46 489.05,-93.16 478.8,-90.48 479.37,-97.46"/>
</g>
<!-- a0f58a2a&#45;e92d&#45;496e&#45;9c81&#45;dc5401ab314f&#45;&gt;a6980e15&#45;ecee&#45;466e&#45;9ea7&#45;2c0210243c0d -->
<g id="edge24" class="edge">
<title>a0f58a2a&#45;e92d&#45;496e&#45;9c81&#45;dc5401ab314f&#45;&gt;a6980e15&#45;ecee&#45;466e&#45;9ea7&#45;2c0210243c0d</title>
<path fill="none" stroke="black" d="M578.38,-376.21C662.13,-373.74 862.7,-363.71 915.3,-324 955.25,-293.84 954.61,-265.53 947.3,-216 946,-207.21 943.55,-197.86 940.96,-189.5"/>
<polygon fill="black" stroke="black" points="944.24,-188.29 937.78,-179.9 937.6,-190.49 944.24,-188.29"/>
</g>
<!-- a0f58a2a&#45;e92d&#45;496e&#45;9c81&#45;dc5401ab314f&#45;&gt;afccf86d&#45;70b8&#45;44c0&#45;86a8&#45;cdac25f7dfd3 -->
<g id="edge26" class="edge">
<title>a0f58a2a&#45;e92d&#45;496e&#45;9c81&#45;dc5401ab314f&#45;&gt;afccf86d&#45;70b8&#45;44c0&#45;86a8&#45;cdac25f7dfd3</title>
<path fill="none" stroke="black" d="M571.56,-367.15C592.61,-358.82 619.74,-344.86 636.3,-324 667.34,-284.88 634.09,-253.3 667.3,-216 668.94,-214.15 721.66,-192.49 758.65,-177.44"/>
<polygon fill="black" stroke="black" points="760.19,-180.59 768.14,-173.59 757.56,-174.11 760.19,-180.59"/>
</g>
<!-- afccf86d&#45;70b8&#45;44c0&#45;86a8&#45;cdac25f7dfd3&#45;&gt;cfd092c4&#45;1bb2&#45;43d3&#45;88b1&#45;9f647809e546 -->
<g id="edge27" class="edge">
<title>afccf86d&#45;70b8&#45;44c0&#45;86a8&#45;cdac25f7dfd3&#45;&gt;cfd092c4&#45;1bb2&#45;43d3&#45;88b1&#45;9f647809e546</title>
<path fill="none" stroke="black" d="M799.4,-144.15C806.77,-119.81 820.47,-74.57 829.22,-45.67"/>
<polygon fill="black" stroke="black" points="832.65,-46.41 832.2,-35.82 825.95,-44.38 832.65,-46.41"/>
</g>
<!-- afccf86d&#45;70b8&#45;44c0&#45;86a8&#45;cdac25f7dfd3&#45;&gt;e04aa1a3&#45;509c&#45;45b2&#45;ac64&#45;53d69c961214 -->
<g id="edge28" class="edge">
<title>afccf86d&#45;70b8&#45;44c0&#45;86a8&#45;cdac25f7dfd3&#45;&gt;e04aa1a3&#45;509c&#45;45b2&#45;ac64&#45;53d69c961214</title>
<path fill="none" stroke="black" d="M768.6,-150.1C762.96,-147.91 756.97,-145.75 751.3,-144 683.03,-122.91 601.19,-106.29 554.62,-97.62"/>
<polygon fill="black" stroke="black" points="555.15,-94.15 544.68,-95.79 553.88,-101.04 555.15,-94.15"/>
</g>
<!-- 847c8c7a&#45;d53c&#45;464c&#45;9172&#45;f5826be47454 -->
<g id="node20" class="node">
<title>847c8c7a&#45;d53c&#45;464c&#45;9172&#45;f5826be47454</title>
<g id="a_node20"><a xlink:href="org-protocol://roam-node?node=847c8c7a-d53c-464c-9172-f5826be47454" xlink:title="fish">
<ellipse fill="#eeeeee" stroke="#c9c9c9" stroke-width="2" cx="203.3" cy="-234" rx="27" ry="18"/>
<text text-anchor="middle" x="203.3" y="-230.3" font-family="Times,serif" font-size="14.00" fill="#111111">fish</text>
</a>
</g>
</g>
<!-- 847c8c7a&#45;d53c&#45;464c&#45;9172&#45;f5826be47454&#45;&gt;585d3b5e&#45;989d&#45;4363&#45;bcc3&#45;894402fcfcf9 -->
<g id="edge29" class="edge">
<title>847c8c7a&#45;d53c&#45;464c&#45;9172&#45;f5826be47454&#45;&gt;585d3b5e&#45;989d&#45;4363&#45;bcc3&#45;894402fcfcf9</title>
<path fill="none" stroke="black" d="M203.3,-215.7C203.3,-207.98 203.3,-198.71 203.3,-190.11"/>
<polygon fill="black" stroke="black" points="206.8,-190.1 203.3,-180.1 199.8,-190.1 206.8,-190.1"/>
</g>
<!-- ad1527ee&#45;63b3&#45;4a9b&#45;a553&#45;10899f57c234 -->
<g id="node22" class="node">
<title>ad1527ee&#45;63b3&#45;4a9b&#45;a553&#45;10899f57c234</title>
<g id="a_node22"><a xlink:href="org-protocol://roam-node?node=ad1527ee-63b3-4a9b-a553-10899f57c234" xlink:title="TypeScript">
<ellipse fill="#eeeeee" stroke="#c9c9c9" stroke-width="2" cx="798.3" cy="-234" rx="50.09" ry="18"/>
<text text-anchor="middle" x="798.3" y="-230.3" font-family="Times,serif" font-size="14.00" fill="#111111">TypeScript</text>
</a>
</g>
</g>
<!-- ad1527ee&#45;63b3&#45;4a9b&#45;a553&#45;10899f57c234&#45;&gt;a6980e15&#45;ecee&#45;466e&#45;9ea7&#45;2c0210243c0d -->
<g id="edge33" class="edge">
<title>ad1527ee&#45;63b3&#45;4a9b&#45;a553&#45;10899f57c234&#45;&gt;a6980e15&#45;ecee&#45;466e&#45;9ea7&#45;2c0210243c0d</title>
<path fill="none" stroke="black" d="M825.53,-218.67C845.75,-208.03 873.5,-193.42 895.51,-181.83"/>
<polygon fill="black" stroke="black" points="897.33,-184.83 904.55,-177.08 894.07,-178.64 897.33,-184.83"/>
</g>
<!-- 120300fc&#45;27c2&#45;428e&#45;9fbc&#45;49e14172f6df -->
<g id="node23" class="node">
<title>120300fc&#45;27c2&#45;428e&#45;9fbc&#45;49e14172f6df</title>
<g id="a_node23"><a xlink:href="org-protocol://roam-node?node=120300fc-27c2-428e-9fbc-49e14172f6df" xlink:title="Test">
<ellipse fill="#eeeeee" stroke="#c9c9c9" stroke-width="2" cx="703.3" cy="-234" rx="27" ry="18"/>
<text text-anchor="middle" x="703.3" y="-230.3" font-family="Times,serif" font-size="14.00" fill="#111111">Test</text>
</a>
</g>
</g>
<!-- 120300fc&#45;27c2&#45;428e&#45;9fbc&#45;49e14172f6df&#45;&gt;cfd092c4&#45;1bb2&#45;43d3&#45;88b1&#45;9f647809e546 -->
<g id="edge34" class="edge">
<title>120300fc&#45;27c2&#45;428e&#45;9fbc&#45;49e14172f6df&#45;&gt;cfd092c4&#45;1bb2&#45;43d3&#45;88b1&#45;9f647809e546</title>
<path fill="none" stroke="black" d="M724.48,-222.61C729.31,-220.35 734.45,-218.03 739.3,-216 782.1,-198.08 810.74,-218.05 837.3,-180 865.13,-140.12 855.13,-80.07 845.86,-45.7"/>
<polygon fill="black" stroke="black" points="849.18,-44.55 843.06,-35.9 842.45,-46.48 849.18,-44.55"/>
</g>
<!-- 120300fc&#45;27c2&#45;428e&#45;9fbc&#45;49e14172f6df&#45;&gt;afccf86d&#45;70b8&#45;44c0&#45;86a8&#45;cdac25f7dfd3 -->
<g id="edge35" class="edge">
<title>120300fc&#45;27c2&#45;428e&#45;9fbc&#45;49e14172f6df&#45;&gt;afccf86d&#45;70b8&#45;44c0&#45;86a8&#45;cdac25f7dfd3</title>
<path fill="none" stroke="black" d="M720.41,-219.83C733.71,-209.61 752.38,-195.24 767.63,-183.51"/>
<polygon fill="black" stroke="black" points="769.9,-186.18 775.69,-177.31 765.63,-180.63 769.9,-186.18"/>
</g>
<!-- 4270d99a&#45;d2b5&#45;429e&#45;b33c&#45;c2e097b20730 -->
<g id="node24" class="node">
<title>4270d99a&#45;d2b5&#45;429e&#45;b33c&#45;c2e097b20730</title>
<g id="a_node24"><a xlink:href="org-protocol://roam-node?node=4270d99a-d2b5-429e-b33c-c2e097b20730" xlink:title="Zig">
<ellipse fill="#eeeeee" stroke="#c9c9c9" stroke-width="2" cx="1129.3" cy="-234" rx="27" ry="18"/>
<text text-anchor="middle" x="1129.3" y="-230.3" font-family="Times,serif" font-size="14.00" fill="#111111">Zig</text>
</a>
</g>
</g>
<!-- ddc21510&#45;6693&#45;4c1e&#45;9070&#45;db0dd2a8160b -->
<g id="node25" class="node">
<title>ddc21510&#45;6693&#45;4c1e&#45;9070&#45;db0dd2a8160b</title>
<g id="a_node25"><a xlink:href="org-protocol://roam-node?node=ddc21510-6693-4c1e-9070-db0dd2a8160b" xlink:title="Rust">
<ellipse fill="#eeeeee" stroke="#c9c9c9" stroke-width="2" cx="1129.3" cy="-306" rx="27" ry="18"/>
<text text-anchor="middle" x="1129.3" y="-302.3" font-family="Times,serif" font-size="14.00" fill="#111111">Rust</text>
</a>
</g>
</g>
<!-- 4270d99a&#45;d2b5&#45;429e&#45;b33c&#45;c2e097b20730&#45;&gt;ddc21510&#45;6693&#45;4c1e&#45;9070&#45;db0dd2a8160b -->
<g id="edge36" class="edge">
<title>4270d99a&#45;d2b5&#45;429e&#45;b33c&#45;c2e097b20730&#45;&gt;ddc21510&#45;6693&#45;4c1e&#45;9070&#45;db0dd2a8160b</title>
<path fill="none" stroke="black" d="M1135.18,-251.96C1136.01,-259.83 1136.24,-269.37 1135.88,-278.19"/>
<polygon fill="black" stroke="black" points="1132.37,-278.18 1135.14,-288.41 1139.35,-278.69 1132.37,-278.18"/>
</g>
<!-- ddc21510&#45;6693&#45;4c1e&#45;9070&#45;db0dd2a8160b&#45;&gt;1ad8c3d5&#45;97ba&#45;4905&#45;be11&#45;e6f2626127ad -->
<g id="edge38" class="edge">
<title>ddc21510&#45;6693&#45;4c1e&#45;9070&#45;db0dd2a8160b&#45;&gt;1ad8c3d5&#45;97ba&#45;4905&#45;be11&#45;e6f2626127ad</title>
<path fill="none" stroke="black" d="M1104.45,-298.42C1090.17,-294.86 1071.83,-290.65 1055.3,-288 884.3,-260.55 838.75,-276.45 667.3,-252 651.9,-249.8 635.12,-246.73 620.37,-243.8"/>
<polygon fill="black" stroke="black" points="621.03,-240.36 610.53,-241.81 619.64,-247.23 621.03,-240.36"/>
</g>
<!-- ddc21510&#45;6693&#45;4c1e&#45;9070&#45;db0dd2a8160b&#45;&gt;4270d99a&#45;d2b5&#45;429e&#45;b33c&#45;c2e097b20730 -->
<g id="edge37" class="edge">
<title>ddc21510&#45;6693&#45;4c1e&#45;9070&#45;db0dd2a8160b&#45;&gt;4270d99a&#45;d2b5&#45;429e&#45;b33c&#45;c2e097b20730</title>
<path fill="none" stroke="black" d="M1123.46,-288.41C1122.59,-280.51 1122.34,-270.85 1122.71,-261.94"/>
<polygon fill="black" stroke="black" points="1126.2,-262.18 1123.42,-251.96 1119.22,-261.68 1126.2,-262.18"/>
</g>
<!-- 815a2c31&#45;7ddb&#45;40ad&#45;bae0&#45;f84e1cfd8de1&#45;&gt;1ad8c3d5&#45;97ba&#45;4905&#45;be11&#45;e6f2626127ad -->
<g id="edge50" class="edge">
<title>815a2c31&#45;7ddb&#45;40ad&#45;bae0&#45;f84e1cfd8de1&#45;&gt;1ad8c3d5&#45;97ba&#45;4905&#45;be11&#45;e6f2626127ad</title>
<path fill="none" stroke="black" d="M676.2,-178.44C658.8,-189.65 633.53,-204.8 613.08,-216.29"/>
<polygon fill="black" stroke="black" points="611.12,-213.37 604.07,-221.28 614.51,-219.5 611.12,-213.37"/>
</g>
<!-- 90c6b715&#45;9324&#45;46ce&#45;a354&#45;63d09403b066 -->
<g id="node27" class="node">
<title>90c6b715&#45;9324&#45;46ce&#45;a354&#45;63d09403b066</title>
<g id="a_node27"><a xlink:href="org-protocol://roam-node?node=90c6b715-9324-46ce-a354-63d09403b066" xlink:title="Git">
<ellipse fill="#eeeeee" stroke="#c9c9c9" stroke-width="2" cx="448.3" cy="-306" rx="27" ry="18"/>
<text text-anchor="middle" x="448.3" y="-302.3" font-family="Times,serif" font-size="14.00" fill="#111111">Git</text>
</a>
</g>
</g>
<!-- 90c6b715&#45;9324&#45;46ce&#45;a354&#45;63d09403b066&#45;&gt;1ad8c3d5&#45;97ba&#45;4905&#45;be11&#45;e6f2626127ad -->
<g id="edge49" class="edge">
<title>90c6b715&#45;9324&#45;46ce&#45;a354&#45;63d09403b066&#45;&gt;1ad8c3d5&#45;97ba&#45;4905&#45;be11&#45;e6f2626127ad</title>
<path fill="none" stroke="black" d="M468.77,-294.06C489.69,-282.88 522.51,-265.34 546.96,-252.28"/>
<polygon fill="black" stroke="black" points="548.71,-255.31 555.88,-247.51 545.41,-249.14 548.71,-255.31"/>
</g>
<!-- d29202e8&#45;f21c&#45;41e0&#45;9ddf&#45;bad77a01de6a -->
<g id="node28" class="node">
<title>d29202e8&#45;f21c&#45;41e0&#45;9ddf&#45;bad77a01de6a</title>
<g id="a_node28"><a xlink:href="org-protocol://roam-node?node=d29202e8-f21c-41e0-9ddf-bad77a01de6a" xlink:title="OBS">
<ellipse fill="#eeeeee" stroke="#c9c9c9" stroke-width="2" cx="1124.3" cy="-378" rx="27.9" ry="18"/>
<text text-anchor="middle" x="1124.3" y="-374.3" font-family="Times,serif" font-size="14.00" fill="#111111">OBS</text>
</a>
</g>
</g>
<!-- b4f27aef&#45;22ec&#45;45c0&#45;be50&#45;810f3a0cf9bc -->
<g id="node29" class="node">
<title>b4f27aef&#45;22ec&#45;45c0&#45;be50&#45;810f3a0cf9bc</title>
<g id="a_node29"><a xlink:href="org-protocol://roam-node?node=b4f27aef-22ec-45c0-be50-810f3a0cf9bc" xlink:title="Money">
<ellipse fill="#eeeeee" stroke="#c9c9c9" stroke-width="2" cx="1206.3" cy="-378" rx="36.29" ry="18"/>
<text text-anchor="middle" x="1206.3" y="-374.3" font-family="Times,serif" font-size="14.00" fill="#111111">Money</text>
</a>
</g>
</g>
<!-- a6c9c9ad&#45;d9b1&#45;4e13&#45;8992&#45;75d8590e464c -->
<g id="node30" class="node">
<title>a6c9c9ad&#45;d9b1&#45;4e13&#45;8992&#45;75d8590e464c</title>
<g id="a_node30"><a xlink:href="org-protocol://roam-node?node=a6c9c9ad-d9b1-4e13-8992-75d8590e464c" xlink:title="Python">
<ellipse fill="#eeeeee" stroke="#c9c9c9" stroke-width="2" cx="1296.3" cy="-378" rx="36" ry="18"/>
<text text-anchor="middle" x="1296.3" y="-374.3" font-family="Times,serif" font-size="14.00" fill="#111111">Python</text>
</a>
</g>
</g>
<!-- 868ac56a&#45;2d42&#45;48d7&#45;ab7f&#45;7047c85a8f39 -->
<g id="node31" class="node">
<title>868ac56a&#45;2d42&#45;48d7&#45;ab7f&#45;7047c85a8f39</title>
<g id="a_node31"><a xlink:href="org-protocol://roam-node?node=868ac56a-2d42-48d7-ab7f-7047c85a8f39" xlink:title="Programing Language">
<ellipse fill="#eeeeee" stroke="#c9c9c9" stroke-width="2" cx="1439.3" cy="-378" rx="89.88" ry="18"/>
<text text-anchor="middle" x="1439.3" y="-374.3" font-family="Times,serif" font-size="14.00" fill="#111111">Programing Language</text>
</a>
</g>
</g>
</g>
</svg>
