<?xml version="1.0" encoding="UTF-8" standalone="no"?>
<!DOCTYPE svg PUBLIC "-//W3C//DTD SVG 1.1//EN"
 "http://www.w3.org/Graphics/SVG/1.1/DTD/svg11.dtd">
<!-- Generated by graphviz version 2.43.0 (0)
 -->
<!-- Title: org&#45;roam Pages: 1 -->
<svg width="1587pt" height="404pt"
 viewBox="0.00 0.00 1586.99 404.00" xmlns="http://www.w3.org/2000/svg" xmlns:xlink="http://www.w3.org/1999/xlink">
<g id="graph0" class="graph" transform="scale(1 1) rotate(0) translate(4 400)">
<title>org&#45;roam</title>
<polygon fill="white" stroke="transparent" points="-4,4 -4,-400 1582.99,-400 1582.99,4 -4,4"/>
<!-- f0cefeef&#45;6f99&#45;4ce2&#45;bff7&#45;db6e508f2c84 -->
<g id="node1" class="node">
<title>f0cefeef&#45;6f99&#45;4ce2&#45;bff7&#45;db6e508f2c84</title>
<g id="a_node1"><a xlink:href="org-protocol://roam-node?node=f0cefeef-6f99-4ce2-bff7-db6e508f2c84" xlink:title="create&#45;link">
<ellipse fill="#eeeeee" stroke="#c9c9c9" stroke-width="2" cx="536.3" cy="-306" rx="48.19" ry="18"/>
<text text-anchor="middle" x="536.3" y="-302.3" font-family="Times,serif" font-size="14.00" fill="#111111">create&#45;link</text>
</a>
</g>
</g>
<!-- a9fab970&#45;2057&#45;48ce&#45;95ee&#45;19964d639a38 -->
<g id="node2" class="node">
<title>a9fab970&#45;2057&#45;48ce&#45;95ee&#45;19964d639a38</title>
<g id="a_node2"><a xlink:href="org-protocol://roam-node?node=a9fab970-2057-48ce-95ee-19964d639a38" xlink:title="Project">
<ellipse fill="#eeeeee" stroke="#c9c9c9" stroke-width="2" cx="1022.3" cy="-234" rx="36" ry="18"/>
<text text-anchor="middle" x="1022.3" y="-230.3" font-family="Times,serif" font-size="14.00" fill="#111111">Project</text>
</a>
</g>
</g>
<!-- f0cefeef&#45;6f99&#45;4ce2&#45;bff7&#45;db6e508f2c84&#45;&gt;a9fab970&#45;2057&#45;48ce&#45;95ee&#45;19964d639a38 -->
<g id="edge1" class="edge">
<title>f0cefeef&#45;6f99&#45;4ce2&#45;bff7&#45;db6e508f2c84&#45;&gt;a9fab970&#45;2057&#45;48ce&#45;95ee&#45;19964d639a38</title>
<path fill="none" stroke="black" d="M570.99,-293.47C578.29,-291.38 586,-289.42 593.3,-288 761.57,-255.35 810.29,-290.63 977.3,-252 980.29,-251.31 983.36,-250.46 986.41,-249.52"/>
<polygon fill="black" stroke="black" points="987.66,-252.79 996.01,-246.27 985.42,-246.16 987.66,-252.79"/>
</g>
<!-- 1ad8c3d5&#45;97ba&#45;4905&#45;be11&#45;e6f2626127ad -->
<g id="node3" class="node">
<title>1ad8c3d5&#45;97ba&#45;4905&#45;be11&#45;e6f2626127ad</title>
<g id="a_node3"><a xlink:href="org-protocol://roam-node?node=1ad8c3d5-97ba-4905-be11-e6f2626127ad" xlink:title="Emacs">
<ellipse fill="#eeeeee" stroke="#c9c9c9" stroke-width="2" cx="536.3" cy="-234" rx="34.39" ry="18"/>
<text text-anchor="middle" x="536.3" y="-230.3" font-family="Times,serif" font-size="14.00" fill="#111111">Emacs</text>
</a>
</g>
</g>
<!-- f0cefeef&#45;6f99&#45;4ce2&#45;bff7&#45;db6e508f2c84&#45;&gt;1ad8c3d5&#45;97ba&#45;4905&#45;be11&#45;e6f2626127ad -->
<g id="edge2" class="edge">
<title>f0cefeef&#45;6f99&#45;4ce2&#45;bff7&#45;db6e508f2c84&#45;&gt;1ad8c3d5&#45;97ba&#45;4905&#45;be11&#45;e6f2626127ad</title>
<path fill="none" stroke="black" d="M530.42,-288.05C529.59,-280.23 529.35,-270.75 529.71,-261.98"/>
<polygon fill="black" stroke="black" points="533.21,-262.01 530.43,-251.79 526.23,-261.51 533.21,-262.01"/>
</g>
<!-- 70f249a8&#45;f8c8&#45;4a7e&#45;978c&#45;8ff04ffd09c0 -->
<g id="node6" class="node">
<title>70f249a8&#45;f8c8&#45;4a7e&#45;978c&#45;8ff04ffd09c0</title>
<g id="a_node6"><a xlink:href="org-protocol://roam-node?node=70f249a8-f8c8-4a7e-978c-8ff04ffd09c0" xlink:title="digger">
<ellipse fill="#eeeeee" stroke="#c9c9c9" stroke-width="2" cx="1022.3" cy="-162" rx="33.29" ry="18"/>
<text text-anchor="middle" x="1022.3" y="-158.3" font-family="Times,serif" font-size="14.00" fill="#111111">digger</text>
</a>
</g>
</g>
<!-- a9fab970&#45;2057&#45;48ce&#45;95ee&#45;19964d639a38&#45;&gt;70f249a8&#45;f8c8&#45;4a7e&#45;978c&#45;8ff04ffd09c0 -->
<g id="edge43" class="edge">
<title>a9fab970&#45;2057&#45;48ce&#45;95ee&#45;19964d639a38&#45;&gt;70f249a8&#45;f8c8&#45;4a7e&#45;978c&#45;8ff04ffd09c0</title>
<path fill="none" stroke="black" d="M1022.3,-215.7C1022.3,-207.98 1022.3,-198.71 1022.3,-190.11"/>
<polygon fill="black" stroke="black" points="1025.8,-190.1 1022.3,-180.1 1018.8,-190.1 1025.8,-190.1"/>
</g>
<!-- 1ad8c3d5&#45;97ba&#45;4905&#45;be11&#45;e6f2626127ad&#45;&gt;f0cefeef&#45;6f99&#45;4ce2&#45;bff7&#45;db6e508f2c84 -->
<g id="edge36" class="edge">
<title>1ad8c3d5&#45;97ba&#45;4905&#45;be11&#45;e6f2626127ad&#45;&gt;f0cefeef&#45;6f99&#45;4ce2&#45;bff7&#45;db6e508f2c84</title>
<path fill="none" stroke="black" d="M542.16,-251.79C543,-259.59 543.24,-269.07 542.89,-277.85"/>
<polygon fill="black" stroke="black" points="539.38,-277.83 542.17,-288.05 546.37,-278.33 539.38,-277.83"/>
</g>
<!-- 8c81068f&#45;0e51&#45;4d6d&#45;bd1f&#45;392ce8cb3a21 -->
<g id="node4" class="node">
<title>8c81068f&#45;0e51&#45;4d6d&#45;bd1f&#45;392ce8cb3a21</title>
<g id="a_node4"><a xlink:href="org-protocol://roam-node?node=8c81068f-0e51-4d6d-bd1f-392ce8cb3a21" xlink:title="current&#45;word&#45;highlight">
<ellipse fill="#eeeeee" stroke="#c9c9c9" stroke-width="2" cx="333.3" cy="-162" rx="90.98" ry="18"/>
<text text-anchor="middle" x="333.3" y="-158.3" font-family="Times,serif" font-size="14.00" fill="#111111">current&#45;word&#45;highlight</text>
</a>
</g>
</g>
<!-- 1ad8c3d5&#45;97ba&#45;4905&#45;be11&#45;e6f2626127ad&#45;&gt;8c81068f&#45;0e51&#45;4d6d&#45;bd1f&#45;392ce8cb3a21 -->
<g id="edge35" class="edge">
<title>1ad8c3d5&#45;97ba&#45;4905&#45;be11&#45;e6f2626127ad&#45;&gt;8c81068f&#45;0e51&#45;4d6d&#45;bd1f&#45;392ce8cb3a21</title>
<path fill="none" stroke="black" d="M506.79,-224.42C473.91,-213.85 420.5,-195.6 381.56,-181.73"/>
<polygon fill="black" stroke="black" points="382.59,-178.38 372,-178.31 380.23,-184.97 382.59,-178.38"/>
</g>
<!-- c7e81fac&#45;9f8b&#45;4538&#45;9851&#45;21d4ff3c2b08 -->
<g id="node8" class="node">
<title>c7e81fac&#45;9f8b&#45;4538&#45;9851&#45;21d4ff3c2b08</title>
<g id="a_node8"><a xlink:href="org-protocol://roam-node?node=c7e81fac-9f8b-4538-9851-21d4ff3c2b08" xlink:title="Emacs Lisp">
<ellipse fill="#eeeeee" stroke="#c9c9c9" stroke-width="2" cx="571.3" cy="-162" rx="52.79" ry="18"/>
<text text-anchor="middle" x="571.3" y="-158.3" font-family="Times,serif" font-size="14.00" fill="#111111">Emacs Lisp</text>
</a>
</g>
</g>
<!-- 1ad8c3d5&#45;97ba&#45;4905&#45;be11&#45;e6f2626127ad&#45;&gt;c7e81fac&#45;9f8b&#45;4538&#45;9851&#45;21d4ff3c2b08 -->
<g id="edge32" class="edge">
<title>1ad8c3d5&#45;97ba&#45;4905&#45;be11&#45;e6f2626127ad&#45;&gt;c7e81fac&#45;9f8b&#45;4538&#45;9851&#45;21d4ff3c2b08</title>
<path fill="none" stroke="black" d="M539.03,-215.7C542.31,-207.44 547.13,-197.39 552.13,-188.3"/>
<polygon fill="black" stroke="black" points="555.17,-190.03 557.14,-179.62 549.11,-186.53 555.17,-190.03"/>
</g>
<!-- 815a2c31&#45;7ddb&#45;40ad&#45;bae0&#45;f84e1cfd8de1 -->
<g id="node9" class="node">
<title>815a2c31&#45;7ddb&#45;40ad&#45;bae0&#45;f84e1cfd8de1</title>
<g id="a_node9"><a xlink:href="org-protocol://roam-node?node=815a2c31-7ddb-40ad-bae0-f84e1cfd8de1" xlink:title="Org&#45;roam">
<ellipse fill="#eeeeee" stroke="#c9c9c9" stroke-width="2" cx="688.3" cy="-162" rx="46.29" ry="18"/>
<text text-anchor="middle" x="688.3" y="-158.3" font-family="Times,serif" font-size="14.00" fill="#111111">Org&#45;roam</text>
</a>
</g>
</g>
<!-- 1ad8c3d5&#45;97ba&#45;4905&#45;be11&#45;e6f2626127ad&#45;&gt;815a2c31&#45;7ddb&#45;40ad&#45;bae0&#45;f84e1cfd8de1 -->
<g id="edge34" class="edge">
<title>1ad8c3d5&#45;97ba&#45;4905&#45;be11&#45;e6f2626127ad&#45;&gt;815a2c31&#45;7ddb&#45;40ad&#45;bae0&#45;f84e1cfd8de1</title>
<path fill="none" stroke="black" d="M558.81,-220.16C582.15,-208.64 618.85,-191.67 647.3,-179.21"/>
<polygon fill="black" stroke="black" points="648.82,-182.36 656.6,-175.17 646.04,-175.94 648.82,-182.36"/>
</g>
<!-- 7dab097c&#45;60ba&#45;43b9&#45;949f&#45;c58bf3151aa8 -->
<g id="node12" class="node">
<title>7dab097c&#45;60ba&#45;43b9&#45;949f&#45;c58bf3151aa8</title>
<g id="a_node12"><a xlink:href="org-protocol://roam-node?node=7dab097c-60ba-43b9-949f-c58bf3151aa8" xlink:title="MySQL">
<ellipse fill="#eeeeee" stroke="#c9c9c9" stroke-width="2" cx="70.3" cy="-162" rx="40.09" ry="18"/>
<text text-anchor="middle" x="70.3" y="-158.3" font-family="Times,serif" font-size="14.00" fill="#111111">MySQL</text>
</a>
</g>
</g>
<!-- 1ad8c3d5&#45;97ba&#45;4905&#45;be11&#45;e6f2626127ad&#45;&gt;7dab097c&#45;60ba&#45;43b9&#45;949f&#45;c58bf3151aa8 -->
<g id="edge37" class="edge">
<title>1ad8c3d5&#45;97ba&#45;4905&#45;be11&#45;e6f2626127ad&#45;&gt;7dab097c&#45;60ba&#45;43b9&#45;949f&#45;c58bf3151aa8</title>
<path fill="none" stroke="black" d="M503,-228.96C436.91,-220.8 284.58,-201.32 157.3,-180 143.87,-177.75 129.34,-175.03 116.06,-172.42"/>
<polygon fill="black" stroke="black" points="116.69,-168.98 106.2,-170.47 115.32,-175.85 116.69,-168.98"/>
</g>
<!-- 8b69b8d4&#45;1612&#45;4dc5&#45;8412&#45;96b431fdd101 -->
<g id="node13" class="node">
<title>8b69b8d4&#45;1612&#45;4dc5&#45;8412&#45;96b431fdd101</title>
<g id="a_node13"><a xlink:href="org-protocol://roam-node?node=8b69b8d4-1612-4dc5-8412-96b431fdd101" xlink:title="SQL">
<ellipse fill="#eeeeee" stroke="#c9c9c9" stroke-width="2" cx="452.3" cy="-18" rx="27.1" ry="18"/>
<text text-anchor="middle" x="452.3" y="-14.3" font-family="Times,serif" font-size="14.00" fill="#111111">SQL</text>
</a>
</g>
</g>
<!-- 1ad8c3d5&#45;97ba&#45;4905&#45;be11&#45;e6f2626127ad&#45;&gt;8b69b8d4&#45;1612&#45;4dc5&#45;8412&#45;96b431fdd101 -->
<g id="edge38" class="edge">
<title>1ad8c3d5&#45;97ba&#45;4905&#45;be11&#45;e6f2626127ad&#45;&gt;8b69b8d4&#45;1612&#45;4dc5&#45;8412&#45;96b431fdd101</title>
<path fill="none" stroke="black" d="M524.43,-216.78C517.23,-206.54 508.14,-192.85 501.3,-180 485,-149.4 481.62,-141.09 471.3,-108 464.91,-87.55 459.96,-63.79 456.71,-45.96"/>
<polygon fill="black" stroke="black" points="460.14,-45.21 454.96,-35.97 453.24,-46.42 460.14,-45.21"/>
</g>
<!-- e04aa1a3&#45;509c&#45;45b2&#45;ac64&#45;53d69c961214 -->
<g id="node16" class="node">
<title>e04aa1a3&#45;509c&#45;45b2&#45;ac64&#45;53d69c961214</title>
<g id="a_node16"><a xlink:href="org-protocol://roam-node?node=e04aa1a3-509c-45b2-ac64-53d69c961214" xlink:title="Rails">
<ellipse fill="#eeeeee" stroke="#c9c9c9" stroke-width="2" cx="509.3" cy="-90" rx="28.7" ry="18"/>
<text text-anchor="middle" x="509.3" y="-86.3" font-family="Times,serif" font-size="14.00" fill="#111111">Rails</text>
</a>
</g>
</g>
<!-- 1ad8c3d5&#45;97ba&#45;4905&#45;be11&#45;e6f2626127ad&#45;&gt;e04aa1a3&#45;509c&#45;45b2&#45;ac64&#45;53d69c961214 -->
<g id="edge39" class="edge">
<title>1ad8c3d5&#45;97ba&#45;4905&#45;be11&#45;e6f2626127ad&#45;&gt;e04aa1a3&#45;509c&#45;45b2&#45;ac64&#45;53d69c961214</title>
<path fill="none" stroke="black" d="M525.39,-216.61C519.34,-206.52 512.43,-193.05 509.3,-180 504.4,-159.62 504.7,-135.86 506.05,-118.01"/>
<polygon fill="black" stroke="black" points="509.54,-118.28 506.97,-108.01 502.57,-117.65 509.54,-118.28"/>
</g>
<!-- a6980e15&#45;ecee&#45;466e&#45;9ea7&#45;2c0210243c0d -->
<g id="node19" class="node">
<title>a6980e15&#45;ecee&#45;466e&#45;9ea7&#45;2c0210243c0d</title>
<g id="a_node19"><a xlink:href="org-protocol://roam-node?node=a6980e15-ecee-466e-9ea7-2c0210243c0d" xlink:title="JavaScript">
<ellipse fill="#eeeeee" stroke="#c9c9c9" stroke-width="2" cx="923.3" cy="-162" rx="47.39" ry="18"/>
<text text-anchor="middle" x="923.3" y="-158.3" font-family="Times,serif" font-size="14.00" fill="#111111">JavaScript</text>
</a>
</g>
</g>
<!-- 1ad8c3d5&#45;97ba&#45;4905&#45;be11&#45;e6f2626127ad&#45;&gt;a6980e15&#45;ecee&#45;466e&#45;9ea7&#45;2c0210243c0d -->
<g id="edge41" class="edge">
<title>1ad8c3d5&#45;97ba&#45;4905&#45;be11&#45;e6f2626127ad&#45;&gt;a6980e15&#45;ecee&#45;466e&#45;9ea7&#45;2c0210243c0d</title>
<path fill="none" stroke="black" d="M568.29,-227.21C635.16,-215.12 790.19,-187.08 871.46,-172.38"/>
<polygon fill="black" stroke="black" points="872.26,-175.79 881.47,-170.56 871.01,-168.9 872.26,-175.79"/>
</g>
<!-- afccf86d&#45;70b8&#45;44c0&#45;86a8&#45;cdac25f7dfd3 -->
<g id="node20" class="node">
<title>afccf86d&#45;70b8&#45;44c0&#45;86a8&#45;cdac25f7dfd3</title>
<g id="a_node20"><a xlink:href="org-protocol://roam-node?node=afccf86d-70b8-44c0-86a8-cdac25f7dfd3" xlink:title="RSpec">
<ellipse fill="#eeeeee" stroke="#c9c9c9" stroke-width="2" cx="786.3" cy="-162" rx="33.6" ry="18"/>
<text text-anchor="middle" x="786.3" y="-158.3" font-family="Times,serif" font-size="14.00" fill="#111111">RSpec</text>
</a>
</g>
</g>
<!-- 1ad8c3d5&#45;97ba&#45;4905&#45;be11&#45;e6f2626127ad&#45;&gt;afccf86d&#45;70b8&#45;44c0&#45;86a8&#45;cdac25f7dfd3 -->
<g id="edge40" class="edge">
<title>1ad8c3d5&#45;97ba&#45;4905&#45;be11&#45;e6f2626127ad&#45;&gt;afccf86d&#45;70b8&#45;44c0&#45;86a8&#45;cdac25f7dfd3</title>
<path fill="none" stroke="black" d="M567.51,-226.3C608.33,-217.24 681.89,-199.91 743.3,-180 745.86,-179.17 748.48,-178.27 751.12,-177.32"/>
<polygon fill="black" stroke="black" points="752.43,-180.57 760.57,-173.78 749.97,-174.01 752.43,-180.57"/>
</g>
<!-- 585d3b5e&#45;989d&#45;4363&#45;bcc3&#45;894402fcfcf9 -->
<g id="node22" class="node">
<title>585d3b5e&#45;989d&#45;4363&#45;bcc3&#45;894402fcfcf9</title>
<g id="a_node22"><a xlink:href="org-protocol://roam-node?node=585d3b5e-989d-4363-bcc3-894402fcfcf9" xlink:title="Shell">
<ellipse fill="#eeeeee" stroke="#c9c9c9" stroke-width="2" cx="195.3" cy="-162" rx="28.7" ry="18"/>
<text text-anchor="middle" x="195.3" y="-158.3" font-family="Times,serif" font-size="14.00" fill="#111111">Shell</text>
</a>
</g>
</g>
<!-- 1ad8c3d5&#45;97ba&#45;4905&#45;be11&#45;e6f2626127ad&#45;&gt;585d3b5e&#45;989d&#45;4363&#45;bcc3&#45;894402fcfcf9 -->
<g id="edge33" class="edge">
<title>1ad8c3d5&#45;97ba&#45;4905&#45;be11&#45;e6f2626127ad&#45;&gt;585d3b5e&#45;989d&#45;4363&#45;bcc3&#45;894402fcfcf9</title>
<path fill="none" stroke="black" d="M502.48,-229.85C445.82,-223.95 328.53,-209.14 233.3,-180 231.02,-179.3 228.7,-178.51 226.39,-177.64"/>
<polygon fill="black" stroke="black" points="227.63,-174.37 217.04,-173.84 224.98,-180.85 227.63,-174.37"/>
</g>
<!-- 8c81068f&#45;0e51&#45;4d6d&#45;bd1f&#45;392ce8cb3a21&#45;&gt;1ad8c3d5&#45;97ba&#45;4905&#45;be11&#45;e6f2626127ad -->
<g id="edge3" class="edge">
<title>8c81068f&#45;0e51&#45;4d6d&#45;bd1f&#45;392ce8cb3a21&#45;&gt;1ad8c3d5&#45;97ba&#45;4905&#45;be11&#45;e6f2626127ad</title>
<path fill="none" stroke="black" d="M380.76,-177.44C417.31,-189.51 466.93,-206.62 500.27,-218.65"/>
<polygon fill="black" stroke="black" points="499.46,-222.09 510.06,-222.22 501.86,-215.51 499.46,-222.09"/>
</g>
<!-- d694ecaa&#45;6a8b&#45;4669&#45;a95c&#45;f76de6dcbd2c -->
<g id="node5" class="node">
<title>d694ecaa&#45;6a8b&#45;4669&#45;a95c&#45;f76de6dcbd2c</title>
<g id="a_node5"><a xlink:href="org-protocol://roam-node?node=d694ecaa-6a8b-4669-a95c-f76de6dcbd2c" xlink:title="GNU Guix">
<ellipse fill="#eeeeee" stroke="#c9c9c9" stroke-width="2" cx="652.3" cy="-306" rx="50.09" ry="18"/>
<text text-anchor="middle" x="652.3" y="-302.3" font-family="Times,serif" font-size="14.00" fill="#111111">GNU Guix</text>
</a>
</g>
</g>
<!-- d694ecaa&#45;6a8b&#45;4669&#45;a95c&#45;f76de6dcbd2c&#45;&gt;a9fab970&#45;2057&#45;48ce&#45;95ee&#45;19964d639a38 -->
<g id="edge4" class="edge">
<title>d694ecaa&#45;6a8b&#45;4669&#45;a95c&#45;f76de6dcbd2c&#45;&gt;a9fab970&#45;2057&#45;48ce&#45;95ee&#45;19964d639a38</title>
<path fill="none" stroke="black" d="M699.74,-300.27C763.6,-293.22 880.37,-277.93 977.3,-252 980.09,-251.25 982.96,-250.39 985.82,-249.47"/>
<polygon fill="black" stroke="black" points="987.15,-252.72 995.45,-246.14 984.86,-246.1 987.15,-252.72"/>
</g>
<!-- d694ecaa&#45;6a8b&#45;4669&#45;a95c&#45;f76de6dcbd2c&#45;&gt;1ad8c3d5&#45;97ba&#45;4905&#45;be11&#45;e6f2626127ad -->
<g id="edge5" class="edge">
<title>d694ecaa&#45;6a8b&#45;4669&#45;a95c&#45;f76de6dcbd2c&#45;&gt;1ad8c3d5&#45;97ba&#45;4905&#45;be11&#45;e6f2626127ad</title>
<path fill="none" stroke="black" d="M627.69,-290.15C609.9,-279.41 585.73,-264.83 566.72,-253.36"/>
<polygon fill="black" stroke="black" points="568.49,-250.34 558.12,-248.17 564.88,-256.33 568.49,-250.34"/>
</g>
<!-- cfd092c4&#45;1bb2&#45;43d3&#45;88b1&#45;9f647809e546 -->
<g id="node7" class="node">
<title>cfd092c4&#45;1bb2&#45;43d3&#45;88b1&#45;9f647809e546</title>
<g id="a_node7"><a xlink:href="org-protocol://roam-node?node=cfd092c4-1bb2-43d3-88b1-9f647809e546" xlink:title="Ruby">
<ellipse fill="#eeeeee" stroke="#c9c9c9" stroke-width="2" cx="829.3" cy="-18" rx="29.8" ry="18"/>
<text text-anchor="middle" x="829.3" y="-14.3" font-family="Times,serif" font-size="14.00" fill="#111111">Ruby</text>
</a>
</g>
</g>
<!-- 70f249a8&#45;f8c8&#45;4a7e&#45;978c&#45;8ff04ffd09c0&#45;&gt;cfd092c4&#45;1bb2&#45;43d3&#45;88b1&#45;9f647809e546 -->
<g id="edge6" class="edge">
<title>70f249a8&#45;f8c8&#45;4a7e&#45;978c&#45;8ff04ffd09c0&#45;&gt;cfd092c4&#45;1bb2&#45;43d3&#45;88b1&#45;9f647809e546</title>
<path fill="none" stroke="black" d="M1003.44,-147.13C968.96,-121.76 895.66,-67.83 856.04,-38.68"/>
<polygon fill="black" stroke="black" points="857.79,-35.62 847.66,-32.51 853.64,-41.26 857.79,-35.62"/>
</g>
<!-- c7e81fac&#45;9f8b&#45;4538&#45;9851&#45;21d4ff3c2b08&#45;&gt;1ad8c3d5&#45;97ba&#45;4905&#45;be11&#45;e6f2626127ad -->
<g id="edge7" class="edge">
<title>c7e81fac&#45;9f8b&#45;4538&#45;9851&#45;21d4ff3c2b08&#45;&gt;1ad8c3d5&#45;97ba&#45;4905&#45;be11&#45;e6f2626127ad</title>
<path fill="none" stroke="black" d="M568.56,-180.29C565.21,-188.74 560.24,-199.06 555.12,-208.32"/>
<polygon fill="black" stroke="black" points="552,-206.71 550,-217.12 558.05,-210.23 552,-206.71"/>
</g>
<!-- 815a2c31&#45;7ddb&#45;40ad&#45;bae0&#45;f84e1cfd8de1&#45;&gt;1ad8c3d5&#45;97ba&#45;4905&#45;be11&#45;e6f2626127ad -->
<g id="edge8" class="edge">
<title>815a2c31&#45;7ddb&#45;40ad&#45;bae0&#45;f84e1cfd8de1&#45;&gt;1ad8c3d5&#45;97ba&#45;4905&#45;be11&#45;e6f2626127ad</title>
<path fill="none" stroke="black" d="M663.03,-177.19C638.32,-189.31 600.68,-206.64 572.76,-218.77"/>
<polygon fill="black" stroke="black" points="571.13,-215.66 563.33,-222.82 573.9,-222.09 571.13,-215.66"/>
</g>
<!-- 02b46258&#45;7650&#45;4a02&#45;9f0e&#45;c422555b29d0 -->
<g id="node10" class="node">
<title>02b46258&#45;7650&#45;4a02&#45;9f0e&#45;c422555b29d0</title>
<g id="a_node10"><a xlink:href="org-protocol://roam-node?node=02b46258-7650-4a02-9f0e-c422555b29d0" xlink:title="Archive">
<ellipse fill="#eeeeee" stroke="#c9c9c9" stroke-width="2" cx="1089.3" cy="-378" rx="38.99" ry="18"/>
<text text-anchor="middle" x="1089.3" y="-374.3" font-family="Times,serif" font-size="14.00" fill="#111111">Archive</text>
</a>
</g>
</g>
<!-- 02b46258&#45;7650&#45;4a02&#45;9f0e&#45;c422555b29d0&#45;&gt;70f249a8&#45;f8c8&#45;4a7e&#45;978c&#45;8ff04ffd09c0 -->
<g id="edge10" class="edge">
<title>02b46258&#45;7650&#45;4a02&#45;9f0e&#45;c422555b29d0&#45;&gt;70f249a8&#45;f8c8&#45;4a7e&#45;978c&#45;8ff04ffd09c0</title>
<path fill="none" stroke="black" d="M1095.78,-360.1C1099.37,-349.84 1103.47,-336.36 1105.3,-324 1112.44,-275.63 1110.83,-257.07 1084.3,-216 1075.82,-202.89 1063.15,-191.24 1051.47,-182.23"/>
<polygon fill="black" stroke="black" points="1053.33,-179.26 1043.21,-176.15 1049.18,-184.89 1053.33,-179.26"/>
</g>
<!-- d3394774&#45;aba5&#45;4167&#45;bd18&#45;f194eb2bd9ed -->
<g id="node11" class="node">
<title>d3394774&#45;aba5&#45;4167&#45;bd18&#45;f194eb2bd9ed</title>
<g id="a_node11"><a xlink:href="org-protocol://roam-node?node=d3394774-aba5-4167-bd18-f194eb2bd9ed" xlink:title="TextLint">
<ellipse fill="#eeeeee" stroke="#c9c9c9" stroke-width="2" cx="1054.3" cy="-306" rx="41.69" ry="18"/>
<text text-anchor="middle" x="1054.3" y="-302.3" font-family="Times,serif" font-size="14.00" fill="#111111">TextLint</text>
</a>
</g>
</g>
<!-- 02b46258&#45;7650&#45;4a02&#45;9f0e&#45;c422555b29d0&#45;&gt;d3394774&#45;aba5&#45;4167&#45;bd18&#45;f194eb2bd9ed -->
<g id="edge9" class="edge">
<title>02b46258&#45;7650&#45;4a02&#45;9f0e&#45;c422555b29d0&#45;&gt;d3394774&#45;aba5&#45;4167&#45;bd18&#45;f194eb2bd9ed</title>
<path fill="none" stroke="black" d="M1081,-360.41C1076.92,-352.25 1071.91,-342.22 1067.33,-333.07"/>
<polygon fill="black" stroke="black" points="1070.38,-331.34 1062.77,-323.96 1064.12,-334.47 1070.38,-331.34"/>
</g>
<!-- d3394774&#45;aba5&#45;4167&#45;bd18&#45;f194eb2bd9ed&#45;&gt;1ad8c3d5&#45;97ba&#45;4905&#45;be11&#45;e6f2626127ad -->
<g id="edge45" class="edge">
<title>d3394774&#45;aba5&#45;4167&#45;bd18&#45;f194eb2bd9ed&#45;&gt;1ad8c3d5&#45;97ba&#45;4905&#45;be11&#45;e6f2626127ad</title>
<path fill="none" stroke="black" d="M1023.84,-293.7C1017.15,-291.54 1010.04,-289.49 1003.3,-288 923.07,-270.28 680.1,-247.64 580.05,-238.79"/>
<polygon fill="black" stroke="black" points="580.25,-235.29 569.98,-237.9 579.64,-242.27 580.25,-235.29"/>
</g>
<!-- d3394774&#45;aba5&#45;4167&#45;bd18&#45;f194eb2bd9ed&#45;&gt;a6980e15&#45;ecee&#45;466e&#45;9ea7&#45;2c0210243c0d -->
<g id="edge44" class="edge">
<title>d3394774&#45;aba5&#45;4167&#45;bd18&#45;f194eb2bd9ed&#45;&gt;a6980e15&#45;ecee&#45;466e&#45;9ea7&#45;2c0210243c0d</title>
<path fill="none" stroke="black" d="M1063.17,-288.31C1072.02,-269.12 1082.3,-237.52 1067.3,-216 1061.33,-207.45 1008.78,-189.53 968.88,-176.9"/>
<polygon fill="black" stroke="black" points="969.88,-173.55 959.29,-173.89 967.79,-180.23 969.88,-173.55"/>
</g>
<!-- 7dab097c&#45;60ba&#45;43b9&#45;949f&#45;c58bf3151aa8&#45;&gt;8b69b8d4&#45;1612&#45;4dc5&#45;8412&#45;96b431fdd101 -->
<g id="edge11" class="edge">
<title>7dab097c&#45;60ba&#45;43b9&#45;949f&#45;c58bf3151aa8&#45;&gt;8b69b8d4&#45;1612&#45;4dc5&#45;8412&#45;96b431fdd101</title>
<path fill="none" stroke="black" d="M100.27,-149.86C170.66,-123.69 346.07,-58.49 419.33,-31.26"/>
<polygon fill="black" stroke="black" points="420.81,-34.44 428.97,-27.67 418.37,-27.88 420.81,-34.44"/>
</g>
<!-- 4bfa17d7&#45;18db&#45;47d5&#45;9f3c&#45;5f3bb3c3231f -->
<g id="node14" class="node">
<title>4bfa17d7&#45;18db&#45;47d5&#45;9f3c&#45;5f3bb3c3231f</title>
<g id="a_node14"><a xlink:href="org-protocol://roam-node?node=4bfa17d7-18db-47d5-9f3c-5f3bb3c3231f" xlink:title="ej&#45;dict">
<ellipse fill="#eeeeee" stroke="#c9c9c9" stroke-width="2" cx="399.3" cy="-306" rx="33.29" ry="18"/>
<text text-anchor="middle" x="399.3" y="-302.3" font-family="Times,serif" font-size="14.00" fill="#111111">ej&#45;dict</text>
</a>
</g>
</g>
<!-- 4bfa17d7&#45;18db&#45;47d5&#45;9f3c&#45;5f3bb3c3231f&#45;&gt;1ad8c3d5&#45;97ba&#45;4905&#45;be11&#45;e6f2626127ad -->
<g id="edge12" class="edge">
<title>4bfa17d7&#45;18db&#45;47d5&#45;9f3c&#45;5f3bb3c3231f&#45;&gt;1ad8c3d5&#45;97ba&#45;4905&#45;be11&#45;e6f2626127ad</title>
<path fill="none" stroke="black" d="M422.54,-293.13C444.74,-281.78 478.43,-264.57 503.38,-251.82"/>
<polygon fill="black" stroke="black" points="505.17,-254.83 512.48,-247.17 501.98,-248.6 505.17,-254.83"/>
</g>
<!-- a23ceb84&#45;e89a&#45;4905&#45;b931&#45;1944a0b828b7 -->
<g id="node15" class="node">
<title>a23ceb84&#45;e89a&#45;4905&#45;b931&#45;1944a0b828b7</title>
<g id="a_node15"><a xlink:href="org-protocol://roam-node?node=a23ceb84-e89a-4905-b931-1944a0b828b7" xlink:title="Learning">
<ellipse fill="#eeeeee" stroke="#c9c9c9" stroke-width="2" cx="952.3" cy="-306" rx="42.49" ry="18"/>
<text text-anchor="middle" x="952.3" y="-302.3" font-family="Times,serif" font-size="14.00" fill="#111111">Learning</text>
</a>
</g>
</g>
<!-- a23ceb84&#45;e89a&#45;4905&#45;b931&#45;1944a0b828b7&#45;&gt;a9fab970&#45;2057&#45;48ce&#45;95ee&#45;19964d639a38 -->
<g id="edge13" class="edge">
<title>a23ceb84&#45;e89a&#45;4905&#45;b931&#45;1944a0b828b7&#45;&gt;a9fab970&#45;2057&#45;48ce&#45;95ee&#45;19964d639a38</title>
<path fill="none" stroke="black" d="M968.18,-289.12C977.53,-279.77 989.5,-267.79 999.81,-257.49"/>
<polygon fill="black" stroke="black" points="1002.36,-259.89 1006.96,-250.34 997.41,-254.94 1002.36,-259.89"/>
</g>
<!-- e04aa1a3&#45;509c&#45;45b2&#45;ac64&#45;53d69c961214&#45;&gt;cfd092c4&#45;1bb2&#45;43d3&#45;88b1&#45;9f647809e546 -->
<g id="edge14" class="edge">
<title>e04aa1a3&#45;509c&#45;45b2&#45;ac64&#45;53d69c961214&#45;&gt;cfd092c4&#45;1bb2&#45;43d3&#45;88b1&#45;9f647809e546</title>
<path fill="none" stroke="black" d="M536.03,-83.15C592.92,-70.71 726.12,-41.57 791.6,-27.25"/>
<polygon fill="black" stroke="black" points="792.48,-30.64 801.5,-25.08 790.99,-23.8 792.48,-30.64"/>
</g>
<!-- e04aa1a3&#45;509c&#45;45b2&#45;ac64&#45;53d69c961214&#45;&gt;8b69b8d4&#45;1612&#45;4dc5&#45;8412&#45;96b431fdd101 -->
<g id="edge15" class="edge">
<title>e04aa1a3&#45;509c&#45;45b2&#45;ac64&#45;53d69c961214&#45;&gt;8b69b8d4&#45;1612&#45;4dc5&#45;8412&#45;96b431fdd101</title>
<path fill="none" stroke="black" d="M496.65,-73.46C489.19,-64.31 479.62,-52.55 471.27,-42.31"/>
<polygon fill="black" stroke="black" points="473.94,-40.04 464.91,-34.49 468.51,-44.46 473.94,-40.04"/>
</g>
<!-- 1658782a&#45;d331&#45;464b&#45;9fd7&#45;1f8233b8b7f8 -->
<g id="node17" class="node">
<title>1658782a&#45;d331&#45;464b&#45;9fd7&#45;1f8233b8b7f8</title>
<g id="a_node17"><a xlink:href="org-protocol://roam-node?node=1658782a-d331-464b-9fd7-1f8233b8b7f8" xlink:title="Docker">
<ellipse fill="#eeeeee" stroke="#c9c9c9" stroke-width="2" cx="134.3" cy="-234" rx="36.29" ry="18"/>
<text text-anchor="middle" x="134.3" y="-230.3" font-family="Times,serif" font-size="14.00" fill="#111111">Docker</text>
</a>
</g>
</g>
<!-- 1658782a&#45;d331&#45;464b&#45;9fd7&#45;1f8233b8b7f8&#45;&gt;7dab097c&#45;60ba&#45;43b9&#45;949f&#45;c58bf3151aa8 -->
<g id="edge17" class="edge">
<title>1658782a&#45;d331&#45;464b&#45;9fd7&#45;1f8233b8b7f8&#45;&gt;7dab097c&#45;60ba&#45;43b9&#45;949f&#45;c58bf3151aa8</title>
<path fill="none" stroke="black" d="M119.77,-217.12C111.43,-207.99 100.79,-196.36 91.52,-186.22"/>
<polygon fill="black" stroke="black" points="94.09,-183.84 84.76,-178.82 88.93,-188.56 94.09,-183.84"/>
</g>
<!-- 1658782a&#45;d331&#45;464b&#45;9fd7&#45;1f8233b8b7f8&#45;&gt;e04aa1a3&#45;509c&#45;45b2&#45;ac64&#45;53d69c961214 -->
<g id="edge16" class="edge">
<title>1658782a&#45;d331&#45;464b&#45;9fd7&#45;1f8233b8b7f8&#45;&gt;e04aa1a3&#45;509c&#45;45b2&#45;ac64&#45;53d69c961214</title>
<path fill="none" stroke="black" d="M133.52,-215.77C133.61,-195.45 137.15,-162.17 157.3,-144 202.76,-103.01 388.65,-93.72 470.41,-91.62"/>
<polygon fill="black" stroke="black" points="470.85,-95.11 480.77,-91.37 470.69,-88.11 470.85,-95.11"/>
</g>
<!-- a0f58a2a&#45;e92d&#45;496e&#45;9c81&#45;dc5401ab314f -->
<g id="node18" class="node">
<title>a0f58a2a&#45;e92d&#45;496e&#45;9c81&#45;dc5401ab314f</title>
<g id="a_node18"><a xlink:href="org-protocol://roam-node?node=a0f58a2a-e92d-496e-9c81-dc5401ab314f" xlink:title="History">
<ellipse fill="#eeeeee" stroke="#c9c9c9" stroke-width="2" cx="498.3" cy="-378" rx="37.09" ry="18"/>
<text text-anchor="middle" x="498.3" y="-374.3" font-family="Times,serif" font-size="14.00" fill="#111111">History</text>
</a>
</g>
</g>
<!-- a0f58a2a&#45;e92d&#45;496e&#45;9c81&#45;dc5401ab314f&#45;&gt;f0cefeef&#45;6f99&#45;4ce2&#45;bff7&#45;db6e508f2c84 -->
<g id="edge20" class="edge">
<title>a0f58a2a&#45;e92d&#45;496e&#45;9c81&#45;dc5401ab314f&#45;&gt;f0cefeef&#45;6f99&#45;4ce2&#45;bff7&#45;db6e508f2c84</title>
<path fill="none" stroke="black" d="M507.3,-360.41C511.78,-352.16 517.29,-342.01 522.3,-332.78"/>
<polygon fill="black" stroke="black" points="525.4,-334.41 527.09,-323.96 519.24,-331.07 525.4,-334.41"/>
</g>
<!-- a0f58a2a&#45;e92d&#45;496e&#45;9c81&#45;dc5401ab314f&#45;&gt;1ad8c3d5&#45;97ba&#45;4905&#45;be11&#45;e6f2626127ad -->
<g id="edge18" class="edge">
<title>a0f58a2a&#45;e92d&#45;496e&#45;9c81&#45;dc5401ab314f&#45;&gt;1ad8c3d5&#45;97ba&#45;4905&#45;be11&#45;e6f2626127ad</title>
<path fill="none" stroke="black" d="M488.85,-360.32C479.79,-341.96 468.88,-311.9 479.3,-288 485.06,-274.77 495.93,-263.36 506.65,-254.55"/>
<polygon fill="black" stroke="black" points="508.94,-257.2 514.73,-248.33 504.67,-251.65 508.94,-257.2"/>
</g>
<!-- a0f58a2a&#45;e92d&#45;496e&#45;9c81&#45;dc5401ab314f&#45;&gt;8c81068f&#45;0e51&#45;4d6d&#45;bd1f&#45;392ce8cb3a21 -->
<g id="edge19" class="edge">
<title>a0f58a2a&#45;e92d&#45;496e&#45;9c81&#45;dc5401ab314f&#45;&gt;8c81068f&#45;0e51&#45;4d6d&#45;bd1f&#45;392ce8cb3a21</title>
<path fill="none" stroke="black" d="M462.3,-373.58C429.69,-368.47 382.94,-355.73 357.3,-324 326.39,-285.75 326.41,-225.12 329.59,-190.2"/>
<polygon fill="black" stroke="black" points="333.07,-190.56 330.65,-180.24 326.11,-189.82 333.07,-190.56"/>
</g>
<!-- a0f58a2a&#45;e92d&#45;496e&#45;9c81&#45;dc5401ab314f&#45;&gt;d694ecaa&#45;6a8b&#45;4669&#45;a95c&#45;f76de6dcbd2c -->
<g id="edge22" class="edge">
<title>a0f58a2a&#45;e92d&#45;496e&#45;9c81&#45;dc5401ab314f&#45;&gt;d694ecaa&#45;6a8b&#45;4669&#45;a95c&#45;f76de6dcbd2c</title>
<path fill="none" stroke="black" d="M524.42,-365.13C548.68,-354.1 585.13,-337.53 612.91,-324.9"/>
<polygon fill="black" stroke="black" points="614.69,-327.94 622.35,-320.61 611.79,-321.57 614.69,-327.94"/>
</g>
<!-- a0f58a2a&#45;e92d&#45;496e&#45;9c81&#45;dc5401ab314f&#45;&gt;d3394774&#45;aba5&#45;4167&#45;bd18&#45;f194eb2bd9ed -->
<g id="edge21" class="edge">
<title>a0f58a2a&#45;e92d&#45;496e&#45;9c81&#45;dc5401ab314f&#45;&gt;d3394774&#45;aba5&#45;4167&#45;bd18&#45;f194eb2bd9ed</title>
<path fill="none" stroke="black" d="M535.17,-375.87C619.15,-372.69 830.76,-361.34 1003.3,-324 1006.88,-323.22 1010.57,-322.29 1014.24,-321.25"/>
<polygon fill="black" stroke="black" points="1015.29,-324.59 1023.85,-318.34 1013.27,-317.89 1015.29,-324.59"/>
</g>
<!-- a0f58a2a&#45;e92d&#45;496e&#45;9c81&#45;dc5401ab314f&#45;&gt;7dab097c&#45;60ba&#45;43b9&#45;949f&#45;c58bf3151aa8 -->
<g id="edge26" class="edge">
<title>a0f58a2a&#45;e92d&#45;496e&#45;9c81&#45;dc5401ab314f&#45;&gt;7dab097c&#45;60ba&#45;43b9&#45;949f&#45;c58bf3151aa8</title>
<path fill="none" stroke="black" d="M461.05,-377.36C380.43,-375.98 189.05,-360.75 89.3,-252 74.07,-235.4 69.91,-209.68 69.21,-190.15"/>
<polygon fill="black" stroke="black" points="72.71,-190 69.13,-180.03 65.71,-190.06 72.71,-190"/>
</g>
<!-- a0f58a2a&#45;e92d&#45;496e&#45;9c81&#45;dc5401ab314f&#45;&gt;4bfa17d7&#45;18db&#45;47d5&#45;9f3c&#45;5f3bb3c3231f -->
<g id="edge23" class="edge">
<title>a0f58a2a&#45;e92d&#45;496e&#45;9c81&#45;dc5401ab314f&#45;&gt;4bfa17d7&#45;18db&#45;47d5&#45;9f3c&#45;5f3bb3c3231f</title>
<path fill="none" stroke="black" d="M478.26,-362.83C463.58,-352.45 443.46,-338.23 427.2,-326.73"/>
<polygon fill="black" stroke="black" points="428.81,-323.58 418.63,-320.67 424.77,-329.3 428.81,-323.58"/>
</g>
<!-- a0f58a2a&#45;e92d&#45;496e&#45;9c81&#45;dc5401ab314f&#45;&gt;e04aa1a3&#45;509c&#45;45b2&#45;ac64&#45;53d69c961214 -->
<g id="edge24" class="edge">
<title>a0f58a2a&#45;e92d&#45;496e&#45;9c81&#45;dc5401ab314f&#45;&gt;e04aa1a3&#45;509c&#45;45b2&#45;ac64&#45;53d69c961214</title>
<path fill="none" stroke="black" d="M461.66,-375.11C379.83,-370.36 184.97,-355.94 128.3,-324 47.22,-278.3 -40.86,-213.27 21.3,-144 51.17,-110.7 360.35,-96.37 470.55,-92.29"/>
<polygon fill="black" stroke="black" points="470.71,-95.79 480.57,-91.93 470.45,-88.8 470.71,-95.79"/>
</g>
<!-- a0f58a2a&#45;e92d&#45;496e&#45;9c81&#45;dc5401ab314f&#45;&gt;a6980e15&#45;ecee&#45;466e&#45;9ea7&#45;2c0210243c0d -->
<g id="edge25" class="edge">
<title>a0f58a2a&#45;e92d&#45;496e&#45;9c81&#45;dc5401ab314f&#45;&gt;a6980e15&#45;ecee&#45;466e&#45;9ea7&#45;2c0210243c0d</title>
<path fill="none" stroke="black" d="M534.77,-374.34C583.09,-369.62 669.95,-356.95 736.3,-324 801.45,-291.64 804.84,-264.24 859.3,-216 871.11,-205.53 884.52,-194.33 896,-184.93"/>
<polygon fill="black" stroke="black" points="898.43,-187.47 903.97,-178.44 894.01,-182.04 898.43,-187.47"/>
</g>
<!-- a0f58a2a&#45;e92d&#45;496e&#45;9c81&#45;dc5401ab314f&#45;&gt;afccf86d&#45;70b8&#45;44c0&#45;86a8&#45;cdac25f7dfd3 -->
<g id="edge27" class="edge">
<title>a0f58a2a&#45;e92d&#45;496e&#45;9c81&#45;dc5401ab314f&#45;&gt;afccf86d&#45;70b8&#45;44c0&#45;86a8&#45;cdac25f7dfd3</title>
<path fill="none" stroke="black" d="M535.57,-377.89C582.4,-376.97 662.53,-368.36 711.3,-324 748.93,-289.76 726.07,-261.28 749.3,-216 754.37,-206.11 761.05,-195.95 767.34,-187.2"/>
<polygon fill="black" stroke="black" points="770.28,-189.1 773.42,-178.98 764.66,-184.94 770.28,-189.1"/>
</g>
<!-- afccf86d&#45;70b8&#45;44c0&#45;86a8&#45;cdac25f7dfd3&#45;&gt;cfd092c4&#45;1bb2&#45;43d3&#45;88b1&#45;9f647809e546 -->
<g id="edge28" class="edge">
<title>afccf86d&#45;70b8&#45;44c0&#45;86a8&#45;cdac25f7dfd3&#45;&gt;cfd092c4&#45;1bb2&#45;43d3&#45;88b1&#45;9f647809e546</title>
<path fill="none" stroke="black" d="M791.4,-144.15C798.77,-119.81 812.47,-74.57 821.22,-45.67"/>
<polygon fill="black" stroke="black" points="824.65,-46.41 824.2,-35.82 817.95,-44.38 824.65,-46.41"/>
</g>
<!-- afccf86d&#45;70b8&#45;44c0&#45;86a8&#45;cdac25f7dfd3&#45;&gt;e04aa1a3&#45;509c&#45;45b2&#45;ac64&#45;53d69c961214 -->
<g id="edge29" class="edge">
<title>afccf86d&#45;70b8&#45;44c0&#45;86a8&#45;cdac25f7dfd3&#45;&gt;e04aa1a3&#45;509c&#45;45b2&#45;ac64&#45;53d69c961214</title>
<path fill="none" stroke="black" d="M760.6,-150.1C754.96,-147.91 748.97,-145.75 743.3,-144 675.03,-122.91 593.19,-106.29 546.62,-97.62"/>
<polygon fill="black" stroke="black" points="547.14,-94.15 536.68,-95.79 545.88,-101.04 547.14,-94.15"/>
</g>
<!-- 120300fc&#45;27c2&#45;428e&#45;9fbc&#45;49e14172f6df -->
<g id="node21" class="node">
<title>120300fc&#45;27c2&#45;428e&#45;9fbc&#45;49e14172f6df</title>
<g id="a_node21"><a xlink:href="org-protocol://roam-node?node=120300fc-27c2-428e-9fbc-49e14172f6df" xlink:title="Test">
<ellipse fill="#eeeeee" stroke="#c9c9c9" stroke-width="2" cx="785.3" cy="-234" rx="27" ry="18"/>
<text text-anchor="middle" x="785.3" y="-230.3" font-family="Times,serif" font-size="14.00" fill="#111111">Test</text>
</a>
</g>
</g>
<!-- 120300fc&#45;27c2&#45;428e&#45;9fbc&#45;49e14172f6df&#45;&gt;cfd092c4&#45;1bb2&#45;43d3&#45;88b1&#45;9f647809e546 -->
<g id="edge30" class="edge">
<title>120300fc&#45;27c2&#45;428e&#45;9fbc&#45;49e14172f6df&#45;&gt;cfd092c4&#45;1bb2&#45;43d3&#45;88b1&#45;9f647809e546</title>
<path fill="none" stroke="black" d="M801.6,-219.07C811.7,-209.3 823.77,-195.3 829.3,-180 845.41,-135.36 840.15,-79.1 834.78,-46.28"/>
<polygon fill="black" stroke="black" points="838.16,-45.34 832.98,-36.1 831.27,-46.56 838.16,-45.34"/>
</g>
<!-- 120300fc&#45;27c2&#45;428e&#45;9fbc&#45;49e14172f6df&#45;&gt;afccf86d&#45;70b8&#45;44c0&#45;86a8&#45;cdac25f7dfd3 -->
<g id="edge31" class="edge">
<title>120300fc&#45;27c2&#45;428e&#45;9fbc&#45;49e14172f6df&#45;&gt;afccf86d&#45;70b8&#45;44c0&#45;86a8&#45;cdac25f7dfd3</title>
<path fill="none" stroke="black" d="M785.54,-215.7C785.65,-207.98 785.79,-198.71 785.91,-190.11"/>
<polygon fill="black" stroke="black" points="789.41,-190.15 786.05,-180.1 782.41,-190.05 789.41,-190.15"/>
</g>
<!-- 847c8c7a&#45;d53c&#45;464c&#45;9172&#45;f5826be47454 -->
<g id="node23" class="node">
<title>847c8c7a&#45;d53c&#45;464c&#45;9172&#45;f5826be47454</title>
<g id="a_node23"><a xlink:href="org-protocol://roam-node?node=847c8c7a-d53c-464c-9172-f5826be47454" xlink:title="fish">
<ellipse fill="#eeeeee" stroke="#c9c9c9" stroke-width="2" cx="215.3" cy="-234" rx="27" ry="18"/>
<text text-anchor="middle" x="215.3" y="-230.3" font-family="Times,serif" font-size="14.00" fill="#111111">fish</text>
</a>
</g>
</g>
<!-- 847c8c7a&#45;d53c&#45;464c&#45;9172&#45;f5826be47454&#45;&gt;585d3b5e&#45;989d&#45;4363&#45;bcc3&#45;894402fcfcf9 -->
<g id="edge42" class="edge">
<title>847c8c7a&#45;d53c&#45;464c&#45;9172&#45;f5826be47454&#45;&gt;585d3b5e&#45;989d&#45;4363&#45;bcc3&#45;894402fcfcf9</title>
<path fill="none" stroke="black" d="M210.45,-216.05C208.19,-208.14 205.45,-198.54 202.92,-189.69"/>
<polygon fill="black" stroke="black" points="206.21,-188.44 200.09,-179.79 199.47,-190.37 206.21,-188.44"/>
</g>
<!-- ad1527ee&#45;63b3&#45;4a9b&#45;a553&#45;10899f57c234 -->
<g id="node24" class="node">
<title>ad1527ee&#45;63b3&#45;4a9b&#45;a553&#45;10899f57c234</title>
<g id="a_node24"><a xlink:href="org-protocol://roam-node?node=ad1527ee-63b3-4a9b-a553-10899f57c234" xlink:title="TypeScript">
<ellipse fill="#eeeeee" stroke="#c9c9c9" stroke-width="2" cx="918.3" cy="-234" rx="50.09" ry="18"/>
<text text-anchor="middle" x="918.3" y="-230.3" font-family="Times,serif" font-size="14.00" fill="#111111">TypeScript</text>
</a>
</g>
</g>
<!-- ad1527ee&#45;63b3&#45;4a9b&#45;a553&#45;10899f57c234&#45;&gt;a6980e15&#45;ecee&#45;466e&#45;9ea7&#45;2c0210243c0d -->
<g id="edge46" class="edge">
<title>ad1527ee&#45;63b3&#45;4a9b&#45;a553&#45;10899f57c234&#45;&gt;a6980e15&#45;ecee&#45;466e&#45;9ea7&#45;2c0210243c0d</title>
<path fill="none" stroke="black" d="M919.53,-215.7C920.08,-207.98 920.74,-198.71 921.36,-190.11"/>
<polygon fill="black" stroke="black" points="924.85,-190.33 922.07,-180.1 917.87,-189.83 924.85,-190.33"/>
</g>
<!-- d29202e8&#45;f21c&#45;41e0&#45;9ddf&#45;bad77a01de6a -->
<g id="node25" class="node">
<title>d29202e8&#45;f21c&#45;41e0&#45;9ddf&#45;bad77a01de6a</title>
<g id="a_node25"><a xlink:href="org-protocol://roam-node?node=d29202e8-f21c-41e0-9ddf-bad77a01de6a" xlink:title="OBS">
<ellipse fill="#eeeeee" stroke="#c9c9c9" stroke-width="2" cx="1174.3" cy="-378" rx="27.9" ry="18"/>
<text text-anchor="middle" x="1174.3" y="-374.3" font-family="Times,serif" font-size="14.00" fill="#111111">OBS</text>
</a>
</g>
</g>
<!-- b4f27aef&#45;22ec&#45;45c0&#45;be50&#45;810f3a0cf9bc -->
<g id="node26" class="node">
<title>b4f27aef&#45;22ec&#45;45c0&#45;be50&#45;810f3a0cf9bc</title>
<g id="a_node26"><a xlink:href="org-protocol://roam-node?node=b4f27aef-22ec-45c0-be50-810f3a0cf9bc" xlink:title="Money">
<ellipse fill="#eeeeee" stroke="#c9c9c9" stroke-width="2" cx="1256.3" cy="-378" rx="36.29" ry="18"/>
<text text-anchor="middle" x="1256.3" y="-374.3" font-family="Times,serif" font-size="14.00" fill="#111111">Money</text>
</a>
</g>
</g>
<!-- a6c9c9ad&#45;d9b1&#45;4e13&#45;8992&#45;75d8590e464c -->
<g id="node27" class="node">
<title>a6c9c9ad&#45;d9b1&#45;4e13&#45;8992&#45;75d8590e464c</title>
<g id="a_node27"><a xlink:href="org-protocol://roam-node?node=a6c9c9ad-d9b1-4e13-8992-75d8590e464c" xlink:title="Python">
<ellipse fill="#eeeeee" stroke="#c9c9c9" stroke-width="2" cx="1346.3" cy="-378" rx="36" ry="18"/>
<text text-anchor="middle" x="1346.3" y="-374.3" font-family="Times,serif" font-size="14.00" fill="#111111">Python</text>
</a>
</g>
</g>
<!-- 868ac56a&#45;2d42&#45;48d7&#45;ab7f&#45;7047c85a8f39 -->
<g id="node28" class="node">
<title>868ac56a&#45;2d42&#45;48d7&#45;ab7f&#45;7047c85a8f39</title>
<g id="a_node28"><a xlink:href="org-protocol://roam-node?node=868ac56a-2d42-48d7-ab7f-7047c85a8f39" xlink:title="Programing Language">
<ellipse fill="#eeeeee" stroke="#c9c9c9" stroke-width="2" cx="1489.3" cy="-378" rx="89.88" ry="18"/>
<text text-anchor="middle" x="1489.3" y="-374.3" font-family="Times,serif" font-size="14.00" fill="#111111">Programing Language</text>
</a>
</g>
</g>
</g>
</svg>
