<?xml version="1.0" encoding="UTF-8" standalone="no"?>
<!DOCTYPE svg PUBLIC "-//W3C//DTD SVG 1.1//EN"
 "http://www.w3.org/Graphics/SVG/1.1/DTD/svg11.dtd">
<!-- Generated by graphviz version 2.43.0 (0)
 -->
<!-- Title: org&#45;roam Pages: 1 -->
<svg width="1259pt" height="404pt"
 viewBox="0.00 0.00 1258.99 404.00" xmlns="http://www.w3.org/2000/svg" xmlns:xlink="http://www.w3.org/1999/xlink">
<g id="graph0" class="graph" transform="scale(1 1) rotate(0) translate(4 400)">
<title>org&#45;roam</title>
<polygon fill="white" stroke="transparent" points="-4,4 -4,-400 1254.99,-400 1254.99,4 -4,4"/>
<!-- f0cefeef&#45;6f99&#45;4ce2&#45;bff7&#45;db6e508f2c84 -->
<g id="node1" class="node">
<title>f0cefeef&#45;6f99&#45;4ce2&#45;bff7&#45;db6e508f2c84</title>
<g id="a_node1"><a xlink:href="org-protocol://roam-node?node=f0cefeef-6f99-4ce2-bff7-db6e508f2c84" xlink:title="create&#45;link">
<ellipse fill="#eeeeee" stroke="#c9c9c9" stroke-width="2" cx="548.3" cy="-306" rx="48.19" ry="18"/>
<text text-anchor="middle" x="548.3" y="-302.3" font-family="Times,serif" font-size="14.00" fill="#111111">create&#45;link</text>
</a>
</g>
</g>
<!-- a9fab970&#45;2057&#45;48ce&#45;95ee&#45;19964d639a38 -->
<g id="node2" class="node">
<title>a9fab970&#45;2057&#45;48ce&#45;95ee&#45;19964d639a38</title>
<g id="a_node2"><a xlink:href="org-protocol://roam-node?node=a9fab970-2057-48ce-95ee-19964d639a38" xlink:title="Project">
<ellipse fill="#eeeeee" stroke="#c9c9c9" stroke-width="2" cx="719.3" cy="-234" rx="36" ry="18"/>
<text text-anchor="middle" x="719.3" y="-230.3" font-family="Times,serif" font-size="14.00" fill="#111111">Project</text>
</a>
</g>
</g>
<!-- f0cefeef&#45;6f99&#45;4ce2&#45;bff7&#45;db6e508f2c84&#45;&gt;a9fab970&#45;2057&#45;48ce&#45;95ee&#45;19964d639a38 -->
<g id="edge1" class="edge">
<title>f0cefeef&#45;6f99&#45;4ce2&#45;bff7&#45;db6e508f2c84&#45;&gt;a9fab970&#45;2057&#45;48ce&#45;95ee&#45;19964d639a38</title>
<path fill="none" stroke="black" d="M579.66,-292.16C608.81,-280.23 652.21,-262.46 682.88,-249.91"/>
<polygon fill="black" stroke="black" points="684.42,-253.06 692.35,-246.03 681.77,-246.58 684.42,-253.06"/>
</g>
<!-- 1ad8c3d5&#45;97ba&#45;4905&#45;be11&#45;e6f2626127ad -->
<g id="node3" class="node">
<title>1ad8c3d5&#45;97ba&#45;4905&#45;be11&#45;e6f2626127ad</title>
<g id="a_node3"><a xlink:href="org-protocol://roam-node?node=1ad8c3d5-97ba-4905-be11-e6f2626127ad" xlink:title="Emacs">
<ellipse fill="#eeeeee" stroke="#c9c9c9" stroke-width="2" cx="548.3" cy="-234" rx="34.39" ry="18"/>
<text text-anchor="middle" x="548.3" y="-230.3" font-family="Times,serif" font-size="14.00" fill="#111111">Emacs</text>
</a>
</g>
</g>
<!-- f0cefeef&#45;6f99&#45;4ce2&#45;bff7&#45;db6e508f2c84&#45;&gt;1ad8c3d5&#45;97ba&#45;4905&#45;be11&#45;e6f2626127ad -->
<g id="edge2" class="edge">
<title>f0cefeef&#45;6f99&#45;4ce2&#45;bff7&#45;db6e508f2c84&#45;&gt;1ad8c3d5&#45;97ba&#45;4905&#45;be11&#45;e6f2626127ad</title>
<path fill="none" stroke="black" d="M542.42,-288.05C541.59,-280.23 541.35,-270.75 541.71,-261.98"/>
<polygon fill="black" stroke="black" points="545.21,-262.01 542.43,-251.79 538.23,-261.51 545.21,-262.01"/>
</g>
<!-- 70f249a8&#45;f8c8&#45;4a7e&#45;978c&#45;8ff04ffd09c0 -->
<g id="node6" class="node">
<title>70f249a8&#45;f8c8&#45;4a7e&#45;978c&#45;8ff04ffd09c0</title>
<g id="a_node6"><a xlink:href="org-protocol://roam-node?node=70f249a8-f8c8-4a7e-978c-8ff04ffd09c0" xlink:title="digger">
<ellipse fill="#eeeeee" stroke="#c9c9c9" stroke-width="2" cx="991.3" cy="-162" rx="33.29" ry="18"/>
<text text-anchor="middle" x="991.3" y="-158.3" font-family="Times,serif" font-size="14.00" fill="#111111">digger</text>
</a>
</g>
</g>
<!-- a9fab970&#45;2057&#45;48ce&#45;95ee&#45;19964d639a38&#45;&gt;70f249a8&#45;f8c8&#45;4a7e&#45;978c&#45;8ff04ffd09c0 -->
<g id="edge41" class="edge">
<title>a9fab970&#45;2057&#45;48ce&#45;95ee&#45;19964d639a38&#45;&gt;70f249a8&#45;f8c8&#45;4a7e&#45;978c&#45;8ff04ffd09c0</title>
<path fill="none" stroke="black" d="M752.49,-227.06C797.6,-218.61 880.52,-201.69 949.3,-180 951.73,-179.23 954.21,-178.39 956.7,-177.5"/>
<polygon fill="black" stroke="black" points="958.1,-180.71 966.21,-173.9 955.62,-174.17 958.1,-180.71"/>
</g>
<!-- 1ad8c3d5&#45;97ba&#45;4905&#45;be11&#45;e6f2626127ad&#45;&gt;f0cefeef&#45;6f99&#45;4ce2&#45;bff7&#45;db6e508f2c84 -->
<g id="edge34" class="edge">
<title>1ad8c3d5&#45;97ba&#45;4905&#45;be11&#45;e6f2626127ad&#45;&gt;f0cefeef&#45;6f99&#45;4ce2&#45;bff7&#45;db6e508f2c84</title>
<path fill="none" stroke="black" d="M554.16,-251.79C555,-259.59 555.24,-269.07 554.89,-277.85"/>
<polygon fill="black" stroke="black" points="551.39,-277.83 554.17,-288.05 558.37,-278.33 551.39,-277.83"/>
</g>
<!-- 8c81068f&#45;0e51&#45;4d6d&#45;bd1f&#45;392ce8cb3a21 -->
<g id="node4" class="node">
<title>8c81068f&#45;0e51&#45;4d6d&#45;bd1f&#45;392ce8cb3a21</title>
<g id="a_node4"><a xlink:href="org-protocol://roam-node?node=8c81068f-0e51-4d6d-bd1f-392ce8cb3a21" xlink:title="current&#45;word&#45;highlight">
<ellipse fill="#eeeeee" stroke="#c9c9c9" stroke-width="2" cx="415.3" cy="-162" rx="90.98" ry="18"/>
<text text-anchor="middle" x="415.3" y="-158.3" font-family="Times,serif" font-size="14.00" fill="#111111">current&#45;word&#45;highlight</text>
</a>
</g>
</g>
<!-- 1ad8c3d5&#45;97ba&#45;4905&#45;be11&#45;e6f2626127ad&#45;&gt;8c81068f&#45;0e51&#45;4d6d&#45;bd1f&#45;392ce8cb3a21 -->
<g id="edge33" class="edge">
<title>1ad8c3d5&#45;97ba&#45;4905&#45;be11&#45;e6f2626127ad&#45;&gt;8c81068f&#45;0e51&#45;4d6d&#45;bd1f&#45;392ce8cb3a21</title>
<path fill="none" stroke="black" d="M522.45,-222.06C501.59,-211.99 472.27,-196.77 449.5,-184.3"/>
<polygon fill="black" stroke="black" points="450.95,-181.1 440.5,-179.32 447.56,-187.23 450.95,-181.1"/>
</g>
<!-- c7e81fac&#45;9f8b&#45;4538&#45;9851&#45;21d4ff3c2b08 -->
<g id="node8" class="node">
<title>c7e81fac&#45;9f8b&#45;4538&#45;9851&#45;21d4ff3c2b08</title>
<g id="a_node8"><a xlink:href="org-protocol://roam-node?node=c7e81fac-9f8b-4538-9851-21d4ff3c2b08" xlink:title="Emacs Lisp">
<ellipse fill="#eeeeee" stroke="#c9c9c9" stroke-width="2" cx="763.3" cy="-162" rx="52.79" ry="18"/>
<text text-anchor="middle" x="763.3" y="-158.3" font-family="Times,serif" font-size="14.00" fill="#111111">Emacs Lisp</text>
</a>
</g>
</g>
<!-- 1ad8c3d5&#45;97ba&#45;4905&#45;be11&#45;e6f2626127ad&#45;&gt;c7e81fac&#45;9f8b&#45;4538&#45;9851&#45;21d4ff3c2b08 -->
<g id="edge30" class="edge">
<title>1ad8c3d5&#45;97ba&#45;4905&#45;be11&#45;e6f2626127ad&#45;&gt;c7e81fac&#45;9f8b&#45;4538&#45;9851&#45;21d4ff3c2b08</title>
<path fill="none" stroke="black" d="M575.5,-222.52C610.41,-210.45 671.28,-190.58 714.31,-177.15"/>
<polygon fill="black" stroke="black" points="715.5,-180.44 724.01,-174.13 713.43,-173.75 715.5,-180.44"/>
</g>
<!-- 815a2c31&#45;7ddb&#45;40ad&#45;bae0&#45;f84e1cfd8de1 -->
<g id="node9" class="node">
<title>815a2c31&#45;7ddb&#45;40ad&#45;bae0&#45;f84e1cfd8de1</title>
<g id="a_node9"><a xlink:href="org-protocol://roam-node?node=815a2c31-7ddb-40ad-bae0-f84e1cfd8de1" xlink:title="Org&#45;roam">
<ellipse fill="#eeeeee" stroke="#c9c9c9" stroke-width="2" cx="608.3" cy="-162" rx="46.29" ry="18"/>
<text text-anchor="middle" x="608.3" y="-158.3" font-family="Times,serif" font-size="14.00" fill="#111111">Org&#45;roam</text>
</a>
</g>
</g>
<!-- 1ad8c3d5&#45;97ba&#45;4905&#45;be11&#45;e6f2626127ad&#45;&gt;815a2c31&#45;7ddb&#45;40ad&#45;bae0&#45;f84e1cfd8de1 -->
<g id="edge32" class="edge">
<title>1ad8c3d5&#45;97ba&#45;4905&#45;be11&#45;e6f2626127ad&#45;&gt;815a2c31&#45;7ddb&#45;40ad&#45;bae0&#45;f84e1cfd8de1</title>
<path fill="none" stroke="black" d="M556.68,-216.41C563.52,-207.26 573.2,-195.76 582.4,-185.78"/>
<polygon fill="black" stroke="black" points="584.95,-188.18 589.28,-178.51 579.87,-183.37 584.95,-188.18"/>
</g>
<!-- 7dab097c&#45;60ba&#45;43b9&#45;949f&#45;c58bf3151aa8 -->
<g id="node12" class="node">
<title>7dab097c&#45;60ba&#45;43b9&#45;949f&#45;c58bf3151aa8</title>
<g id="a_node12"><a xlink:href="org-protocol://roam-node?node=7dab097c-60ba-43b9-949f-c58bf3151aa8" xlink:title="MySQL">
<ellipse fill="#eeeeee" stroke="#c9c9c9" stroke-width="2" cx="40.3" cy="-162" rx="40.09" ry="18"/>
<text text-anchor="middle" x="40.3" y="-158.3" font-family="Times,serif" font-size="14.00" fill="#111111">MySQL</text>
</a>
</g>
</g>
<!-- 1ad8c3d5&#45;97ba&#45;4905&#45;be11&#45;e6f2626127ad&#45;&gt;7dab097c&#45;60ba&#45;43b9&#45;949f&#45;c58bf3151aa8 -->
<g id="edge35" class="edge">
<title>1ad8c3d5&#45;97ba&#45;4905&#45;be11&#45;e6f2626127ad&#45;&gt;7dab097c&#45;60ba&#45;43b9&#45;949f&#45;c58bf3151aa8</title>
<path fill="none" stroke="black" d="M514.9,-229.57C443.53,-222.08 270.95,-203.05 127.3,-180 113.86,-177.84 99.32,-175.15 86.04,-172.54"/>
<polygon fill="black" stroke="black" points="86.67,-169.1 76.18,-170.58 85.3,-175.96 86.67,-169.1"/>
</g>
<!-- 8b69b8d4&#45;1612&#45;4dc5&#45;8412&#45;96b431fdd101 -->
<g id="node13" class="node">
<title>8b69b8d4&#45;1612&#45;4dc5&#45;8412&#45;96b431fdd101</title>
<g id="a_node13"><a xlink:href="org-protocol://roam-node?node=8b69b8d4-1612-4dc5-8412-96b431fdd101" xlink:title="SQL">
<ellipse fill="#eeeeee" stroke="#c9c9c9" stroke-width="2" cx="534.3" cy="-18" rx="27.1" ry="18"/>
<text text-anchor="middle" x="534.3" y="-14.3" font-family="Times,serif" font-size="14.00" fill="#111111">SQL</text>
</a>
</g>
</g>
<!-- 1ad8c3d5&#45;97ba&#45;4905&#45;be11&#45;e6f2626127ad&#45;&gt;8b69b8d4&#45;1612&#45;4dc5&#45;8412&#45;96b431fdd101 -->
<g id="edge36" class="edge">
<title>1ad8c3d5&#45;97ba&#45;4905&#45;be11&#45;e6f2626127ad&#45;&gt;8b69b8d4&#45;1612&#45;4dc5&#45;8412&#45;96b431fdd101</title>
<path fill="none" stroke="black" d="M547.17,-215.85C544.75,-178.83 539.02,-91.18 536.09,-46.39"/>
<polygon fill="black" stroke="black" points="539.57,-45.98 535.42,-36.23 532.58,-46.44 539.57,-45.98"/>
</g>
<!-- e04aa1a3&#45;509c&#45;45b2&#45;ac64&#45;53d69c961214 -->
<g id="node16" class="node">
<title>e04aa1a3&#45;509c&#45;45b2&#45;ac64&#45;53d69c961214</title>
<g id="a_node16"><a xlink:href="org-protocol://roam-node?node=e04aa1a3-509c-45b2-ac64-53d69c961214" xlink:title="Rails">
<ellipse fill="#eeeeee" stroke="#c9c9c9" stroke-width="2" cx="763.3" cy="-90" rx="28.7" ry="18"/>
<text text-anchor="middle" x="763.3" y="-86.3" font-family="Times,serif" font-size="14.00" fill="#111111">Rails</text>
</a>
</g>
</g>
<!-- 1ad8c3d5&#45;97ba&#45;4905&#45;be11&#45;e6f2626127ad&#45;&gt;e04aa1a3&#45;509c&#45;45b2&#45;ac64&#45;53d69c961214 -->
<g id="edge37" class="edge">
<title>1ad8c3d5&#45;97ba&#45;4905&#45;be11&#45;e6f2626127ad&#45;&gt;e04aa1a3&#45;509c&#45;45b2&#45;ac64&#45;53d69c961214</title>
<path fill="none" stroke="black" d="M576.11,-223.14C600.27,-213.9 635.63,-198.73 663.3,-180 682.56,-166.96 684,-159.56 701.3,-144 713.49,-133.02 727.35,-121.12 738.87,-111.39"/>
<polygon fill="black" stroke="black" points="741.39,-113.84 746.78,-104.72 736.88,-108.49 741.39,-113.84"/>
</g>
<!-- a6980e15&#45;ecee&#45;466e&#45;9ea7&#45;2c0210243c0d -->
<g id="node19" class="node">
<title>a6980e15&#45;ecee&#45;466e&#45;9ea7&#45;2c0210243c0d</title>
<g id="a_node19"><a xlink:href="org-protocol://roam-node?node=a6980e15-ecee-466e-9ea7-2c0210243c0d" xlink:title="JavaScript">
<ellipse fill="#eeeeee" stroke="#c9c9c9" stroke-width="2" cx="259.3" cy="-162" rx="47.39" ry="18"/>
<text text-anchor="middle" x="259.3" y="-158.3" font-family="Times,serif" font-size="14.00" fill="#111111">JavaScript</text>
</a>
</g>
</g>
<!-- 1ad8c3d5&#45;97ba&#45;4905&#45;be11&#45;e6f2626127ad&#45;&gt;a6980e15&#45;ecee&#45;466e&#45;9ea7&#45;2c0210243c0d -->
<g id="edge39" class="edge">
<title>1ad8c3d5&#45;97ba&#45;4905&#45;be11&#45;e6f2626127ad&#45;&gt;a6980e15&#45;ecee&#45;466e&#45;9ea7&#45;2c0210243c0d</title>
<path fill="none" stroke="black" d="M516.84,-226.59C471.91,-217.26 386.87,-198.98 315.3,-180 311.75,-179.06 308.09,-178.05 304.41,-177"/>
<polygon fill="black" stroke="black" points="305.32,-173.62 294.74,-174.17 303.36,-180.34 305.32,-173.62"/>
</g>
<!-- afccf86d&#45;70b8&#45;44c0&#45;86a8&#45;cdac25f7dfd3 -->
<g id="node20" class="node">
<title>afccf86d&#45;70b8&#45;44c0&#45;86a8&#45;cdac25f7dfd3</title>
<g id="a_node20"><a xlink:href="org-protocol://roam-node?node=afccf86d-70b8-44c0-86a8-cdac25f7dfd3" xlink:title="RSpec">
<ellipse fill="#eeeeee" stroke="#c9c9c9" stroke-width="2" cx="906.3" cy="-162" rx="33.6" ry="18"/>
<text text-anchor="middle" x="906.3" y="-158.3" font-family="Times,serif" font-size="14.00" fill="#111111">RSpec</text>
</a>
</g>
</g>
<!-- 1ad8c3d5&#45;97ba&#45;4905&#45;be11&#45;e6f2626127ad&#45;&gt;afccf86d&#45;70b8&#45;44c0&#45;86a8&#45;cdac25f7dfd3 -->
<g id="edge38" class="edge">
<title>1ad8c3d5&#45;97ba&#45;4905&#45;be11&#45;e6f2626127ad&#45;&gt;afccf86d&#45;70b8&#45;44c0&#45;86a8&#45;cdac25f7dfd3</title>
<path fill="none" stroke="black" d="M580.32,-227.06C631.94,-217.45 736.72,-197.77 825.3,-180 838.41,-177.37 852.7,-174.4 865.58,-171.69"/>
<polygon fill="black" stroke="black" points="866.49,-175.08 875.55,-169.59 865.04,-168.23 866.49,-175.08"/>
</g>
<!-- 585d3b5e&#45;989d&#45;4363&#45;bcc3&#45;894402fcfcf9 -->
<g id="node21" class="node">
<title>585d3b5e&#45;989d&#45;4363&#45;bcc3&#45;894402fcfcf9</title>
<g id="a_node21"><a xlink:href="org-protocol://roam-node?node=585d3b5e-989d-4363-bcc3-894402fcfcf9" xlink:title="Shell">
<ellipse fill="#eeeeee" stroke="#c9c9c9" stroke-width="2" cx="165.3" cy="-162" rx="28.7" ry="18"/>
<text text-anchor="middle" x="165.3" y="-158.3" font-family="Times,serif" font-size="14.00" fill="#111111">Shell</text>
</a>
</g>
</g>
<!-- 1ad8c3d5&#45;97ba&#45;4905&#45;be11&#45;e6f2626127ad&#45;&gt;585d3b5e&#45;989d&#45;4363&#45;bcc3&#45;894402fcfcf9 -->
<g id="edge31" class="edge">
<title>1ad8c3d5&#45;97ba&#45;4905&#45;be11&#45;e6f2626127ad&#45;&gt;585d3b5e&#45;989d&#45;4363&#45;bcc3&#45;894402fcfcf9</title>
<path fill="none" stroke="black" d="M514.34,-230.81C451.72,-226.12 314.32,-212.71 203.3,-180 201.02,-179.33 198.69,-178.55 196.38,-177.7"/>
<polygon fill="black" stroke="black" points="197.6,-174.42 187.02,-173.92 194.98,-180.91 197.6,-174.42"/>
</g>
<!-- 8c81068f&#45;0e51&#45;4d6d&#45;bd1f&#45;392ce8cb3a21&#45;&gt;1ad8c3d5&#45;97ba&#45;4905&#45;be11&#45;e6f2626127ad -->
<g id="edge3" class="edge">
<title>8c81068f&#45;0e51&#45;4d6d&#45;bd1f&#45;392ce8cb3a21&#45;&gt;1ad8c3d5&#45;97ba&#45;4905&#45;be11&#45;e6f2626127ad</title>
<path fill="none" stroke="black" d="M450.88,-178.71C472.23,-189.29 498.96,-203.31 519.08,-214.44"/>
<polygon fill="black" stroke="black" points="517.38,-217.51 527.82,-219.34 520.8,-211.4 517.38,-217.51"/>
</g>
<!-- d694ecaa&#45;6a8b&#45;4669&#45;a95c&#45;f76de6dcbd2c -->
<g id="node5" class="node">
<title>d694ecaa&#45;6a8b&#45;4669&#45;a95c&#45;f76de6dcbd2c</title>
<g id="a_node5"><a xlink:href="org-protocol://roam-node?node=d694ecaa-6a8b-4669-a95c-f76de6dcbd2c" xlink:title="GNU Guix">
<ellipse fill="#eeeeee" stroke="#c9c9c9" stroke-width="2" cx="664.3" cy="-306" rx="50.09" ry="18"/>
<text text-anchor="middle" x="664.3" y="-302.3" font-family="Times,serif" font-size="14.00" fill="#111111">GNU Guix</text>
</a>
</g>
</g>
<!-- d694ecaa&#45;6a8b&#45;4669&#45;a95c&#45;f76de6dcbd2c&#45;&gt;a9fab970&#45;2057&#45;48ce&#45;95ee&#45;19964d639a38 -->
<g id="edge4" class="edge">
<title>d694ecaa&#45;6a8b&#45;4669&#45;a95c&#45;f76de6dcbd2c&#45;&gt;a9fab970&#45;2057&#45;48ce&#45;95ee&#45;19964d639a38</title>
<path fill="none" stroke="black" d="M677.33,-288.41C684.21,-279.66 692.78,-268.75 700.37,-259.08"/>
<polygon fill="black" stroke="black" points="703.31,-261.01 706.73,-250.99 697.8,-256.69 703.31,-261.01"/>
</g>
<!-- d694ecaa&#45;6a8b&#45;4669&#45;a95c&#45;f76de6dcbd2c&#45;&gt;1ad8c3d5&#45;97ba&#45;4905&#45;be11&#45;e6f2626127ad -->
<g id="edge5" class="edge">
<title>d694ecaa&#45;6a8b&#45;4669&#45;a95c&#45;f76de6dcbd2c&#45;&gt;1ad8c3d5&#45;97ba&#45;4905&#45;be11&#45;e6f2626127ad</title>
<path fill="none" stroke="black" d="M639.7,-290.15C621.9,-279.41 597.73,-264.83 578.72,-253.36"/>
<polygon fill="black" stroke="black" points="580.49,-250.34 570.12,-248.17 576.88,-256.33 580.49,-250.34"/>
</g>
<!-- cfd092c4&#45;1bb2&#45;43d3&#45;88b1&#45;9f647809e546 -->
<g id="node7" class="node">
<title>cfd092c4&#45;1bb2&#45;43d3&#45;88b1&#45;9f647809e546</title>
<g id="a_node7"><a xlink:href="org-protocol://roam-node?node=cfd092c4-1bb2-43d3-88b1-9f647809e546" xlink:title="Ruby">
<ellipse fill="#eeeeee" stroke="#c9c9c9" stroke-width="2" cx="949.3" cy="-18" rx="29.8" ry="18"/>
<text text-anchor="middle" x="949.3" y="-14.3" font-family="Times,serif" font-size="14.00" fill="#111111">Ruby</text>
</a>
</g>
</g>
<!-- 70f249a8&#45;f8c8&#45;4a7e&#45;978c&#45;8ff04ffd09c0&#45;&gt;cfd092c4&#45;1bb2&#45;43d3&#45;88b1&#45;9f647809e546 -->
<g id="edge6" class="edge">
<title>70f249a8&#45;f8c8&#45;4a7e&#45;978c&#45;8ff04ffd09c0&#45;&gt;cfd092c4&#45;1bb2&#45;43d3&#45;88b1&#45;9f647809e546</title>
<path fill="none" stroke="black" d="M986.31,-144.15C979.11,-119.81 965.73,-74.57 957.18,-45.67"/>
<polygon fill="black" stroke="black" points="960.47,-44.42 954.27,-35.82 953.75,-46.41 960.47,-44.42"/>
</g>
<!-- c7e81fac&#45;9f8b&#45;4538&#45;9851&#45;21d4ff3c2b08&#45;&gt;1ad8c3d5&#45;97ba&#45;4905&#45;be11&#45;e6f2626127ad -->
<g id="edge7" class="edge">
<title>c7e81fac&#45;9f8b&#45;4538&#45;9851&#45;21d4ff3c2b08&#45;&gt;1ad8c3d5&#45;97ba&#45;4905&#45;be11&#45;e6f2626127ad</title>
<path fill="none" stroke="black" d="M729.34,-175.8C690.9,-188.95 628.58,-209.21 587.94,-221.76"/>
<polygon fill="black" stroke="black" points="586.89,-218.42 578.36,-224.7 588.95,-225.11 586.89,-218.42"/>
</g>
<!-- 815a2c31&#45;7ddb&#45;40ad&#45;bae0&#45;f84e1cfd8de1&#45;&gt;1ad8c3d5&#45;97ba&#45;4905&#45;be11&#45;e6f2626127ad -->
<g id="edge8" class="edge">
<title>815a2c31&#45;7ddb&#45;40ad&#45;bae0&#45;f84e1cfd8de1&#45;&gt;1ad8c3d5&#45;97ba&#45;4905&#45;be11&#45;e6f2626127ad</title>
<path fill="none" stroke="black" d="M599.84,-179.7C592.78,-189.11 582.76,-200.99 573.34,-211.14"/>
<polygon fill="black" stroke="black" points="570.69,-208.85 566.32,-218.5 575.76,-213.68 570.69,-208.85"/>
</g>
<!-- 02b46258&#45;7650&#45;4a02&#45;9f0e&#45;c422555b29d0 -->
<g id="node10" class="node">
<title>02b46258&#45;7650&#45;4a02&#45;9f0e&#45;c422555b29d0</title>
<g id="a_node10"><a xlink:href="org-protocol://roam-node?node=02b46258-7650-4a02-9f0e-c422555b29d0" xlink:title="Archive">
<ellipse fill="#eeeeee" stroke="#c9c9c9" stroke-width="2" cx="761.3" cy="-378" rx="38.99" ry="18"/>
<text text-anchor="middle" x="761.3" y="-374.3" font-family="Times,serif" font-size="14.00" fill="#111111">Archive</text>
</a>
</g>
</g>
<!-- 02b46258&#45;7650&#45;4a02&#45;9f0e&#45;c422555b29d0&#45;&gt;70f249a8&#45;f8c8&#45;4a7e&#45;978c&#45;8ff04ffd09c0 -->
<g id="edge10" class="edge">
<title>02b46258&#45;7650&#45;4a02&#45;9f0e&#45;c422555b29d0&#45;&gt;70f249a8&#45;f8c8&#45;4a7e&#45;978c&#45;8ff04ffd09c0</title>
<path fill="none" stroke="black" d="M790.81,-366.09C827.66,-352.36 887.01,-329.86 896.3,-324 935.92,-298.99 950.45,-292.91 973.3,-252 983.9,-233.02 988.3,-208.65 990.11,-190.22"/>
<polygon fill="black" stroke="black" points="993.6,-190.38 990.9,-180.13 986.63,-189.83 993.6,-190.38"/>
</g>
<!-- d3394774&#45;aba5&#45;4167&#45;bd18&#45;f194eb2bd9ed -->
<g id="node11" class="node">
<title>d3394774&#45;aba5&#45;4167&#45;bd18&#45;f194eb2bd9ed</title>
<g id="a_node11"><a xlink:href="org-protocol://roam-node?node=d3394774-aba5-4167-bd18-f194eb2bd9ed" xlink:title="TextLint">
<ellipse fill="#eeeeee" stroke="#c9c9c9" stroke-width="2" cx="402.3" cy="-306" rx="41.69" ry="18"/>
<text text-anchor="middle" x="402.3" y="-302.3" font-family="Times,serif" font-size="14.00" fill="#111111">TextLint</text>
</a>
</g>
</g>
<!-- 02b46258&#45;7650&#45;4a02&#45;9f0e&#45;c422555b29d0&#45;&gt;d3394774&#45;aba5&#45;4167&#45;bd18&#45;f194eb2bd9ed -->
<g id="edge9" class="edge">
<title>02b46258&#45;7650&#45;4a02&#45;9f0e&#45;c422555b29d0&#45;&gt;d3394774&#45;aba5&#45;4167&#45;bd18&#45;f194eb2bd9ed</title>
<path fill="none" stroke="black" d="M725.89,-370.1C660.76,-357.4 521.97,-330.33 449.13,-316.13"/>
<polygon fill="black" stroke="black" points="449.79,-312.7 439.31,-314.22 448.45,-319.57 449.79,-312.7"/>
</g>
<!-- d3394774&#45;aba5&#45;4167&#45;bd18&#45;f194eb2bd9ed&#45;&gt;1ad8c3d5&#45;97ba&#45;4905&#45;be11&#45;e6f2626127ad -->
<g id="edge43" class="edge">
<title>d3394774&#45;aba5&#45;4167&#45;bd18&#45;f194eb2bd9ed&#45;&gt;1ad8c3d5&#45;97ba&#45;4905&#45;be11&#45;e6f2626127ad</title>
<path fill="none" stroke="black" d="M429.08,-292.16C453.12,-280.63 488.54,-263.65 514.52,-251.19"/>
<polygon fill="black" stroke="black" points="516.13,-254.3 523.63,-246.83 513.1,-247.99 516.13,-254.3"/>
</g>
<!-- d3394774&#45;aba5&#45;4167&#45;bd18&#45;f194eb2bd9ed&#45;&gt;a6980e15&#45;ecee&#45;466e&#45;9ea7&#45;2c0210243c0d -->
<g id="edge42" class="edge">
<title>d3394774&#45;aba5&#45;4167&#45;bd18&#45;f194eb2bd9ed&#45;&gt;a6980e15&#45;ecee&#45;466e&#45;9ea7&#45;2c0210243c0d</title>
<path fill="none" stroke="black" d="M394.34,-288C384.75,-268.81 367.15,-237.48 345.3,-216 331.29,-202.23 313.07,-190.36 297.01,-181.37"/>
<polygon fill="black" stroke="black" points="298.32,-178.1 287.86,-176.41 294.98,-184.25 298.32,-178.1"/>
</g>
<!-- 7dab097c&#45;60ba&#45;43b9&#45;949f&#45;c58bf3151aa8&#45;&gt;8b69b8d4&#45;1612&#45;4dc5&#45;8412&#45;96b431fdd101 -->
<g id="edge11" class="edge">
<title>7dab097c&#45;60ba&#45;43b9&#45;949f&#45;c58bf3151aa8&#45;&gt;8b69b8d4&#45;1612&#45;4dc5&#45;8412&#45;96b431fdd101</title>
<path fill="none" stroke="black" d="M72.23,-150.78C79.47,-148.51 87.14,-146.14 94.3,-144 244.7,-98.97 425.21,-48.94 499.63,-28.49"/>
<polygon fill="black" stroke="black" points="500.7,-31.83 509.42,-25.8 498.85,-25.08 500.7,-31.83"/>
</g>
<!-- 4bfa17d7&#45;18db&#45;47d5&#45;9f3c&#45;5f3bb3c3231f -->
<g id="node14" class="node">
<title>4bfa17d7&#45;18db&#45;47d5&#45;9f3c&#45;5f3bb3c3231f</title>
<g id="a_node14"><a xlink:href="org-protocol://roam-node?node=4bfa17d7-18db-47d5-9f3c-5f3bb3c3231f" xlink:title="ej&#45;dict">
<ellipse fill="#eeeeee" stroke="#c9c9c9" stroke-width="2" cx="309.3" cy="-306" rx="33.29" ry="18"/>
<text text-anchor="middle" x="309.3" y="-302.3" font-family="Times,serif" font-size="14.00" fill="#111111">ej&#45;dict</text>
</a>
</g>
</g>
<!-- 4bfa17d7&#45;18db&#45;47d5&#45;9f3c&#45;5f3bb3c3231f&#45;&gt;1ad8c3d5&#45;97ba&#45;4905&#45;be11&#45;e6f2626127ad -->
<g id="edge12" class="edge">
<title>4bfa17d7&#45;18db&#45;47d5&#45;9f3c&#45;5f3bb3c3231f&#45;&gt;1ad8c3d5&#45;97ba&#45;4905&#45;be11&#45;e6f2626127ad</title>
<path fill="none" stroke="black" d="M334.43,-294.25C339.94,-292.05 345.78,-289.85 351.3,-288 404.43,-270.17 467.14,-254.14 507.29,-244.49"/>
<polygon fill="black" stroke="black" points="508.32,-247.84 517.24,-242.12 506.7,-241.03 508.32,-247.84"/>
</g>
<!-- a23ceb84&#45;e89a&#45;4905&#45;b931&#45;1944a0b828b7 -->
<g id="node15" class="node">
<title>a23ceb84&#45;e89a&#45;4905&#45;b931&#45;1944a0b828b7</title>
<g id="a_node15"><a xlink:href="org-protocol://roam-node?node=a23ceb84-e89a-4905-b931-1944a0b828b7" xlink:title="Learning">
<ellipse fill="#eeeeee" stroke="#c9c9c9" stroke-width="2" cx="774.3" cy="-306" rx="42.49" ry="18"/>
<text text-anchor="middle" x="774.3" y="-302.3" font-family="Times,serif" font-size="14.00" fill="#111111">Learning</text>
</a>
</g>
</g>
<!-- a23ceb84&#45;e89a&#45;4905&#45;b931&#45;1944a0b828b7&#45;&gt;a9fab970&#45;2057&#45;48ce&#45;95ee&#45;19964d639a38 -->
<g id="edge13" class="edge">
<title>a23ceb84&#45;e89a&#45;4905&#45;b931&#45;1944a0b828b7&#45;&gt;a9fab970&#45;2057&#45;48ce&#45;95ee&#45;19964d639a38</title>
<path fill="none" stroke="black" d="M761.54,-288.76C754.6,-279.93 745.88,-268.83 738.16,-259.01"/>
<polygon fill="black" stroke="black" points="740.91,-256.85 731.98,-251.15 735.41,-261.17 740.91,-256.85"/>
</g>
<!-- e04aa1a3&#45;509c&#45;45b2&#45;ac64&#45;53d69c961214&#45;&gt;cfd092c4&#45;1bb2&#45;43d3&#45;88b1&#45;9f647809e546 -->
<g id="edge14" class="edge">
<title>e04aa1a3&#45;509c&#45;45b2&#45;ac64&#45;53d69c961214&#45;&gt;cfd092c4&#45;1bb2&#45;43d3&#45;88b1&#45;9f647809e546</title>
<path fill="none" stroke="black" d="M787.23,-79.99C819.75,-67.76 878.06,-45.81 915.16,-31.85"/>
<polygon fill="black" stroke="black" points="916.44,-35.11 924.56,-28.31 913.97,-28.55 916.44,-35.11"/>
</g>
<!-- e04aa1a3&#45;509c&#45;45b2&#45;ac64&#45;53d69c961214&#45;&gt;8b69b8d4&#45;1612&#45;4dc5&#45;8412&#45;96b431fdd101 -->
<g id="edge15" class="edge">
<title>e04aa1a3&#45;509c&#45;45b2&#45;ac64&#45;53d69c961214&#45;&gt;8b69b8d4&#45;1612&#45;4dc5&#45;8412&#45;96b431fdd101</title>
<path fill="none" stroke="black" d="M737.91,-81.24C696.58,-68.61 614.69,-43.58 568.35,-29.41"/>
<polygon fill="black" stroke="black" points="569.34,-26.05 558.75,-26.48 567.29,-32.75 569.34,-26.05"/>
</g>
<!-- 1658782a&#45;d331&#45;464b&#45;9fd7&#45;1f8233b8b7f8 -->
<g id="node17" class="node">
<title>1658782a&#45;d331&#45;464b&#45;9fd7&#45;1f8233b8b7f8</title>
<g id="a_node17"><a xlink:href="org-protocol://roam-node?node=1658782a-d331-464b-9fd7-1f8233b8b7f8" xlink:title="Docker">
<ellipse fill="#eeeeee" stroke="#c9c9c9" stroke-width="2" cx="72.3" cy="-234" rx="36.29" ry="18"/>
<text text-anchor="middle" x="72.3" y="-230.3" font-family="Times,serif" font-size="14.00" fill="#111111">Docker</text>
</a>
</g>
</g>
<!-- 1658782a&#45;d331&#45;464b&#45;9fd7&#45;1f8233b8b7f8&#45;&gt;7dab097c&#45;60ba&#45;43b9&#45;949f&#45;c58bf3151aa8 -->
<g id="edge17" class="edge">
<title>1658782a&#45;d331&#45;464b&#45;9fd7&#45;1f8233b8b7f8&#45;&gt;7dab097c&#45;60ba&#45;43b9&#45;949f&#45;c58bf3151aa8</title>
<path fill="none" stroke="black" d="M64.55,-216.05C60.86,-207.97 56.35,-198.12 52.23,-189.11"/>
<polygon fill="black" stroke="black" points="55.31,-187.43 47.97,-179.79 48.95,-190.34 55.31,-187.43"/>
</g>
<!-- 1658782a&#45;d331&#45;464b&#45;9fd7&#45;1f8233b8b7f8&#45;&gt;e04aa1a3&#45;509c&#45;45b2&#45;ac64&#45;53d69c961214 -->
<g id="edge16" class="edge">
<title>1658782a&#45;d331&#45;464b&#45;9fd7&#45;1f8233b8b7f8&#45;&gt;e04aa1a3&#45;509c&#45;45b2&#45;ac64&#45;53d69c961214</title>
<path fill="none" stroke="black" d="M77.57,-215.82C84.99,-194.9 100.67,-160.33 127.3,-144 178.17,-112.8 593.86,-96.58 724.3,-92.22"/>
<polygon fill="black" stroke="black" points="724.73,-95.71 734.61,-91.88 724.5,-88.71 724.73,-95.71"/>
</g>
<!-- a0f58a2a&#45;e92d&#45;496e&#45;9c81&#45;dc5401ab314f -->
<g id="node18" class="node">
<title>a0f58a2a&#45;e92d&#45;496e&#45;9c81&#45;dc5401ab314f</title>
<g id="a_node18"><a xlink:href="org-protocol://roam-node?node=a0f58a2a-e92d-496e-9c81-dc5401ab314f" xlink:title="History">
<ellipse fill="#eeeeee" stroke="#c9c9c9" stroke-width="2" cx="437.3" cy="-378" rx="37.09" ry="18"/>
<text text-anchor="middle" x="437.3" y="-374.3" font-family="Times,serif" font-size="14.00" fill="#111111">History</text>
</a>
</g>
</g>
<!-- a0f58a2a&#45;e92d&#45;496e&#45;9c81&#45;dc5401ab314f&#45;&gt;f0cefeef&#45;6f99&#45;4ce2&#45;bff7&#45;db6e508f2c84 -->
<g id="edge20" class="edge">
<title>a0f58a2a&#45;e92d&#45;496e&#45;9c81&#45;dc5401ab314f&#45;&gt;f0cefeef&#45;6f99&#45;4ce2&#45;bff7&#45;db6e508f2c84</title>
<path fill="none" stroke="black" d="M458.96,-363.34C475.23,-353.08 497.76,-338.87 516.13,-327.28"/>
<polygon fill="black" stroke="black" points="518.18,-330.13 524.77,-321.84 514.44,-324.21 518.18,-330.13"/>
</g>
<!-- a0f58a2a&#45;e92d&#45;496e&#45;9c81&#45;dc5401ab314f&#45;&gt;1ad8c3d5&#45;97ba&#45;4905&#45;be11&#45;e6f2626127ad -->
<g id="edge18" class="edge">
<title>a0f58a2a&#45;e92d&#45;496e&#45;9c81&#45;dc5401ab314f&#45;&gt;1ad8c3d5&#45;97ba&#45;4905&#45;be11&#45;e6f2626127ad</title>
<path fill="none" stroke="black" d="M445.6,-360.36C455.27,-341.78 472.35,-311.26 491.3,-288 500.61,-276.56 512.35,-265.24 522.75,-256.02"/>
<polygon fill="black" stroke="black" points="525.11,-258.6 530.38,-249.41 520.53,-253.31 525.11,-258.6"/>
</g>
<!-- a0f58a2a&#45;e92d&#45;496e&#45;9c81&#45;dc5401ab314f&#45;&gt;8c81068f&#45;0e51&#45;4d6d&#45;bd1f&#45;392ce8cb3a21 -->
<g id="edge19" class="edge">
<title>a0f58a2a&#45;e92d&#45;496e&#45;9c81&#45;dc5401ab314f&#45;&gt;8c81068f&#45;0e51&#45;4d6d&#45;bd1f&#45;392ce8cb3a21</title>
<path fill="none" stroke="black" d="M399.95,-377.26C359.78,-375.29 297.62,-365.21 267.3,-324 257.81,-311.11 258.67,-301.48 267.3,-288 287.87,-255.84 315.33,-275.66 345.3,-252 367.67,-234.33 387.16,-208.12 399.85,-188.71"/>
<polygon fill="black" stroke="black" points="402.94,-190.38 405.36,-180.06 397.03,-186.62 402.94,-190.38"/>
</g>
<!-- a0f58a2a&#45;e92d&#45;496e&#45;9c81&#45;dc5401ab314f&#45;&gt;d694ecaa&#45;6a8b&#45;4669&#45;a95c&#45;f76de6dcbd2c -->
<g id="edge22" class="edge">
<title>a0f58a2a&#45;e92d&#45;496e&#45;9c81&#45;dc5401ab314f&#45;&gt;d694ecaa&#45;6a8b&#45;4669&#45;a95c&#45;f76de6dcbd2c</title>
<path fill="none" stroke="black" d="M467.91,-367.56C506.39,-355.69 572.81,-335.21 617.63,-321.39"/>
<polygon fill="black" stroke="black" points="618.89,-324.67 627.41,-318.37 616.82,-317.98 618.89,-324.67"/>
</g>
<!-- a0f58a2a&#45;e92d&#45;496e&#45;9c81&#45;dc5401ab314f&#45;&gt;d3394774&#45;aba5&#45;4167&#45;bd18&#45;f194eb2bd9ed -->
<g id="edge21" class="edge">
<title>a0f58a2a&#45;e92d&#45;496e&#45;9c81&#45;dc5401ab314f&#45;&gt;d3394774&#45;aba5&#45;4167&#45;bd18&#45;f194eb2bd9ed</title>
<path fill="none" stroke="black" d="M429,-360.41C424.92,-352.25 419.91,-342.22 415.33,-333.07"/>
<polygon fill="black" stroke="black" points="418.38,-331.34 410.77,-323.96 412.12,-334.47 418.38,-331.34"/>
</g>
<!-- a0f58a2a&#45;e92d&#45;496e&#45;9c81&#45;dc5401ab314f&#45;&gt;7dab097c&#45;60ba&#45;43b9&#45;949f&#45;c58bf3151aa8 -->
<g id="edge26" class="edge">
<title>a0f58a2a&#45;e92d&#45;496e&#45;9c81&#45;dc5401ab314f&#45;&gt;7dab097c&#45;60ba&#45;43b9&#45;949f&#45;c58bf3151aa8</title>
<path fill="none" stroke="black" d="M402.18,-371.85C311.1,-357.68 71.32,-314.97 27.3,-252 14.5,-233.69 20.06,-208.05 27.46,-188.99"/>
<polygon fill="black" stroke="black" points="30.72,-190.27 31.42,-179.7 24.28,-187.53 30.72,-190.27"/>
</g>
<!-- a0f58a2a&#45;e92d&#45;496e&#45;9c81&#45;dc5401ab314f&#45;&gt;4bfa17d7&#45;18db&#45;47d5&#45;9f3c&#45;5f3bb3c3231f -->
<g id="edge23" class="edge">
<title>a0f58a2a&#45;e92d&#45;496e&#45;9c81&#45;dc5401ab314f&#45;&gt;4bfa17d7&#45;18db&#45;47d5&#45;9f3c&#45;5f3bb3c3231f</title>
<path fill="none" stroke="black" d="M413.52,-364C393.06,-352.81 363.37,-336.57 340.91,-324.29"/>
<polygon fill="black" stroke="black" points="342.54,-321.19 332.08,-319.46 339.18,-327.33 342.54,-321.19"/>
</g>
<!-- a0f58a2a&#45;e92d&#45;496e&#45;9c81&#45;dc5401ab314f&#45;&gt;e04aa1a3&#45;509c&#45;45b2&#45;ac64&#45;53d69c961214 -->
<g id="edge24" class="edge">
<title>a0f58a2a&#45;e92d&#45;496e&#45;9c81&#45;dc5401ab314f&#45;&gt;e04aa1a3&#45;509c&#45;45b2&#45;ac64&#45;53d69c961214</title>
<path fill="none" stroke="black" d="M473.95,-374.7C566.22,-368.53 802.33,-350.32 825.3,-324 877.9,-263.72 858.77,-216.66 825.3,-144 818.46,-129.16 805.19,-116.93 792.68,-107.98"/>
<polygon fill="black" stroke="black" points="794.48,-104.97 784.22,-102.3 790.58,-110.78 794.48,-104.97"/>
</g>
<!-- a0f58a2a&#45;e92d&#45;496e&#45;9c81&#45;dc5401ab314f&#45;&gt;a6980e15&#45;ecee&#45;466e&#45;9ea7&#45;2c0210243c0d -->
<g id="edge25" class="edge">
<title>a0f58a2a&#45;e92d&#45;496e&#45;9c81&#45;dc5401ab314f&#45;&gt;a6980e15&#45;ecee&#45;466e&#45;9ea7&#45;2c0210243c0d</title>
<path fill="none" stroke="black" d="M400.4,-375.28C360.52,-371.53 297.31,-359.89 257.3,-324 220.21,-290.73 213.93,-263.99 227.3,-216 230.01,-206.27 235.04,-196.54 240.33,-188.12"/>
<polygon fill="black" stroke="black" points="243.4,-189.81 246.06,-179.56 237.59,-185.92 243.4,-189.81"/>
</g>
<!-- a0f58a2a&#45;e92d&#45;496e&#45;9c81&#45;dc5401ab314f&#45;&gt;afccf86d&#45;70b8&#45;44c0&#45;86a8&#45;cdac25f7dfd3 -->
<g id="edge27" class="edge">
<title>a0f58a2a&#45;e92d&#45;496e&#45;9c81&#45;dc5401ab314f&#45;&gt;afccf86d&#45;70b8&#45;44c0&#45;86a8&#45;cdac25f7dfd3</title>
<path fill="none" stroke="black" d="M473.76,-374.67C570.66,-368.18 829.15,-348.71 858.3,-324 878.76,-306.65 894.6,-231.08 901.9,-189.94"/>
<polygon fill="black" stroke="black" points="905.35,-190.48 903.6,-180.03 898.46,-189.29 905.35,-190.48"/>
</g>
<!-- afccf86d&#45;70b8&#45;44c0&#45;86a8&#45;cdac25f7dfd3&#45;&gt;cfd092c4&#45;1bb2&#45;43d3&#45;88b1&#45;9f647809e546 -->
<g id="edge28" class="edge">
<title>afccf86d&#45;70b8&#45;44c0&#45;86a8&#45;cdac25f7dfd3&#45;&gt;cfd092c4&#45;1bb2&#45;43d3&#45;88b1&#45;9f647809e546</title>
<path fill="none" stroke="black" d="M911.4,-144.15C918.77,-119.81 932.47,-74.57 941.22,-45.67"/>
<polygon fill="black" stroke="black" points="944.65,-46.41 944.2,-35.82 937.95,-44.38 944.65,-46.41"/>
</g>
<!-- afccf86d&#45;70b8&#45;44c0&#45;86a8&#45;cdac25f7dfd3&#45;&gt;e04aa1a3&#45;509c&#45;45b2&#45;ac64&#45;53d69c961214 -->
<g id="edge29" class="edge">
<title>afccf86d&#45;70b8&#45;44c0&#45;86a8&#45;cdac25f7dfd3&#45;&gt;e04aa1a3&#45;509c&#45;45b2&#45;ac64&#45;53d69c961214</title>
<path fill="none" stroke="black" d="M882.36,-149.28C858.29,-137.5 821.04,-119.27 794.62,-106.34"/>
<polygon fill="black" stroke="black" points="795.95,-103.09 785.43,-101.83 792.87,-109.37 795.95,-103.09"/>
</g>
<!-- 847c8c7a&#45;d53c&#45;464c&#45;9172&#45;f5826be47454 -->
<g id="node22" class="node">
<title>847c8c7a&#45;d53c&#45;464c&#45;9172&#45;f5826be47454</title>
<g id="a_node22"><a xlink:href="org-protocol://roam-node?node=847c8c7a-d53c-464c-9172-f5826be47454" xlink:title="fish">
<ellipse fill="#eeeeee" stroke="#c9c9c9" stroke-width="2" cx="153.3" cy="-234" rx="27" ry="18"/>
<text text-anchor="middle" x="153.3" y="-230.3" font-family="Times,serif" font-size="14.00" fill="#111111">fish</text>
</a>
</g>
</g>
<!-- 847c8c7a&#45;d53c&#45;464c&#45;9172&#45;f5826be47454&#45;&gt;585d3b5e&#45;989d&#45;4363&#45;bcc3&#45;894402fcfcf9 -->
<g id="edge40" class="edge">
<title>847c8c7a&#45;d53c&#45;464c&#45;9172&#45;f5826be47454&#45;&gt;585d3b5e&#45;989d&#45;4363&#45;bcc3&#45;894402fcfcf9</title>
<path fill="none" stroke="black" d="M156.2,-216.05C157.52,-208.35 159.12,-199.03 160.61,-190.36"/>
<polygon fill="black" stroke="black" points="164.09,-190.72 162.33,-180.28 157.2,-189.54 164.09,-190.72"/>
</g>
<!-- ad1527ee&#45;63b3&#45;4a9b&#45;a553&#45;10899f57c234 -->
<g id="node23" class="node">
<title>ad1527ee&#45;63b3&#45;4a9b&#45;a553&#45;10899f57c234</title>
<g id="a_node23"><a xlink:href="org-protocol://roam-node?node=ad1527ee-63b3-4a9b-a553-10899f57c234" xlink:title="TypeScript">
<ellipse fill="#eeeeee" stroke="#c9c9c9" stroke-width="2" cx="286.3" cy="-234" rx="50.09" ry="18"/>
<text text-anchor="middle" x="286.3" y="-230.3" font-family="Times,serif" font-size="14.00" fill="#111111">TypeScript</text>
</a>
</g>
</g>
<!-- ad1527ee&#45;63b3&#45;4a9b&#45;a553&#45;10899f57c234&#45;&gt;a6980e15&#45;ecee&#45;466e&#45;9ea7&#45;2c0210243c0d -->
<g id="edge44" class="edge">
<title>ad1527ee&#45;63b3&#45;4a9b&#45;a553&#45;10899f57c234&#45;&gt;a6980e15&#45;ecee&#45;466e&#45;9ea7&#45;2c0210243c0d</title>
<path fill="none" stroke="black" d="M279.76,-216.05C276.72,-208.18 273.03,-198.62 269.63,-189.79"/>
<polygon fill="black" stroke="black" points="272.82,-188.35 265.96,-180.28 266.29,-190.86 272.82,-188.35"/>
</g>
<!-- 120300fc&#45;27c2&#45;428e&#45;9fbc&#45;49e14172f6df -->
<g id="node24" class="node">
<title>120300fc&#45;27c2&#45;428e&#45;9fbc&#45;49e14172f6df</title>
<g id="a_node24"><a xlink:href="org-protocol://roam-node?node=120300fc-27c2-428e-9fbc-49e14172f6df" xlink:title="Test">
<ellipse fill="#eeeeee" stroke="#c9c9c9" stroke-width="2" cx="937.3" cy="-234" rx="27" ry="18"/>
<text text-anchor="middle" x="937.3" y="-230.3" font-family="Times,serif" font-size="14.00" fill="#111111">Test</text>
</a>
</g>
</g>
<!-- 120300fc&#45;27c2&#45;428e&#45;9fbc&#45;49e14172f6df&#45;&gt;cfd092c4&#45;1bb2&#45;43d3&#45;88b1&#45;9f647809e546 -->
<g id="edge45" class="edge">
<title>120300fc&#45;27c2&#45;428e&#45;9fbc&#45;49e14172f6df&#45;&gt;cfd092c4&#45;1bb2&#45;43d3&#45;88b1&#45;9f647809e546</title>
<path fill="none" stroke="black" d="M962.45,-226.9C985.44,-219.84 1018.1,-205.74 1033.3,-180 1062.3,-130.86 1008.31,-70.73 974.18,-39.71"/>
<polygon fill="black" stroke="black" points="976.21,-36.84 966.4,-32.83 971.57,-42.08 976.21,-36.84"/>
</g>
<!-- 120300fc&#45;27c2&#45;428e&#45;9fbc&#45;49e14172f6df&#45;&gt;afccf86d&#45;70b8&#45;44c0&#45;86a8&#45;cdac25f7dfd3 -->
<g id="edge46" class="edge">
<title>120300fc&#45;27c2&#45;428e&#45;9fbc&#45;49e14172f6df&#45;&gt;afccf86d&#45;70b8&#45;44c0&#45;86a8&#45;cdac25f7dfd3</title>
<path fill="none" stroke="black" d="M929.95,-216.41C926.37,-208.34 921.99,-198.43 917.97,-189.35"/>
<polygon fill="black" stroke="black" points="921.06,-187.68 913.81,-179.96 914.65,-190.52 921.06,-187.68"/>
</g>
<!-- 4270d99a&#45;d2b5&#45;429e&#45;b33c&#45;c2e097b20730 -->
<g id="node25" class="node">
<title>4270d99a&#45;d2b5&#45;429e&#45;b33c&#45;c2e097b20730</title>
<g id="a_node25"><a xlink:href="org-protocol://roam-node?node=4270d99a-d2b5-429e-b33c-c2e097b20730" xlink:title="Zig">
<ellipse fill="#eeeeee" stroke="#c9c9c9" stroke-width="2" cx="1047.3" cy="-234" rx="27" ry="18"/>
<text text-anchor="middle" x="1047.3" y="-230.3" font-family="Times,serif" font-size="14.00" fill="#111111">Zig</text>
</a>
</g>
</g>
<!-- ddc21510&#45;6693&#45;4c1e&#45;9070&#45;db0dd2a8160b -->
<g id="node26" class="node">
<title>ddc21510&#45;6693&#45;4c1e&#45;9070&#45;db0dd2a8160b</title>
<g id="a_node26"><a xlink:href="org-protocol://roam-node?node=ddc21510-6693-4c1e-9070-db0dd2a8160b" xlink:title="Rust">
<ellipse fill="#eeeeee" stroke="#c9c9c9" stroke-width="2" cx="1047.3" cy="-306" rx="27" ry="18"/>
<text text-anchor="middle" x="1047.3" y="-302.3" font-family="Times,serif" font-size="14.00" fill="#111111">Rust</text>
</a>
</g>
</g>
<!-- 4270d99a&#45;d2b5&#45;429e&#45;b33c&#45;c2e097b20730&#45;&gt;ddc21510&#45;6693&#45;4c1e&#45;9070&#45;db0dd2a8160b -->
<g id="edge47" class="edge">
<title>4270d99a&#45;d2b5&#45;429e&#45;b33c&#45;c2e097b20730&#45;&gt;ddc21510&#45;6693&#45;4c1e&#45;9070&#45;db0dd2a8160b</title>
<path fill="none" stroke="black" d="M1053.18,-251.96C1054.01,-259.83 1054.24,-269.37 1053.88,-278.19"/>
<polygon fill="black" stroke="black" points="1050.37,-278.18 1053.14,-288.41 1057.35,-278.69 1050.37,-278.18"/>
</g>
<!-- ddc21510&#45;6693&#45;4c1e&#45;9070&#45;db0dd2a8160b&#45;&gt;1ad8c3d5&#45;97ba&#45;4905&#45;be11&#45;e6f2626127ad -->
<g id="edge49" class="edge">
<title>ddc21510&#45;6693&#45;4c1e&#45;9070&#45;db0dd2a8160b&#45;&gt;1ad8c3d5&#45;97ba&#45;4905&#45;be11&#45;e6f2626127ad</title>
<path fill="none" stroke="black" d="M1021.17,-301.34C940.02,-289.95 691.74,-255.12 591.22,-241.02"/>
<polygon fill="black" stroke="black" points="591.51,-237.53 581.12,-239.6 590.53,-244.46 591.51,-237.53"/>
</g>
<!-- ddc21510&#45;6693&#45;4c1e&#45;9070&#45;db0dd2a8160b&#45;&gt;4270d99a&#45;d2b5&#45;429e&#45;b33c&#45;c2e097b20730 -->
<g id="edge48" class="edge">
<title>ddc21510&#45;6693&#45;4c1e&#45;9070&#45;db0dd2a8160b&#45;&gt;4270d99a&#45;d2b5&#45;429e&#45;b33c&#45;c2e097b20730</title>
<path fill="none" stroke="black" d="M1041.46,-288.41C1040.59,-280.51 1040.34,-270.85 1040.71,-261.94"/>
<polygon fill="black" stroke="black" points="1044.2,-262.18 1041.42,-251.96 1037.22,-261.68 1044.2,-262.18"/>
</g>
<!-- d29202e8&#45;f21c&#45;41e0&#45;9ddf&#45;bad77a01de6a -->
<g id="node27" class="node">
<title>d29202e8&#45;f21c&#45;41e0&#45;9ddf&#45;bad77a01de6a</title>
<g id="a_node27"><a xlink:href="org-protocol://roam-node?node=d29202e8-f21c-41e0-9ddf-bad77a01de6a" xlink:title="OBS">
<ellipse fill="#eeeeee" stroke="#c9c9c9" stroke-width="2" cx="846.3" cy="-378" rx="27.9" ry="18"/>
<text text-anchor="middle" x="846.3" y="-374.3" font-family="Times,serif" font-size="14.00" fill="#111111">OBS</text>
</a>
</g>
</g>
<!-- b4f27aef&#45;22ec&#45;45c0&#45;be50&#45;810f3a0cf9bc -->
<g id="node28" class="node">
<title>b4f27aef&#45;22ec&#45;45c0&#45;be50&#45;810f3a0cf9bc</title>
<g id="a_node28"><a xlink:href="org-protocol://roam-node?node=b4f27aef-22ec-45c0-be50-810f3a0cf9bc" xlink:title="Money">
<ellipse fill="#eeeeee" stroke="#c9c9c9" stroke-width="2" cx="928.3" cy="-378" rx="36.29" ry="18"/>
<text text-anchor="middle" x="928.3" y="-374.3" font-family="Times,serif" font-size="14.00" fill="#111111">Money</text>
</a>
</g>
</g>
<!-- a6c9c9ad&#45;d9b1&#45;4e13&#45;8992&#45;75d8590e464c -->
<g id="node29" class="node">
<title>a6c9c9ad&#45;d9b1&#45;4e13&#45;8992&#45;75d8590e464c</title>
<g id="a_node29"><a xlink:href="org-protocol://roam-node?node=a6c9c9ad-d9b1-4e13-8992-75d8590e464c" xlink:title="Python">
<ellipse fill="#eeeeee" stroke="#c9c9c9" stroke-width="2" cx="1018.3" cy="-378" rx="36" ry="18"/>
<text text-anchor="middle" x="1018.3" y="-374.3" font-family="Times,serif" font-size="14.00" fill="#111111">Python</text>
</a>
</g>
</g>
<!-- 868ac56a&#45;2d42&#45;48d7&#45;ab7f&#45;7047c85a8f39 -->
<g id="node30" class="node">
<title>868ac56a&#45;2d42&#45;48d7&#45;ab7f&#45;7047c85a8f39</title>
<g id="a_node30"><a xlink:href="org-protocol://roam-node?node=868ac56a-2d42-48d7-ab7f-7047c85a8f39" xlink:title="Programing Language">
<ellipse fill="#eeeeee" stroke="#c9c9c9" stroke-width="2" cx="1161.3" cy="-378" rx="89.88" ry="18"/>
<text text-anchor="middle" x="1161.3" y="-374.3" font-family="Times,serif" font-size="14.00" fill="#111111">Programing Language</text>
</a>
</g>
</g>
</g>
</svg>
