<?xml version="1.0" encoding="UTF-8" standalone="no"?>
<!DOCTYPE svg PUBLIC "-//W3C//DTD SVG 1.1//EN"
 "http://www.w3.org/Graphics/SVG/1.1/DTD/svg11.dtd">
<!-- Generated by graphviz version 2.43.0 (0)
 -->
<!-- Title: org&#45;roam Pages: 1 -->
<svg width="1094pt" height="620pt"
 viewBox="0.00 0.00 1094.30 620.00" xmlns="http://www.w3.org/2000/svg" xmlns:xlink="http://www.w3.org/1999/xlink">
<g id="graph0" class="graph" transform="scale(1 1) rotate(0) translate(4 616)">
<title>org&#45;roam</title>
<polygon fill="white" stroke="transparent" points="-4,4 -4,-616 1090.3,-616 1090.3,4 -4,4"/>
<!-- f0cefeef&#45;6f99&#45;4ce2&#45;bff7&#45;db6e508f2c84 -->
<g id="node1" class="node">
<title>f0cefeef&#45;6f99&#45;4ce2&#45;bff7&#45;db6e508f2c84</title>
<g id="a_node1"><a xlink:href="org-protocol://roam-node?node=f0cefeef-6f99-4ce2-bff7-db6e508f2c84" xlink:title="create&#45;link">
<ellipse fill="#eeeeee" stroke="#c9c9c9" stroke-width="2" cx="436.3" cy="-522" rx="48.19" ry="18"/>
<text text-anchor="middle" x="436.3" y="-518.3" font-family="Times,serif" font-size="14.00" fill="#111111">create&#45;link</text>
</a>
</g>
</g>
<!-- a9fab970&#45;2057&#45;48ce&#45;95ee&#45;19964d639a38 -->
<g id="node2" class="node">
<title>a9fab970&#45;2057&#45;48ce&#45;95ee&#45;19964d639a38</title>
<g id="a_node2"><a xlink:href="org-protocol://roam-node?node=a9fab970-2057-48ce-95ee-19964d639a38" xlink:title="Project">
<ellipse fill="#eeeeee" stroke="#c9c9c9" stroke-width="2" cx="340.3" cy="-450" rx="36" ry="18"/>
<text text-anchor="middle" x="340.3" y="-446.3" font-family="Times,serif" font-size="14.00" fill="#111111">Project</text>
</a>
</g>
</g>
<!-- f0cefeef&#45;6f99&#45;4ce2&#45;bff7&#45;db6e508f2c84&#45;&gt;a9fab970&#45;2057&#45;48ce&#45;95ee&#45;19964d639a38 -->
<g id="edge1" class="edge">
<title>f0cefeef&#45;6f99&#45;4ce2&#45;bff7&#45;db6e508f2c84&#45;&gt;a9fab970&#45;2057&#45;48ce&#45;95ee&#45;19964d639a38</title>
<path fill="none" stroke="black" d="M414.99,-505.46C401.23,-495.43 383.18,-482.27 368.27,-471.4"/>
<polygon fill="black" stroke="black" points="370.05,-468.36 359.91,-465.3 365.93,-474.02 370.05,-468.36"/>
</g>
<!-- 1ad8c3d5&#45;97ba&#45;4905&#45;be11&#45;e6f2626127ad -->
<g id="node3" class="node">
<title>1ad8c3d5&#45;97ba&#45;4905&#45;be11&#45;e6f2626127ad</title>
<g id="a_node3"><a xlink:href="org-protocol://roam-node?node=1ad8c3d5-97ba-4905-be11-e6f2626127ad" xlink:title="Emacs">
<ellipse fill="#eeeeee" stroke="#c9c9c9" stroke-width="2" cx="517.3" cy="-234" rx="34.39" ry="18"/>
<text text-anchor="middle" x="517.3" y="-230.3" font-family="Times,serif" font-size="14.00" fill="#111111">Emacs</text>
</a>
</g>
</g>
<!-- f0cefeef&#45;6f99&#45;4ce2&#45;bff7&#45;db6e508f2c84&#45;&gt;1ad8c3d5&#45;97ba&#45;4905&#45;be11&#45;e6f2626127ad -->
<g id="edge2" class="edge">
<title>f0cefeef&#45;6f99&#45;4ce2&#45;bff7&#45;db6e508f2c84&#45;&gt;1ad8c3d5&#45;97ba&#45;4905&#45;be11&#45;e6f2626127ad</title>
<path fill="none" stroke="black" d="M446.91,-504.12C455.32,-494.47 466.08,-481.61 472.3,-468 503.96,-398.7 508.61,-306.98 512.25,-262.09"/>
<polygon fill="black" stroke="black" points="515.75,-262.25 513.15,-251.98 508.78,-261.64 515.75,-262.25"/>
</g>
<!-- 70f249a8&#45;f8c8&#45;4a7e&#45;978c&#45;8ff04ffd09c0 -->
<g id="node6" class="node">
<title>70f249a8&#45;f8c8&#45;4a7e&#45;978c&#45;8ff04ffd09c0</title>
<g id="a_node6"><a xlink:href="org-protocol://roam-node?node=70f249a8-f8c8-4a7e-978c-8ff04ffd09c0" xlink:title="digger">
<ellipse fill="#eeeeee" stroke="#c9c9c9" stroke-width="2" cx="436.3" cy="-378" rx="33.29" ry="18"/>
<text text-anchor="middle" x="436.3" y="-374.3" font-family="Times,serif" font-size="14.00" fill="#111111">digger</text>
</a>
</g>
</g>
<!-- a9fab970&#45;2057&#45;48ce&#45;95ee&#45;19964d639a38&#45;&gt;70f249a8&#45;f8c8&#45;4a7e&#45;978c&#45;8ff04ffd09c0 -->
<g id="edge30" class="edge">
<title>a9fab970&#45;2057&#45;48ce&#45;95ee&#45;19964d639a38&#45;&gt;70f249a8&#45;f8c8&#45;4a7e&#45;978c&#45;8ff04ffd09c0</title>
<path fill="none" stroke="black" d="M359.72,-434.83C373.87,-424.52 393.22,-410.41 408.93,-398.96"/>
<polygon fill="black" stroke="black" points="411.21,-401.63 417.23,-392.91 407.08,-395.97 411.21,-401.63"/>
</g>
<!-- 1ad8c3d5&#45;97ba&#45;4905&#45;be11&#45;e6f2626127ad&#45;&gt;f0cefeef&#45;6f99&#45;4ce2&#45;bff7&#45;db6e508f2c84 -->
<g id="edge43" class="edge">
<title>1ad8c3d5&#45;97ba&#45;4905&#45;be11&#45;e6f2626127ad&#45;&gt;f0cefeef&#45;6f99&#45;4ce2&#45;bff7&#45;db6e508f2c84</title>
<path fill="none" stroke="black" d="M522.37,-251.98C527.2,-291.71 524.58,-392.98 490.3,-468 485.04,-479.49 476.56,-490.45 467.76,-499.39"/>
<polygon fill="black" stroke="black" points="465.21,-496.97 460.34,-506.39 470.02,-502.06 465.21,-496.97"/>
</g>
<!-- 8c81068f&#45;0e51&#45;4d6d&#45;bd1f&#45;392ce8cb3a21 -->
<g id="node4" class="node">
<title>8c81068f&#45;0e51&#45;4d6d&#45;bd1f&#45;392ce8cb3a21</title>
<g id="a_node4"><a xlink:href="org-protocol://roam-node?node=8c81068f-0e51-4d6d-bd1f-392ce8cb3a21" xlink:title="current&#45;word&#45;highlight">
<ellipse fill="#eeeeee" stroke="#c9c9c9" stroke-width="2" cx="717.3" cy="-162" rx="90.98" ry="18"/>
<text text-anchor="middle" x="717.3" y="-158.3" font-family="Times,serif" font-size="14.00" fill="#111111">current&#45;word&#45;highlight</text>
</a>
</g>
</g>
<!-- 1ad8c3d5&#45;97ba&#45;4905&#45;be11&#45;e6f2626127ad&#45;&gt;8c81068f&#45;0e51&#45;4d6d&#45;bd1f&#45;392ce8cb3a21 -->
<g id="edge42" class="edge">
<title>1ad8c3d5&#45;97ba&#45;4905&#45;be11&#45;e6f2626127ad&#45;&gt;8c81068f&#45;0e51&#45;4d6d&#45;bd1f&#45;392ce8cb3a21</title>
<path fill="none" stroke="black" d="M543.48,-222.06C573.19,-211 622.24,-193.73 660.73,-180.71"/>
<polygon fill="black" stroke="black" points="661.9,-184.01 670.26,-177.5 659.67,-177.38 661.9,-184.01"/>
</g>
<!-- c7e81fac&#45;9f8b&#45;4538&#45;9851&#45;21d4ff3c2b08 -->
<g id="node8" class="node">
<title>c7e81fac&#45;9f8b&#45;4538&#45;9851&#45;21d4ff3c2b08</title>
<g id="a_node8"><a xlink:href="org-protocol://roam-node?node=c7e81fac-9f8b-4538-9851-21d4ff3c2b08" xlink:title="Emacs Lisp">
<ellipse fill="#eeeeee" stroke="#c9c9c9" stroke-width="2" cx="517.3" cy="-162" rx="52.79" ry="18"/>
<text text-anchor="middle" x="517.3" y="-158.3" font-family="Times,serif" font-size="14.00" fill="#111111">Emacs Lisp</text>
</a>
</g>
</g>
<!-- 1ad8c3d5&#45;97ba&#45;4905&#45;be11&#45;e6f2626127ad&#45;&gt;c7e81fac&#45;9f8b&#45;4538&#45;9851&#45;21d4ff3c2b08 -->
<g id="edge39" class="edge">
<title>1ad8c3d5&#45;97ba&#45;4905&#45;be11&#45;e6f2626127ad&#45;&gt;c7e81fac&#45;9f8b&#45;4538&#45;9851&#45;21d4ff3c2b08</title>
<path fill="none" stroke="black" d="M511.42,-216.05C510.6,-208.35 510.36,-199.03 510.69,-190.36"/>
<polygon fill="black" stroke="black" points="514.19,-190.49 511.38,-180.28 507.21,-190.01 514.19,-190.49"/>
</g>
<!-- 7dab097c&#45;60ba&#45;43b9&#45;949f&#45;c58bf3151aa8 -->
<g id="node11" class="node">
<title>7dab097c&#45;60ba&#45;43b9&#45;949f&#45;c58bf3151aa8</title>
<g id="a_node11"><a xlink:href="org-protocol://roam-node?node=7dab097c-60ba-43b9-949f-c58bf3151aa8" xlink:title="MySQL">
<ellipse fill="#eeeeee" stroke="#c9c9c9" stroke-width="2" cx="40.3" cy="-162" rx="40.09" ry="18"/>
<text text-anchor="middle" x="40.3" y="-158.3" font-family="Times,serif" font-size="14.00" fill="#111111">MySQL</text>
</a>
</g>
</g>
<!-- 1ad8c3d5&#45;97ba&#45;4905&#45;be11&#45;e6f2626127ad&#45;&gt;7dab097c&#45;60ba&#45;43b9&#45;949f&#45;c58bf3151aa8 -->
<g id="edge44" class="edge">
<title>1ad8c3d5&#45;97ba&#45;4905&#45;be11&#45;e6f2626127ad&#45;&gt;7dab097c&#45;60ba&#45;43b9&#45;949f&#45;c58bf3151aa8</title>
<path fill="none" stroke="black" d="M484.51,-228.19C401.85,-216.06 184.68,-184.19 87.95,-169.99"/>
<polygon fill="black" stroke="black" points="88.27,-166.5 77.87,-168.51 87.26,-173.43 88.27,-166.5"/>
</g>
<!-- 8b69b8d4&#45;1612&#45;4dc5&#45;8412&#45;96b431fdd101 -->
<g id="node12" class="node">
<title>8b69b8d4&#45;1612&#45;4dc5&#45;8412&#45;96b431fdd101</title>
<g id="a_node12"><a xlink:href="org-protocol://roam-node?node=8b69b8d4-1612-4dc5-8412-96b431fdd101" xlink:title="SQL">
<ellipse fill="#eeeeee" stroke="#c9c9c9" stroke-width="2" cx="243.3" cy="-18" rx="27.1" ry="18"/>
<text text-anchor="middle" x="243.3" y="-14.3" font-family="Times,serif" font-size="14.00" fill="#111111">SQL</text>
</a>
</g>
</g>
<!-- 1ad8c3d5&#45;97ba&#45;4905&#45;be11&#45;e6f2626127ad&#45;&gt;8b69b8d4&#45;1612&#45;4dc5&#45;8412&#45;96b431fdd101 -->
<g id="edge45" class="edge">
<title>1ad8c3d5&#45;97ba&#45;4905&#45;be11&#45;e6f2626127ad&#45;&gt;8b69b8d4&#45;1612&#45;4dc5&#45;8412&#45;96b431fdd101</title>
<path fill="none" stroke="black" d="M540.39,-220.31C554.49,-211.15 571.3,-197.36 579.3,-180 585.99,-165.47 588.43,-157.14 579.3,-144 510.41,-44.87 353.03,-24.2 280.79,-20"/>
<polygon fill="black" stroke="black" points="280.94,-16.5 270.77,-19.49 280.58,-23.49 280.94,-16.5"/>
</g>
<!-- e04aa1a3&#45;509c&#45;45b2&#45;ac64&#45;53d69c961214 -->
<g id="node15" class="node">
<title>e04aa1a3&#45;509c&#45;45b2&#45;ac64&#45;53d69c961214</title>
<g id="a_node15"><a xlink:href="org-protocol://roam-node?node=e04aa1a3-509c-45b2-ac64-53d69c961214" xlink:title="Rails">
<ellipse fill="#eeeeee" stroke="#c9c9c9" stroke-width="2" cx="243.3" cy="-90" rx="28.7" ry="18"/>
<text text-anchor="middle" x="243.3" y="-86.3" font-family="Times,serif" font-size="14.00" fill="#111111">Rails</text>
</a>
</g>
</g>
<!-- 1ad8c3d5&#45;97ba&#45;4905&#45;be11&#45;e6f2626127ad&#45;&gt;e04aa1a3&#45;509c&#45;45b2&#45;ac64&#45;53d69c961214 -->
<g id="edge46" class="edge">
<title>1ad8c3d5&#45;97ba&#45;4905&#45;be11&#45;e6f2626127ad&#45;&gt;e04aa1a3&#45;509c&#45;45b2&#45;ac64&#45;53d69c961214</title>
<path fill="none" stroke="black" d="M485.27,-227.31C449.48,-220.03 390.61,-205.24 345.3,-180 340.84,-177.52 295.49,-137.44 266.78,-111.92"/>
<polygon fill="black" stroke="black" points="268.97,-109.19 259.17,-105.15 264.31,-114.42 268.97,-109.19"/>
</g>
<!-- a6980e15&#45;ecee&#45;466e&#45;9ea7&#45;2c0210243c0d -->
<g id="node18" class="node">
<title>a6980e15&#45;ecee&#45;466e&#45;9ea7&#45;2c0210243c0d</title>
<g id="a_node18"><a xlink:href="org-protocol://roam-node?node=a6980e15-ecee-466e-9ea7-2c0210243c0d" xlink:title="JavaScript">
<ellipse fill="#eeeeee" stroke="#c9c9c9" stroke-width="2" cx="949.3" cy="-162" rx="47.39" ry="18"/>
<text text-anchor="middle" x="949.3" y="-158.3" font-family="Times,serif" font-size="14.00" fill="#111111">JavaScript</text>
</a>
</g>
</g>
<!-- 1ad8c3d5&#45;97ba&#45;4905&#45;be11&#45;e6f2626127ad&#45;&gt;a6980e15&#45;ecee&#45;466e&#45;9ea7&#45;2c0210243c0d -->
<g id="edge48" class="edge">
<title>1ad8c3d5&#45;97ba&#45;4905&#45;be11&#45;e6f2626127ad&#45;&gt;a6980e15&#45;ecee&#45;466e&#45;9ea7&#45;2c0210243c0d</title>
<path fill="none" stroke="black" d="M551.06,-230.01C617.27,-223.76 768.58,-207.55 893.3,-180 897.09,-179.16 901.01,-178.19 904.92,-177.15"/>
<polygon fill="black" stroke="black" points="905.88,-180.52 914.57,-174.45 903.99,-173.78 905.88,-180.52"/>
</g>
<!-- afccf86d&#45;70b8&#45;44c0&#45;86a8&#45;cdac25f7dfd3 -->
<g id="node19" class="node">
<title>afccf86d&#45;70b8&#45;44c0&#45;86a8&#45;cdac25f7dfd3</title>
<g id="a_node19"><a xlink:href="org-protocol://roam-node?node=afccf86d-70b8-44c0-86a8-cdac25f7dfd3" xlink:title="RSpec">
<ellipse fill="#eeeeee" stroke="#c9c9c9" stroke-width="2" cx="208.3" cy="-162" rx="33.6" ry="18"/>
<text text-anchor="middle" x="208.3" y="-158.3" font-family="Times,serif" font-size="14.00" fill="#111111">RSpec</text>
</a>
</g>
</g>
<!-- 1ad8c3d5&#45;97ba&#45;4905&#45;be11&#45;e6f2626127ad&#45;&gt;afccf86d&#45;70b8&#45;44c0&#45;86a8&#45;cdac25f7dfd3 -->
<g id="edge47" class="edge">
<title>1ad8c3d5&#45;97ba&#45;4905&#45;be11&#45;e6f2626127ad&#45;&gt;afccf86d&#45;70b8&#45;44c0&#45;86a8&#45;cdac25f7dfd3</title>
<path fill="none" stroke="black" d="M486.25,-225.97C430,-213.23 311.28,-186.33 248.76,-172.17"/>
<polygon fill="black" stroke="black" points="249.39,-168.72 238.86,-169.92 247.84,-175.55 249.39,-168.72"/>
</g>
<!-- 585d3b5e&#45;989d&#45;4363&#45;bcc3&#45;894402fcfcf9 -->
<g id="node21" class="node">
<title>585d3b5e&#45;989d&#45;4363&#45;bcc3&#45;894402fcfcf9</title>
<g id="a_node21"><a xlink:href="org-protocol://roam-node?node=585d3b5e-989d-4363-bcc3-894402fcfcf9" xlink:title="Shell">
<ellipse fill="#eeeeee" stroke="#c9c9c9" stroke-width="2" cx="855.3" cy="-162" rx="28.7" ry="18"/>
<text text-anchor="middle" x="855.3" y="-158.3" font-family="Times,serif" font-size="14.00" fill="#111111">Shell</text>
</a>
</g>
</g>
<!-- 1ad8c3d5&#45;97ba&#45;4905&#45;be11&#45;e6f2626127ad&#45;&gt;585d3b5e&#45;989d&#45;4363&#45;bcc3&#45;894402fcfcf9 -->
<g id="edge40" class="edge">
<title>1ad8c3d5&#45;97ba&#45;4905&#45;be11&#45;e6f2626127ad&#45;&gt;585d3b5e&#45;989d&#45;4363&#45;bcc3&#45;894402fcfcf9</title>
<path fill="none" stroke="black" d="M551.23,-229.75C607.5,-223.76 723.25,-208.86 817.3,-180 819.57,-179.3 821.89,-178.5 824.2,-177.64"/>
<polygon fill="black" stroke="black" points="825.61,-180.85 833.55,-173.83 822.96,-174.36 825.61,-180.85"/>
</g>
<!-- 815a2c31&#45;7ddb&#45;40ad&#45;bae0&#45;f84e1cfd8de1 -->
<g id="node26" class="node">
<title>815a2c31&#45;7ddb&#45;40ad&#45;bae0&#45;f84e1cfd8de1</title>
<g id="a_node26"><a xlink:href="org-protocol://roam-node?node=815a2c31-7ddb-40ad-bae0-f84e1cfd8de1" xlink:title="Org&#45;roam">
<ellipse fill="#eeeeee" stroke="#c9c9c9" stroke-width="2" cx="400.3" cy="-162" rx="46.29" ry="18"/>
<text text-anchor="middle" x="400.3" y="-158.3" font-family="Times,serif" font-size="14.00" fill="#111111">Org&#45;roam</text>
</a>
</g>
</g>
<!-- 1ad8c3d5&#45;97ba&#45;4905&#45;be11&#45;e6f2626127ad&#45;&gt;815a2c31&#45;7ddb&#45;40ad&#45;bae0&#45;f84e1cfd8de1 -->
<g id="edge41" class="edge">
<title>1ad8c3d5&#45;97ba&#45;4905&#45;be11&#45;e6f2626127ad&#45;&gt;815a2c31&#45;7ddb&#45;40ad&#45;bae0&#45;f84e1cfd8de1</title>
<path fill="none" stroke="black" d="M492.52,-221.28C473.85,-211.09 448.4,-196.08 428.89,-183.84"/>
<polygon fill="black" stroke="black" points="430.71,-180.85 420.39,-178.44 426.96,-186.76 430.71,-180.85"/>
</g>
<!-- 8c81068f&#45;0e51&#45;4d6d&#45;bd1f&#45;392ce8cb3a21&#45;&gt;1ad8c3d5&#45;97ba&#45;4905&#45;be11&#45;e6f2626127ad -->
<g id="edge3" class="edge">
<title>8c81068f&#45;0e51&#45;4d6d&#45;bd1f&#45;392ce8cb3a21&#45;&gt;1ad8c3d5&#45;97ba&#45;4905&#45;be11&#45;e6f2626127ad</title>
<path fill="none" stroke="black" d="M679.07,-178.38C643.83,-191.25 591.94,-209.35 556.42,-221.13"/>
<polygon fill="black" stroke="black" points="555.27,-217.83 546.87,-224.28 557.46,-224.47 555.27,-217.83"/>
</g>
<!-- d694ecaa&#45;6a8b&#45;4669&#45;a95c&#45;f76de6dcbd2c -->
<g id="node5" class="node">
<title>d694ecaa&#45;6a8b&#45;4669&#45;a95c&#45;f76de6dcbd2c</title>
<g id="a_node5"><a xlink:href="org-protocol://roam-node?node=d694ecaa-6a8b-4669-a95c-f76de6dcbd2c" xlink:title="GNU Guix">
<ellipse fill="#eeeeee" stroke="#c9c9c9" stroke-width="2" cx="552.3" cy="-522" rx="50.09" ry="18"/>
<text text-anchor="middle" x="552.3" y="-518.3" font-family="Times,serif" font-size="14.00" fill="#111111">GNU Guix</text>
</a>
</g>
</g>
<!-- d694ecaa&#45;6a8b&#45;4669&#45;a95c&#45;f76de6dcbd2c&#45;&gt;a9fab970&#45;2057&#45;48ce&#45;95ee&#45;19964d639a38 -->
<g id="edge4" class="edge">
<title>d694ecaa&#45;6a8b&#45;4669&#45;a95c&#45;f76de6dcbd2c&#45;&gt;a9fab970&#45;2057&#45;48ce&#45;95ee&#45;19964d639a38</title>
<path fill="none" stroke="black" d="M514.96,-509.78C480.99,-499.43 429.55,-483.37 385.3,-468 382.72,-467.11 380.07,-466.16 377.41,-465.2"/>
<polygon fill="black" stroke="black" points="378.41,-461.84 367.82,-461.66 375.99,-468.41 378.41,-461.84"/>
</g>
<!-- d694ecaa&#45;6a8b&#45;4669&#45;a95c&#45;f76de6dcbd2c&#45;&gt;1ad8c3d5&#45;97ba&#45;4905&#45;be11&#45;e6f2626127ad -->
<g id="edge5" class="edge">
<title>d694ecaa&#45;6a8b&#45;4669&#45;a95c&#45;f76de6dcbd2c&#45;&gt;1ad8c3d5&#45;97ba&#45;4905&#45;be11&#45;e6f2626127ad</title>
<path fill="none" stroke="black" d="M551.94,-503.9C550.89,-465.16 546.89,-367.88 532.3,-288 530.71,-279.31 528.31,-269.98 525.9,-261.61"/>
<polygon fill="black" stroke="black" points="529.23,-260.56 523,-251.99 522.53,-262.58 529.23,-260.56"/>
</g>
<!-- cfd092c4&#45;1bb2&#45;43d3&#45;88b1&#45;9f647809e546 -->
<g id="node7" class="node">
<title>cfd092c4&#45;1bb2&#45;43d3&#45;88b1&#45;9f647809e546</title>
<g id="a_node7"><a xlink:href="org-protocol://roam-node?node=cfd092c4-1bb2-43d3-88b1-9f647809e546" xlink:title="Ruby">
<ellipse fill="#eeeeee" stroke="#c9c9c9" stroke-width="2" cx="294.3" cy="-306" rx="29.8" ry="18"/>
<text text-anchor="middle" x="294.3" y="-302.3" font-family="Times,serif" font-size="14.00" fill="#111111">Ruby</text>
</a>
</g>
</g>
<!-- 70f249a8&#45;f8c8&#45;4a7e&#45;978c&#45;8ff04ffd09c0&#45;&gt;cfd092c4&#45;1bb2&#45;43d3&#45;88b1&#45;9f647809e546 -->
<g id="edge6" class="edge">
<title>70f249a8&#45;f8c8&#45;4a7e&#45;978c&#45;8ff04ffd09c0&#45;&gt;cfd092c4&#45;1bb2&#45;43d3&#45;88b1&#45;9f647809e546</title>
<path fill="none" stroke="black" d="M412.53,-365.28C388.76,-353.57 352.07,-335.48 325.87,-322.56"/>
<polygon fill="black" stroke="black" points="327.25,-319.34 316.73,-318.06 324.16,-325.62 327.25,-319.34"/>
</g>
<!-- cfd092c4&#45;1bb2&#45;43d3&#45;88b1&#45;9f647809e546&#45;&gt;1ad8c3d5&#45;97ba&#45;4905&#45;be11&#45;e6f2626127ad -->
<g id="edge52" class="edge">
<title>cfd092c4&#45;1bb2&#45;43d3&#45;88b1&#45;9f647809e546&#45;&gt;1ad8c3d5&#45;97ba&#45;4905&#45;be11&#45;e6f2626127ad</title>
<path fill="none" stroke="black" d="M317.61,-294.25C322.73,-292.05 328.15,-289.85 333.3,-288 381.75,-270.54 438.95,-254.8 476.56,-245.1"/>
<polygon fill="black" stroke="black" points="477.81,-248.39 486.63,-242.52 476.07,-241.61 477.81,-248.39"/>
</g>
<!-- cfd092c4&#45;1bb2&#45;43d3&#45;88b1&#45;9f647809e546&#45;&gt;e04aa1a3&#45;509c&#45;45b2&#45;ac64&#45;53d69c961214 -->
<g id="edge51" class="edge">
<title>cfd092c4&#45;1bb2&#45;43d3&#45;88b1&#45;9f647809e546&#45;&gt;e04aa1a3&#45;509c&#45;45b2&#45;ac64&#45;53d69c961214</title>
<path fill="none" stroke="black" d="M286.57,-288.56C274.21,-251.87 252.74,-162.97 245.07,-118"/>
<polygon fill="black" stroke="black" points="248.52,-117.42 243.5,-108.09 241.6,-118.51 248.52,-117.42"/>
</g>
<!-- c7e81fac&#45;9f8b&#45;4538&#45;9851&#45;21d4ff3c2b08&#45;&gt;1ad8c3d5&#45;97ba&#45;4905&#45;be11&#45;e6f2626127ad -->
<g id="edge7" class="edge">
<title>c7e81fac&#45;9f8b&#45;4538&#45;9851&#45;21d4ff3c2b08&#45;&gt;1ad8c3d5&#45;97ba&#45;4905&#45;be11&#45;e6f2626127ad</title>
<path fill="none" stroke="black" d="M523.21,-180.28C524.01,-188.03 524.24,-197.36 523.89,-206.01"/>
<polygon fill="black" stroke="black" points="520.39,-205.83 523.17,-216.05 527.37,-206.33 520.39,-205.83"/>
</g>
<!-- 02b46258&#45;7650&#45;4a02&#45;9f0e&#45;c422555b29d0 -->
<g id="node9" class="node">
<title>02b46258&#45;7650&#45;4a02&#45;9f0e&#45;c422555b29d0</title>
<g id="a_node9"><a xlink:href="org-protocol://roam-node?node=02b46258-7650-4a02-9f0e-c422555b29d0" xlink:title="Archive">
<ellipse fill="#eeeeee" stroke="#c9c9c9" stroke-width="2" cx="433.3" cy="-450" rx="38.99" ry="18"/>
<text text-anchor="middle" x="433.3" y="-446.3" font-family="Times,serif" font-size="14.00" fill="#111111">Archive</text>
</a>
</g>
</g>
<!-- 02b46258&#45;7650&#45;4a02&#45;9f0e&#45;c422555b29d0&#45;&gt;70f249a8&#45;f8c8&#45;4a7e&#45;978c&#45;8ff04ffd09c0 -->
<g id="edge9" class="edge">
<title>02b46258&#45;7650&#45;4a02&#45;9f0e&#45;c422555b29d0&#45;&gt;70f249a8&#45;f8c8&#45;4a7e&#45;978c&#45;8ff04ffd09c0</title>
<path fill="none" stroke="black" d="M434.04,-431.7C434.37,-423.98 434.77,-414.71 435.13,-406.11"/>
<polygon fill="black" stroke="black" points="438.63,-406.25 435.56,-396.1 431.64,-405.95 438.63,-406.25"/>
</g>
<!-- d3394774&#45;aba5&#45;4167&#45;bd18&#45;f194eb2bd9ed -->
<g id="node10" class="node">
<title>d3394774&#45;aba5&#45;4167&#45;bd18&#45;f194eb2bd9ed</title>
<g id="a_node10"><a xlink:href="org-protocol://roam-node?node=d3394774-aba5-4167-bd18-f194eb2bd9ed" xlink:title="TextLint">
<ellipse fill="#eeeeee" stroke="#c9c9c9" stroke-width="2" cx="626.3" cy="-378" rx="41.69" ry="18"/>
<text text-anchor="middle" x="626.3" y="-374.3" font-family="Times,serif" font-size="14.00" fill="#111111">TextLint</text>
</a>
</g>
</g>
<!-- 02b46258&#45;7650&#45;4a02&#45;9f0e&#45;c422555b29d0&#45;&gt;d3394774&#45;aba5&#45;4167&#45;bd18&#45;f194eb2bd9ed -->
<g id="edge8" class="edge">
<title>02b46258&#45;7650&#45;4a02&#45;9f0e&#45;c422555b29d0&#45;&gt;d3394774&#45;aba5&#45;4167&#45;bd18&#45;f194eb2bd9ed</title>
<path fill="none" stroke="black" d="M463.03,-438.22C496.03,-426.25 549.47,-406.87 586.16,-393.56"/>
<polygon fill="black" stroke="black" points="587.36,-396.84 595.57,-390.14 584.98,-390.26 587.36,-396.84"/>
</g>
<!-- d3394774&#45;aba5&#45;4167&#45;bd18&#45;f194eb2bd9ed&#45;&gt;1ad8c3d5&#45;97ba&#45;4905&#45;be11&#45;e6f2626127ad -->
<g id="edge32" class="edge">
<title>d3394774&#45;aba5&#45;4167&#45;bd18&#45;f194eb2bd9ed&#45;&gt;1ad8c3d5&#45;97ba&#45;4905&#45;be11&#45;e6f2626127ad</title>
<path fill="none" stroke="black" d="M617.22,-360.18C606.92,-341.71 589.08,-311.54 570.3,-288 561.59,-277.09 550.87,-266.01 541.35,-256.82"/>
<polygon fill="black" stroke="black" points="543.71,-254.23 534.04,-249.9 538.89,-259.32 543.71,-254.23"/>
</g>
<!-- d3394774&#45;aba5&#45;4167&#45;bd18&#45;f194eb2bd9ed&#45;&gt;a6980e15&#45;ecee&#45;466e&#45;9ea7&#45;2c0210243c0d -->
<g id="edge31" class="edge">
<title>d3394774&#45;aba5&#45;4167&#45;bd18&#45;f194eb2bd9ed&#45;&gt;a6980e15&#45;ecee&#45;466e&#45;9ea7&#45;2c0210243c0d</title>
<path fill="none" stroke="black" d="M647.18,-362.31C679.06,-339.64 741.41,-294.3 791.3,-252 809.04,-236.95 809.93,-228.89 829.3,-216 852.96,-200.25 882.07,-187.26 905.7,-178.09"/>
<polygon fill="black" stroke="black" points="907.01,-181.33 915.12,-174.51 904.53,-174.79 907.01,-181.33"/>
</g>
<!-- 7dab097c&#45;60ba&#45;43b9&#45;949f&#45;c58bf3151aa8&#45;&gt;8b69b8d4&#45;1612&#45;4dc5&#45;8412&#45;96b431fdd101 -->
<g id="edge10" class="edge">
<title>7dab097c&#45;60ba&#45;43b9&#45;949f&#45;c58bf3151aa8&#45;&gt;8b69b8d4&#45;1612&#45;4dc5&#45;8412&#45;96b431fdd101</title>
<path fill="none" stroke="black" d="M61.26,-146.34C98.44,-120.33 175.87,-66.16 216.73,-37.58"/>
<polygon fill="black" stroke="black" points="218.92,-40.32 225.11,-31.72 214.91,-34.59 218.92,-40.32"/>
</g>
<!-- 4bfa17d7&#45;18db&#45;47d5&#45;9f3c&#45;5f3bb3c3231f -->
<g id="node13" class="node">
<title>4bfa17d7&#45;18db&#45;47d5&#45;9f3c&#45;5f3bb3c3231f</title>
<g id="a_node13"><a xlink:href="org-protocol://roam-node?node=4bfa17d7-18db-47d5-9f3c-5f3bb3c3231f" xlink:title="ej&#45;dict">
<ellipse fill="#eeeeee" stroke="#c9c9c9" stroke-width="2" cx="253.3" cy="-450" rx="33.29" ry="18"/>
<text text-anchor="middle" x="253.3" y="-446.3" font-family="Times,serif" font-size="14.00" fill="#111111">ej&#45;dict</text>
</a>
</g>
</g>
<!-- 4bfa17d7&#45;18db&#45;47d5&#45;9f3c&#45;5f3bb3c3231f&#45;&gt;1ad8c3d5&#45;97ba&#45;4905&#45;be11&#45;e6f2626127ad -->
<g id="edge11" class="edge">
<title>4bfa17d7&#45;18db&#45;47d5&#45;9f3c&#45;5f3bb3c3231f&#45;&gt;1ad8c3d5&#45;97ba&#45;4905&#45;be11&#45;e6f2626127ad</title>
<path fill="none" stroke="black" d="M271.03,-434.63C316.57,-397.71 437.81,-299.43 491.31,-256.06"/>
<polygon fill="black" stroke="black" points="493.73,-258.61 499.29,-249.59 489.32,-253.17 493.73,-258.61"/>
</g>
<!-- a23ceb84&#45;e89a&#45;4905&#45;b931&#45;1944a0b828b7 -->
<g id="node14" class="node">
<title>a23ceb84&#45;e89a&#45;4905&#45;b931&#45;1944a0b828b7</title>
<g id="a_node14"><a xlink:href="org-protocol://roam-node?node=a23ceb84-e89a-4905-b931-1944a0b828b7" xlink:title="Learning">
<ellipse fill="#eeeeee" stroke="#c9c9c9" stroke-width="2" cx="328.3" cy="-522" rx="42.49" ry="18"/>
<text text-anchor="middle" x="328.3" y="-518.3" font-family="Times,serif" font-size="14.00" fill="#111111">Learning</text>
</a>
</g>
</g>
<!-- a23ceb84&#45;e89a&#45;4905&#45;b931&#45;1944a0b828b7&#45;&gt;a9fab970&#45;2057&#45;48ce&#45;95ee&#45;19964d639a38 -->
<g id="edge12" class="edge">
<title>a23ceb84&#45;e89a&#45;4905&#45;b931&#45;1944a0b828b7&#45;&gt;a9fab970&#45;2057&#45;48ce&#45;95ee&#45;19964d639a38</title>
<path fill="none" stroke="black" d="M331.26,-503.7C332.59,-495.98 334.17,-486.71 335.65,-478.11"/>
<polygon fill="black" stroke="black" points="339.12,-478.55 337.36,-468.1 332.22,-477.37 339.12,-478.55"/>
</g>
<!-- e04aa1a3&#45;509c&#45;45b2&#45;ac64&#45;53d69c961214&#45;&gt;cfd092c4&#45;1bb2&#45;43d3&#45;88b1&#45;9f647809e546 -->
<g id="edge13" class="edge">
<title>e04aa1a3&#45;509c&#45;45b2&#45;ac64&#45;53d69c961214&#45;&gt;cfd092c4&#45;1bb2&#45;43d3&#45;88b1&#45;9f647809e546</title>
<path fill="none" stroke="black" d="M250.99,-107.35C263.34,-143.97 284.82,-232.89 292.51,-277.92"/>
<polygon fill="black" stroke="black" points="289.07,-278.52 294.09,-287.85 295.98,-277.42 289.07,-278.52"/>
</g>
<!-- e04aa1a3&#45;509c&#45;45b2&#45;ac64&#45;53d69c961214&#45;&gt;8b69b8d4&#45;1612&#45;4dc5&#45;8412&#45;96b431fdd101 -->
<g id="edge14" class="edge">
<title>e04aa1a3&#45;509c&#45;45b2&#45;ac64&#45;53d69c961214&#45;&gt;8b69b8d4&#45;1612&#45;4dc5&#45;8412&#45;96b431fdd101</title>
<path fill="none" stroke="black" d="M243.3,-71.7C243.3,-63.98 243.3,-54.71 243.3,-46.11"/>
<polygon fill="black" stroke="black" points="246.8,-46.1 243.3,-36.1 239.8,-46.1 246.8,-46.1"/>
</g>
<!-- 1658782a&#45;d331&#45;464b&#45;9fd7&#45;1f8233b8b7f8 -->
<g id="node16" class="node">
<title>1658782a&#45;d331&#45;464b&#45;9fd7&#45;1f8233b8b7f8</title>
<g id="a_node16"><a xlink:href="org-protocol://roam-node?node=1658782a-d331-464b-9fd7-1f8233b8b7f8" xlink:title="Docker">
<ellipse fill="#eeeeee" stroke="#c9c9c9" stroke-width="2" cx="82.3" cy="-234" rx="36.29" ry="18"/>
<text text-anchor="middle" x="82.3" y="-230.3" font-family="Times,serif" font-size="14.00" fill="#111111">Docker</text>
</a>
</g>
</g>
<!-- 1658782a&#45;d331&#45;464b&#45;9fd7&#45;1f8233b8b7f8&#45;&gt;7dab097c&#45;60ba&#45;43b9&#45;949f&#45;c58bf3151aa8 -->
<g id="edge16" class="edge">
<title>1658782a&#45;d331&#45;464b&#45;9fd7&#45;1f8233b8b7f8&#45;&gt;7dab097c&#45;60ba&#45;43b9&#45;949f&#45;c58bf3151aa8</title>
<path fill="none" stroke="black" d="M72.34,-216.41C67.27,-207.95 60.99,-197.49 55.34,-188.08"/>
<polygon fill="black" stroke="black" points="58.32,-186.24 50.18,-179.47 52.32,-189.85 58.32,-186.24"/>
</g>
<!-- 1658782a&#45;d331&#45;464b&#45;9fd7&#45;1f8233b8b7f8&#45;&gt;e04aa1a3&#45;509c&#45;45b2&#45;ac64&#45;53d69c961214 -->
<g id="edge15" class="edge">
<title>1658782a&#45;d331&#45;464b&#45;9fd7&#45;1f8233b8b7f8&#45;&gt;e04aa1a3&#45;509c&#45;45b2&#45;ac64&#45;53d69c961214</title>
<path fill="none" stroke="black" d="M88.25,-215.89C95.82,-196.32 110.56,-164.34 132.3,-144 153.85,-123.83 184.5,-109.99 208.13,-101.52"/>
<polygon fill="black" stroke="black" points="209.45,-104.77 217.78,-98.22 207.19,-98.14 209.45,-104.77"/>
</g>
<!-- a0f58a2a&#45;e92d&#45;496e&#45;9c81&#45;dc5401ab314f -->
<g id="node17" class="node">
<title>a0f58a2a&#45;e92d&#45;496e&#45;9c81&#45;dc5401ab314f</title>
<g id="a_node17"><a xlink:href="org-protocol://roam-node?node=a0f58a2a-e92d-496e-9c81-dc5401ab314f" xlink:title="History">
<ellipse fill="#eeeeee" stroke="#c9c9c9" stroke-width="2" cx="494.3" cy="-594" rx="37.09" ry="18"/>
<text text-anchor="middle" x="494.3" y="-590.3" font-family="Times,serif" font-size="14.00" fill="#111111">History</text>
</a>
</g>
</g>
<!-- a0f58a2a&#45;e92d&#45;496e&#45;9c81&#45;dc5401ab314f&#45;&gt;f0cefeef&#45;6f99&#45;4ce2&#45;bff7&#45;db6e508f2c84 -->
<g id="edge19" class="edge">
<title>a0f58a2a&#45;e92d&#45;496e&#45;9c81&#45;dc5401ab314f&#45;&gt;f0cefeef&#45;6f99&#45;4ce2&#45;bff7&#45;db6e508f2c84</title>
<path fill="none" stroke="black" d="M481.14,-577.12C473.82,-568.29 464.58,-557.13 456.38,-547.24"/>
<polygon fill="black" stroke="black" points="458.88,-544.77 449.81,-539.31 453.49,-549.24 458.88,-544.77"/>
</g>
<!-- a0f58a2a&#45;e92d&#45;496e&#45;9c81&#45;dc5401ab314f&#45;&gt;1ad8c3d5&#45;97ba&#45;4905&#45;be11&#45;e6f2626127ad -->
<g id="edge17" class="edge">
<title>a0f58a2a&#45;e92d&#45;496e&#45;9c81&#45;dc5401ab314f&#45;&gt;1ad8c3d5&#45;97ba&#45;4905&#45;be11&#45;e6f2626127ad</title>
<path fill="none" stroke="black" d="M522.63,-582.35C562.34,-567.39 630,-541.77 632.3,-540 670.87,-510.24 696.3,-499.72 696.3,-451 696.3,-451 696.3,-451 696.3,-377 696.3,-306.2 609.27,-265.09 556.58,-246.7"/>
<polygon fill="black" stroke="black" points="557.45,-243.29 546.85,-243.42 555.21,-249.93 557.45,-243.29"/>
</g>
<!-- a0f58a2a&#45;e92d&#45;496e&#45;9c81&#45;dc5401ab314f&#45;&gt;8c81068f&#45;0e51&#45;4d6d&#45;bd1f&#45;392ce8cb3a21 -->
<g id="edge18" class="edge">
<title>a0f58a2a&#45;e92d&#45;496e&#45;9c81&#45;dc5401ab314f&#45;&gt;8c81068f&#45;0e51&#45;4d6d&#45;bd1f&#45;392ce8cb3a21</title>
<path fill="none" stroke="black" d="M522.39,-582.21C528.28,-580.07 534.47,-577.89 540.3,-576 651.69,-539.81 772.3,-568.13 772.3,-451 772.3,-451 772.3,-451 772.3,-377 772.3,-316.66 731.98,-311 719.3,-252 714.94,-231.73 714.6,-208.26 715.26,-190.52"/>
<polygon fill="black" stroke="black" points="718.77,-190.45 715.78,-180.29 711.78,-190.1 718.77,-190.45"/>
</g>
<!-- a0f58a2a&#45;e92d&#45;496e&#45;9c81&#45;dc5401ab314f&#45;&gt;d694ecaa&#45;6a8b&#45;4669&#45;a95c&#45;f76de6dcbd2c -->
<g id="edge21" class="edge">
<title>a0f58a2a&#45;e92d&#45;496e&#45;9c81&#45;dc5401ab314f&#45;&gt;d694ecaa&#45;6a8b&#45;4669&#45;a95c&#45;f76de6dcbd2c</title>
<path fill="none" stroke="black" d="M507.46,-577.12C514.66,-568.42 523.75,-557.45 531.86,-547.66"/>
<polygon fill="black" stroke="black" points="534.69,-549.73 538.38,-539.8 529.3,-545.26 534.69,-549.73"/>
</g>
<!-- a0f58a2a&#45;e92d&#45;496e&#45;9c81&#45;dc5401ab314f&#45;&gt;d3394774&#45;aba5&#45;4167&#45;bd18&#45;f194eb2bd9ed -->
<g id="edge20" class="edge">
<title>a0f58a2a&#45;e92d&#45;496e&#45;9c81&#45;dc5401ab314f&#45;&gt;d3394774&#45;aba5&#45;4167&#45;bd18&#45;f194eb2bd9ed</title>
<path fill="none" stroke="black" d="M522.31,-582.03C555.12,-568.93 605.75,-547.79 611.3,-540 639.45,-500.5 636.43,-440.97 631.49,-406.45"/>
<polygon fill="black" stroke="black" points="634.89,-405.5 629.86,-396.17 627.97,-406.6 634.89,-405.5"/>
</g>
<!-- a0f58a2a&#45;e92d&#45;496e&#45;9c81&#45;dc5401ab314f&#45;&gt;7dab097c&#45;60ba&#45;43b9&#45;949f&#45;c58bf3151aa8 -->
<g id="edge25" class="edge">
<title>a0f58a2a&#45;e92d&#45;496e&#45;9c81&#45;dc5401ab314f&#45;&gt;7dab097c&#45;60ba&#45;43b9&#45;949f&#45;c58bf3151aa8</title>
<path fill="none" stroke="black" d="M457.18,-593.71C389.68,-593.7 243.55,-587.58 132.3,-540 73.2,-514.73 18.3,-515.28 18.3,-451 18.3,-451 18.3,-451 18.3,-305 18.3,-264.52 27.14,-218.3 33.61,-189.89"/>
<polygon fill="black" stroke="black" points="37.07,-190.45 35.95,-179.92 30.26,-188.85 37.07,-190.45"/>
</g>
<!-- a0f58a2a&#45;e92d&#45;496e&#45;9c81&#45;dc5401ab314f&#45;&gt;4bfa17d7&#45;18db&#45;47d5&#45;9f3c&#45;5f3bb3c3231f -->
<g id="edge22" class="edge">
<title>a0f58a2a&#45;e92d&#45;496e&#45;9c81&#45;dc5401ab314f&#45;&gt;4bfa17d7&#45;18db&#45;47d5&#45;9f3c&#45;5f3bb3c3231f</title>
<path fill="none" stroke="black" d="M458.51,-588.7C403.76,-581.4 302.82,-564.93 277.3,-540 260.97,-524.06 255.38,-498.26 253.64,-478.54"/>
<polygon fill="black" stroke="black" points="257.12,-478.07 253.02,-468.3 250.13,-478.5 257.12,-478.07"/>
</g>
<!-- a0f58a2a&#45;e92d&#45;496e&#45;9c81&#45;dc5401ab314f&#45;&gt;e04aa1a3&#45;509c&#45;45b2&#45;ac64&#45;53d69c961214 -->
<g id="edge23" class="edge">
<title>a0f58a2a&#45;e92d&#45;496e&#45;9c81&#45;dc5401ab314f&#45;&gt;e04aa1a3&#45;509c&#45;45b2&#45;ac64&#45;53d69c961214</title>
<path fill="none" stroke="black" d="M457.78,-590.33C387.98,-584.61 238.84,-569.25 197.3,-540 160.02,-513.75 146.3,-496.59 146.3,-451 146.3,-451 146.3,-451 146.3,-233 146.3,-192.55 142.72,-177.56 165.3,-144 176.53,-127.31 194.95,-114.43 211.07,-105.55"/>
<polygon fill="black" stroke="black" points="212.97,-108.5 220.22,-100.78 209.74,-102.29 212.97,-108.5"/>
</g>
<!-- a0f58a2a&#45;e92d&#45;496e&#45;9c81&#45;dc5401ab314f&#45;&gt;a6980e15&#45;ecee&#45;466e&#45;9ea7&#45;2c0210243c0d -->
<g id="edge24" class="edge">
<title>a0f58a2a&#45;e92d&#45;496e&#45;9c81&#45;dc5401ab314f&#45;&gt;a6980e15&#45;ecee&#45;466e&#45;9ea7&#45;2c0210243c0d</title>
<path fill="none" stroke="black" d="M521.76,-581.92C527.8,-579.74 534.21,-577.63 540.3,-576 746.57,-520.62 1004.3,-664.57 1004.3,-451 1004.3,-451 1004.3,-451 1004.3,-305 1004.3,-261.77 981.86,-215.83 965.64,-188.28"/>
<polygon fill="black" stroke="black" points="968.6,-186.41 960.43,-179.67 962.62,-190.04 968.6,-186.41"/>
</g>
<!-- a0f58a2a&#45;e92d&#45;496e&#45;9c81&#45;dc5401ab314f&#45;&gt;afccf86d&#45;70b8&#45;44c0&#45;86a8&#45;cdac25f7dfd3 -->
<g id="edge26" class="edge">
<title>a0f58a2a&#45;e92d&#45;496e&#45;9c81&#45;dc5401ab314f&#45;&gt;afccf86d&#45;70b8&#45;44c0&#45;86a8&#45;cdac25f7dfd3</title>
<path fill="none" stroke="black" d="M457.21,-592.62C374.93,-589.62 184.3,-569.84 184.3,-451 184.3,-451 184.3,-451 184.3,-305 184.3,-264.43 193.94,-218.24 201,-189.85"/>
<polygon fill="black" stroke="black" points="204.46,-190.45 203.55,-179.89 197.68,-188.71 204.46,-190.45"/>
</g>
<!-- afccf86d&#45;70b8&#45;44c0&#45;86a8&#45;cdac25f7dfd3&#45;&gt;cfd092c4&#45;1bb2&#45;43d3&#45;88b1&#45;9f647809e546 -->
<g id="edge27" class="edge">
<title>afccf86d&#45;70b8&#45;44c0&#45;86a8&#45;cdac25f7dfd3&#45;&gt;cfd092c4&#45;1bb2&#45;43d3&#45;88b1&#45;9f647809e546</title>
<path fill="none" stroke="black" d="M218.31,-179.54C233.29,-204.27 261.64,-251.08 279.15,-280"/>
<polygon fill="black" stroke="black" points="276.26,-281.97 284.43,-288.71 282.24,-278.34 276.26,-281.97"/>
</g>
<!-- afccf86d&#45;70b8&#45;44c0&#45;86a8&#45;cdac25f7dfd3&#45;&gt;e04aa1a3&#45;509c&#45;45b2&#45;ac64&#45;53d69c961214 -->
<g id="edge28" class="edge">
<title>afccf86d&#45;70b8&#45;44c0&#45;86a8&#45;cdac25f7dfd3&#45;&gt;e04aa1a3&#45;509c&#45;45b2&#45;ac64&#45;53d69c961214</title>
<path fill="none" stroke="black" d="M216.59,-144.41C220.73,-136.13 225.83,-125.92 230.47,-116.66"/>
<polygon fill="black" stroke="black" points="233.72,-117.98 235.06,-107.47 227.46,-114.85 233.72,-117.98"/>
</g>
<!-- 847c8c7a&#45;d53c&#45;464c&#45;9172&#45;f5826be47454 -->
<g id="node20" class="node">
<title>847c8c7a&#45;d53c&#45;464c&#45;9172&#45;f5826be47454</title>
<g id="a_node20"><a xlink:href="org-protocol://roam-node?node=847c8c7a-d53c-464c-9172-f5826be47454" xlink:title="fish">
<ellipse fill="#eeeeee" stroke="#c9c9c9" stroke-width="2" cx="755.3" cy="-234" rx="27" ry="18"/>
<text text-anchor="middle" x="755.3" y="-230.3" font-family="Times,serif" font-size="14.00" fill="#111111">fish</text>
</a>
</g>
</g>
<!-- 847c8c7a&#45;d53c&#45;464c&#45;9172&#45;f5826be47454&#45;&gt;585d3b5e&#45;989d&#45;4363&#45;bcc3&#45;894402fcfcf9 -->
<g id="edge29" class="edge">
<title>847c8c7a&#45;d53c&#45;464c&#45;9172&#45;f5826be47454&#45;&gt;585d3b5e&#45;989d&#45;4363&#45;bcc3&#45;894402fcfcf9</title>
<path fill="none" stroke="black" d="M773.17,-220.49C788.48,-209.77 810.76,-194.18 828.25,-181.93"/>
<polygon fill="black" stroke="black" points="830.71,-184.48 836.9,-175.88 826.7,-178.75 830.71,-184.48"/>
</g>
<!-- ad1527ee&#45;63b3&#45;4a9b&#45;a553&#45;10899f57c234 -->
<g id="node22" class="node">
<title>ad1527ee&#45;63b3&#45;4a9b&#45;a553&#45;10899f57c234</title>
<g id="a_node22"><a xlink:href="org-protocol://roam-node?node=ad1527ee-63b3-4a9b-a553-10899f57c234" xlink:title="TypeScript">
<ellipse fill="#eeeeee" stroke="#c9c9c9" stroke-width="2" cx="888.3" cy="-234" rx="50.09" ry="18"/>
<text text-anchor="middle" x="888.3" y="-230.3" font-family="Times,serif" font-size="14.00" fill="#111111">TypeScript</text>
</a>
</g>
</g>
<!-- ad1527ee&#45;63b3&#45;4a9b&#45;a553&#45;10899f57c234&#45;&gt;a6980e15&#45;ecee&#45;466e&#45;9ea7&#45;2c0210243c0d -->
<g id="edge33" class="edge">
<title>ad1527ee&#45;63b3&#45;4a9b&#45;a553&#45;10899f57c234&#45;&gt;a6980e15&#45;ecee&#45;466e&#45;9ea7&#45;2c0210243c0d</title>
<path fill="none" stroke="black" d="M902.75,-216.41C910.35,-207.69 919.8,-196.85 928.2,-187.21"/>
<polygon fill="black" stroke="black" points="931.01,-189.31 934.94,-179.47 925.74,-184.71 931.01,-189.31"/>
</g>
<!-- 120300fc&#45;27c2&#45;428e&#45;9fbc&#45;49e14172f6df -->
<g id="node23" class="node">
<title>120300fc&#45;27c2&#45;428e&#45;9fbc&#45;49e14172f6df</title>
<g id="a_node23"><a xlink:href="org-protocol://roam-node?node=120300fc-27c2-428e-9fbc-49e14172f6df" xlink:title="Test">
<ellipse fill="#eeeeee" stroke="#c9c9c9" stroke-width="2" cx="260.3" cy="-378" rx="27" ry="18"/>
<text text-anchor="middle" x="260.3" y="-374.3" font-family="Times,serif" font-size="14.00" fill="#111111">Test</text>
</a>
</g>
</g>
<!-- 120300fc&#45;27c2&#45;428e&#45;9fbc&#45;49e14172f6df&#45;&gt;cfd092c4&#45;1bb2&#45;43d3&#45;88b1&#45;9f647809e546 -->
<g id="edge34" class="edge">
<title>120300fc&#45;27c2&#45;428e&#45;9fbc&#45;49e14172f6df&#45;&gt;cfd092c4&#45;1bb2&#45;43d3&#45;88b1&#45;9f647809e546</title>
<path fill="none" stroke="black" d="M268.18,-360.76C272.2,-352.49 277.18,-342.23 281.72,-332.9"/>
<polygon fill="black" stroke="black" points="285,-334.16 286.22,-323.63 278.7,-331.1 285,-334.16"/>
</g>
<!-- 120300fc&#45;27c2&#45;428e&#45;9fbc&#45;49e14172f6df&#45;&gt;afccf86d&#45;70b8&#45;44c0&#45;86a8&#45;cdac25f7dfd3 -->
<g id="edge35" class="edge">
<title>120300fc&#45;27c2&#45;428e&#45;9fbc&#45;49e14172f6df&#45;&gt;afccf86d&#45;70b8&#45;44c0&#45;86a8&#45;cdac25f7dfd3</title>
<path fill="none" stroke="black" d="M256.13,-359.85C247.09,-322.66 225.64,-234.37 214.8,-189.77"/>
<polygon fill="black" stroke="black" points="218.17,-188.83 212.41,-179.94 211.37,-190.48 218.17,-188.83"/>
</g>
<!-- 4270d99a&#45;d2b5&#45;429e&#45;b33c&#45;c2e097b20730 -->
<g id="node24" class="node">
<title>4270d99a&#45;d2b5&#45;429e&#45;b33c&#45;c2e097b20730</title>
<g id="a_node24"><a xlink:href="org-protocol://roam-node?node=4270d99a-d2b5-429e-b33c-c2e097b20730" xlink:title="Zig">
<ellipse fill="#eeeeee" stroke="#c9c9c9" stroke-width="2" cx="1059.3" cy="-234" rx="27" ry="18"/>
<text text-anchor="middle" x="1059.3" y="-230.3" font-family="Times,serif" font-size="14.00" fill="#111111">Zig</text>
</a>
</g>
</g>
<!-- ddc21510&#45;6693&#45;4c1e&#45;9070&#45;db0dd2a8160b -->
<g id="node25" class="node">
<title>ddc21510&#45;6693&#45;4c1e&#45;9070&#45;db0dd2a8160b</title>
<g id="a_node25"><a xlink:href="org-protocol://roam-node?node=ddc21510-6693-4c1e-9070-db0dd2a8160b" xlink:title="Rust">
<ellipse fill="#eeeeee" stroke="#c9c9c9" stroke-width="2" cx="1059.3" cy="-306" rx="27" ry="18"/>
<text text-anchor="middle" x="1059.3" y="-302.3" font-family="Times,serif" font-size="14.00" fill="#111111">Rust</text>
</a>
</g>
</g>
<!-- 4270d99a&#45;d2b5&#45;429e&#45;b33c&#45;c2e097b20730&#45;&gt;ddc21510&#45;6693&#45;4c1e&#45;9070&#45;db0dd2a8160b -->
<g id="edge36" class="edge">
<title>4270d99a&#45;d2b5&#45;429e&#45;b33c&#45;c2e097b20730&#45;&gt;ddc21510&#45;6693&#45;4c1e&#45;9070&#45;db0dd2a8160b</title>
<path fill="none" stroke="black" d="M1065.18,-251.96C1066.01,-259.83 1066.24,-269.37 1065.88,-278.19"/>
<polygon fill="black" stroke="black" points="1062.37,-278.18 1065.14,-288.41 1069.35,-278.69 1062.37,-278.18"/>
</g>
<!-- ddc21510&#45;6693&#45;4c1e&#45;9070&#45;db0dd2a8160b&#45;&gt;1ad8c3d5&#45;97ba&#45;4905&#45;be11&#45;e6f2626127ad -->
<g id="edge38" class="edge">
<title>ddc21510&#45;6693&#45;4c1e&#45;9070&#45;db0dd2a8160b&#45;&gt;1ad8c3d5&#45;97ba&#45;4905&#45;be11&#45;e6f2626127ad</title>
<path fill="none" stroke="black" d="M1033.35,-300.34C1012.77,-296.73 983.24,-291.72 957.3,-288 812.43,-267.21 639.93,-248.06 560.84,-239.58"/>
<polygon fill="black" stroke="black" points="561.07,-236.09 550.76,-238.51 560.33,-243.05 561.07,-236.09"/>
</g>
<!-- ddc21510&#45;6693&#45;4c1e&#45;9070&#45;db0dd2a8160b&#45;&gt;4270d99a&#45;d2b5&#45;429e&#45;b33c&#45;c2e097b20730 -->
<g id="edge37" class="edge">
<title>ddc21510&#45;6693&#45;4c1e&#45;9070&#45;db0dd2a8160b&#45;&gt;4270d99a&#45;d2b5&#45;429e&#45;b33c&#45;c2e097b20730</title>
<path fill="none" stroke="black" d="M1053.46,-288.41C1052.59,-280.51 1052.34,-270.85 1052.71,-261.94"/>
<polygon fill="black" stroke="black" points="1056.2,-262.18 1053.42,-251.96 1049.22,-261.68 1056.2,-262.18"/>
</g>
<!-- 815a2c31&#45;7ddb&#45;40ad&#45;bae0&#45;f84e1cfd8de1&#45;&gt;1ad8c3d5&#45;97ba&#45;4905&#45;be11&#45;e6f2626127ad -->
<g id="edge50" class="edge">
<title>815a2c31&#45;7ddb&#45;40ad&#45;bae0&#45;f84e1cfd8de1&#45;&gt;1ad8c3d5&#45;97ba&#45;4905&#45;be11&#45;e6f2626127ad</title>
<path fill="none" stroke="black" d="M428.5,-176.6C447.32,-187 471.77,-201.49 490.32,-213.18"/>
<polygon fill="black" stroke="black" points="488.6,-216.23 498.91,-218.67 492.36,-210.33 488.6,-216.23"/>
</g>
<!-- 90c6b715&#45;9324&#45;46ce&#45;a354&#45;63d09403b066 -->
<g id="node27" class="node">
<title>90c6b715&#45;9324&#45;46ce&#45;a354&#45;63d09403b066</title>
<g id="a_node27"><a xlink:href="org-protocol://roam-node?node=90c6b715-9324-46ce-a354-63d09403b066" xlink:title="Git">
<ellipse fill="#eeeeee" stroke="#c9c9c9" stroke-width="2" cx="369.3" cy="-306" rx="27" ry="18"/>
<text text-anchor="middle" x="369.3" y="-302.3" font-family="Times,serif" font-size="14.00" fill="#111111">Git</text>
</a>
</g>
</g>
<!-- 90c6b715&#45;9324&#45;46ce&#45;a354&#45;63d09403b066&#45;&gt;1ad8c3d5&#45;97ba&#45;4905&#45;be11&#45;e6f2626127ad -->
<g id="edge49" class="edge">
<title>90c6b715&#45;9324&#45;46ce&#45;a354&#45;63d09403b066&#45;&gt;1ad8c3d5&#45;97ba&#45;4905&#45;be11&#45;e6f2626127ad</title>
<path fill="none" stroke="black" d="M390.82,-294.82C415.09,-283.34 454.89,-264.52 483.36,-251.05"/>
<polygon fill="black" stroke="black" points="484.99,-254.15 492.54,-246.71 482,-247.82 484.99,-254.15"/>
</g>
<!-- dc50d818&#45;d7d1&#45;48a8&#45;ad76&#45;62ead617c670 -->
<g id="node28" class="node">
<title>dc50d818&#45;d7d1&#45;48a8&#45;ad76&#45;62ead617c670</title>
<g id="a_node28"><a xlink:href="org-protocol://roam-node?node=dc50d818-d7d1-48a8-ad76-62ead617c670" xlink:title="React">
<ellipse fill="#eeeeee" stroke="#c9c9c9" stroke-width="2" cx="917.3" cy="-306" rx="30.59" ry="18"/>
<text text-anchor="middle" x="917.3" y="-302.3" font-family="Times,serif" font-size="14.00" fill="#111111">React</text>
</a>
</g>
</g>
<!-- dc50d818&#45;d7d1&#45;48a8&#45;ad76&#45;62ead617c670&#45;&gt;a6980e15&#45;ecee&#45;466e&#45;9ea7&#45;2c0210243c0d -->
<g id="edge53" class="edge">
<title>dc50d818&#45;d7d1&#45;48a8&#45;ad76&#45;62ead617c670&#45;&gt;a6980e15&#45;ecee&#45;466e&#45;9ea7&#45;2c0210243c0d</title>
<path fill="none" stroke="black" d="M928.98,-289.21C935.73,-279.13 943.59,-265.46 947.3,-252 952.86,-231.79 953.09,-208.02 952.08,-190.13"/>
<polygon fill="black" stroke="black" points="955.56,-189.81 951.34,-180.09 948.58,-190.32 955.56,-189.81"/>
</g>
<!-- dc50d818&#45;d7d1&#45;48a8&#45;ad76&#45;62ead617c670&#45;&gt;ad1527ee&#45;63b3&#45;4a9b&#45;a553&#45;10899f57c234 -->
<g id="edge54" class="edge">
<title>dc50d818&#45;d7d1&#45;48a8&#45;ad76&#45;62ead617c670&#45;&gt;ad1527ee&#45;63b3&#45;4a9b&#45;a553&#45;10899f57c234</title>
<path fill="none" stroke="black" d="M910.42,-288.41C907.08,-280.34 902.98,-270.43 899.21,-261.35"/>
<polygon fill="black" stroke="black" points="902.38,-259.86 895.32,-251.96 895.92,-262.53 902.38,-259.86"/>
</g>
<!-- d29202e8&#45;f21c&#45;41e0&#45;9ddf&#45;bad77a01de6a -->
<g id="node29" class="node">
<title>d29202e8&#45;f21c&#45;41e0&#45;9ddf&#45;bad77a01de6a</title>
<g id="a_node29"><a xlink:href="org-protocol://roam-node?node=d29202e8-f21c-41e0-9ddf-bad77a01de6a" xlink:title="OBS">
<ellipse fill="#eeeeee" stroke="#c9c9c9" stroke-width="2" cx="577.3" cy="-594" rx="27.9" ry="18"/>
<text text-anchor="middle" x="577.3" y="-590.3" font-family="Times,serif" font-size="14.00" fill="#111111">OBS</text>
</a>
</g>
</g>
<!-- b4f27aef&#45;22ec&#45;45c0&#45;be50&#45;810f3a0cf9bc -->
<g id="node30" class="node">
<title>b4f27aef&#45;22ec&#45;45c0&#45;be50&#45;810f3a0cf9bc</title>
<g id="a_node30"><a xlink:href="org-protocol://roam-node?node=b4f27aef-22ec-45c0-be50-810f3a0cf9bc" xlink:title="Money">
<ellipse fill="#eeeeee" stroke="#c9c9c9" stroke-width="2" cx="659.3" cy="-594" rx="36.29" ry="18"/>
<text text-anchor="middle" x="659.3" y="-590.3" font-family="Times,serif" font-size="14.00" fill="#111111">Money</text>
</a>
</g>
</g>
<!-- a6c9c9ad&#45;d9b1&#45;4e13&#45;8992&#45;75d8590e464c -->
<g id="node31" class="node">
<title>a6c9c9ad&#45;d9b1&#45;4e13&#45;8992&#45;75d8590e464c</title>
<g id="a_node31"><a xlink:href="org-protocol://roam-node?node=a6c9c9ad-d9b1-4e13-8992-75d8590e464c" xlink:title="Python">
<ellipse fill="#eeeeee" stroke="#c9c9c9" stroke-width="2" cx="749.3" cy="-594" rx="36" ry="18"/>
<text text-anchor="middle" x="749.3" y="-590.3" font-family="Times,serif" font-size="14.00" fill="#111111">Python</text>
</a>
</g>
</g>
<!-- 868ac56a&#45;2d42&#45;48d7&#45;ab7f&#45;7047c85a8f39 -->
<g id="node32" class="node">
<title>868ac56a&#45;2d42&#45;48d7&#45;ab7f&#45;7047c85a8f39</title>
<g id="a_node32"><a xlink:href="org-protocol://roam-node?node=868ac56a-2d42-48d7-ab7f-7047c85a8f39" xlink:title="Programing Language">
<ellipse fill="#eeeeee" stroke="#c9c9c9" stroke-width="2" cx="892.3" cy="-594" rx="89.88" ry="18"/>
<text text-anchor="middle" x="892.3" y="-590.3" font-family="Times,serif" font-size="14.00" fill="#111111">Programing Language</text>
</a>
</g>
</g>
</g>
</svg>
