<?xml version="1.0" encoding="UTF-8" standalone="no"?>
<!DOCTYPE svg PUBLIC "-//W3C//DTD SVG 1.1//EN"
 "http://www.w3.org/Graphics/SVG/1.1/DTD/svg11.dtd">
<!-- Generated by graphviz version 2.43.0 (0)
 -->
<!-- Title: org&#45;roam Pages: 1 -->
<svg width="1247pt" height="620pt"
 viewBox="0.00 0.00 1247.00 620.00" xmlns="http://www.w3.org/2000/svg" xmlns:xlink="http://www.w3.org/1999/xlink">
<g id="graph0" class="graph" transform="scale(1 1) rotate(0) translate(4 616)">
<title>org&#45;roam</title>
<polygon fill="white" stroke="transparent" points="-4,4 -4,-616 1243,-616 1243,4 -4,4"/>
<!-- f0cefeef&#45;6f99&#45;4ce2&#45;bff7&#45;db6e508f2c84 -->
<g id="node1" class="node">
<title>f0cefeef&#45;6f99&#45;4ce2&#45;bff7&#45;db6e508f2c84</title>
<g id="a_node1"><a xlink:href="org-protocol://roam-node?node=f0cefeef-6f99-4ce2-bff7-db6e508f2c84" xlink:title="create&#45;link">
<ellipse fill="#eeeeee" stroke="#c9c9c9" stroke-width="2" cx="643" cy="-522" rx="48.19" ry="18"/>
<text text-anchor="middle" x="643" y="-518.3" font-family="Times,serif" font-size="14.00" fill="#111111">create&#45;link</text>
</a>
</g>
</g>
<!-- a9fab970&#45;2057&#45;48ce&#45;95ee&#45;19964d639a38 -->
<g id="node2" class="node">
<title>a9fab970&#45;2057&#45;48ce&#45;95ee&#45;19964d639a38</title>
<g id="a_node2"><a xlink:href="org-protocol://roam-node?node=a9fab970-2057-48ce-95ee-19964d639a38" xlink:title="Project">
<ellipse fill="#eeeeee" stroke="#c9c9c9" stroke-width="2" cx="710" cy="-450" rx="36" ry="18"/>
<text text-anchor="middle" x="710" y="-446.3" font-family="Times,serif" font-size="14.00" fill="#111111">Project</text>
</a>
</g>
</g>
<!-- f0cefeef&#45;6f99&#45;4ce2&#45;bff7&#45;db6e508f2c84&#45;&gt;a9fab970&#45;2057&#45;48ce&#45;95ee&#45;19964d639a38 -->
<g id="edge1" class="edge">
<title>f0cefeef&#45;6f99&#45;4ce2&#45;bff7&#45;db6e508f2c84&#45;&gt;a9fab970&#45;2057&#45;48ce&#45;95ee&#45;19964d639a38</title>
<path fill="none" stroke="black" d="M658.54,-504.76C667.29,-495.62 678.36,-484.06 687.99,-474"/>
<polygon fill="black" stroke="black" points="690.62,-476.31 695.01,-466.67 685.56,-471.47 690.62,-476.31"/>
</g>
<!-- 1ad8c3d5&#45;97ba&#45;4905&#45;be11&#45;e6f2626127ad -->
<g id="node3" class="node">
<title>1ad8c3d5&#45;97ba&#45;4905&#45;be11&#45;e6f2626127ad</title>
<g id="a_node3"><a xlink:href="org-protocol://roam-node?node=1ad8c3d5-97ba-4905-be11-e6f2626127ad" xlink:title="Emacs">
<ellipse fill="#eeeeee" stroke="#c9c9c9" stroke-width="2" cx="623" cy="-234" rx="34.39" ry="18"/>
<text text-anchor="middle" x="623" y="-230.3" font-family="Times,serif" font-size="14.00" fill="#111111">Emacs</text>
</a>
</g>
</g>
<!-- f0cefeef&#45;6f99&#45;4ce2&#45;bff7&#45;db6e508f2c84&#45;&gt;1ad8c3d5&#45;97ba&#45;4905&#45;be11&#45;e6f2626127ad -->
<g id="edge2" class="edge">
<title>f0cefeef&#45;6f99&#45;4ce2&#45;bff7&#45;db6e508f2c84&#45;&gt;1ad8c3d5&#45;97ba&#45;4905&#45;be11&#45;e6f2626127ad</title>
<path fill="none" stroke="black" d="M638.4,-503.97C630.89,-456.29 621.18,-321.18 620.74,-262.63"/>
<polygon fill="black" stroke="black" points="624.24,-262.32 620.77,-252.31 617.24,-262.3 624.24,-262.32"/>
</g>
<!-- 70f249a8&#45;f8c8&#45;4a7e&#45;978c&#45;8ff04ffd09c0 -->
<g id="node6" class="node">
<title>70f249a8&#45;f8c8&#45;4a7e&#45;978c&#45;8ff04ffd09c0</title>
<g id="a_node6"><a xlink:href="org-protocol://roam-node?node=70f249a8-f8c8-4a7e-978c-8ff04ffd09c0" xlink:title="digger">
<ellipse fill="#eeeeee" stroke="#c9c9c9" stroke-width="2" cx="710" cy="-378" rx="33.29" ry="18"/>
<text text-anchor="middle" x="710" y="-374.3" font-family="Times,serif" font-size="14.00" fill="#111111">digger</text>
</a>
</g>
</g>
<!-- a9fab970&#45;2057&#45;48ce&#45;95ee&#45;19964d639a38&#45;&gt;70f249a8&#45;f8c8&#45;4a7e&#45;978c&#45;8ff04ffd09c0 -->
<g id="edge40" class="edge">
<title>a9fab970&#45;2057&#45;48ce&#45;95ee&#45;19964d639a38&#45;&gt;70f249a8&#45;f8c8&#45;4a7e&#45;978c&#45;8ff04ffd09c0</title>
<path fill="none" stroke="black" d="M710,-431.7C710,-423.98 710,-414.71 710,-406.11"/>
<polygon fill="black" stroke="black" points="713.5,-406.1 710,-396.1 706.5,-406.1 713.5,-406.1"/>
</g>
<!-- 1ad8c3d5&#45;97ba&#45;4905&#45;be11&#45;e6f2626127ad&#45;&gt;f0cefeef&#45;6f99&#45;4ce2&#45;bff7&#45;db6e508f2c84 -->
<g id="edge48" class="edge">
<title>1ad8c3d5&#45;97ba&#45;4905&#45;be11&#45;e6f2626127ad&#45;&gt;f0cefeef&#45;6f99&#45;4ce2&#45;bff7&#45;db6e508f2c84</title>
<path fill="none" stroke="black" d="M627.59,-251.94C635.11,-299.62 644.85,-435.25 645.26,-493.68"/>
<polygon fill="black" stroke="black" points="641.76,-493.95 645.22,-503.97 648.76,-493.98 641.76,-493.95"/>
</g>
<!-- 8c81068f&#45;0e51&#45;4d6d&#45;bd1f&#45;392ce8cb3a21 -->
<g id="node4" class="node">
<title>8c81068f&#45;0e51&#45;4d6d&#45;bd1f&#45;392ce8cb3a21</title>
<g id="a_node4"><a xlink:href="org-protocol://roam-node?node=8c81068f-0e51-4d6d-bd1f-392ce8cb3a21" xlink:title="current&#45;word&#45;highlight">
<ellipse fill="#eeeeee" stroke="#c9c9c9" stroke-width="2" cx="313" cy="-162" rx="90.98" ry="18"/>
<text text-anchor="middle" x="313" y="-158.3" font-family="Times,serif" font-size="14.00" fill="#111111">current&#45;word&#45;highlight</text>
</a>
</g>
</g>
<!-- 1ad8c3d5&#45;97ba&#45;4905&#45;be11&#45;e6f2626127ad&#45;&gt;8c81068f&#45;0e51&#45;4d6d&#45;bd1f&#45;392ce8cb3a21 -->
<g id="edge47" class="edge">
<title>1ad8c3d5&#45;97ba&#45;4905&#45;be11&#45;e6f2626127ad&#45;&gt;8c81068f&#45;0e51&#45;4d6d&#45;bd1f&#45;392ce8cb3a21</title>
<path fill="none" stroke="black" d="M591.15,-226.73C540.84,-216.02 442.34,-193.9 377.04,-178.76"/>
<polygon fill="black" stroke="black" points="377.79,-175.34 367.26,-176.48 376.21,-182.16 377.79,-175.34"/>
</g>
<!-- c7e81fac&#45;9f8b&#45;4538&#45;9851&#45;21d4ff3c2b08 -->
<g id="node8" class="node">
<title>c7e81fac&#45;9f8b&#45;4538&#45;9851&#45;21d4ff3c2b08</title>
<g id="a_node8"><a xlink:href="org-protocol://roam-node?node=c7e81fac-9f8b-4538-9851-21d4ff3c2b08" xlink:title="Emacs Lisp">
<ellipse fill="#eeeeee" stroke="#c9c9c9" stroke-width="2" cx="623" cy="-162" rx="52.79" ry="18"/>
<text text-anchor="middle" x="623" y="-158.3" font-family="Times,serif" font-size="14.00" fill="#111111">Emacs Lisp</text>
</a>
</g>
</g>
<!-- 1ad8c3d5&#45;97ba&#45;4905&#45;be11&#45;e6f2626127ad&#45;&gt;c7e81fac&#45;9f8b&#45;4538&#45;9851&#45;21d4ff3c2b08 -->
<g id="edge44" class="edge">
<title>1ad8c3d5&#45;97ba&#45;4905&#45;be11&#45;e6f2626127ad&#45;&gt;c7e81fac&#45;9f8b&#45;4538&#45;9851&#45;21d4ff3c2b08</title>
<path fill="none" stroke="black" d="M617.12,-216.05C616.3,-208.35 616.06,-199.03 616.39,-190.36"/>
<polygon fill="black" stroke="black" points="619.89,-190.49 617.09,-180.28 612.91,-190.01 619.89,-190.49"/>
</g>
<!-- 7dab097c&#45;60ba&#45;43b9&#45;949f&#45;c58bf3151aa8 -->
<g id="node11" class="node">
<title>7dab097c&#45;60ba&#45;43b9&#45;949f&#45;c58bf3151aa8</title>
<g id="a_node11"><a xlink:href="org-protocol://roam-node?node=7dab097c-60ba-43b9-949f-c58bf3151aa8" xlink:title="MySQL">
<ellipse fill="#eeeeee" stroke="#c9c9c9" stroke-width="2" cx="886" cy="-162" rx="40.09" ry="18"/>
<text text-anchor="middle" x="886" y="-158.3" font-family="Times,serif" font-size="14.00" fill="#111111">MySQL</text>
</a>
</g>
</g>
<!-- 1ad8c3d5&#45;97ba&#45;4905&#45;be11&#45;e6f2626127ad&#45;&gt;7dab097c&#45;60ba&#45;43b9&#45;949f&#45;c58bf3151aa8 -->
<g id="edge49" class="edge">
<title>1ad8c3d5&#45;97ba&#45;4905&#45;be11&#45;e6f2626127ad&#45;&gt;7dab097c&#45;60ba&#45;43b9&#45;949f&#45;c58bf3151aa8</title>
<path fill="none" stroke="black" d="M654.43,-226.16C696.36,-216.82 772.78,-199.05 837,-180 839.97,-179.12 843.02,-178.17 846.09,-177.18"/>
<polygon fill="black" stroke="black" points="847.43,-180.43 855.82,-173.95 845.23,-173.78 847.43,-180.43"/>
</g>
<!-- 8b69b8d4&#45;1612&#45;4dc5&#45;8412&#45;96b431fdd101 -->
<g id="node12" class="node">
<title>8b69b8d4&#45;1612&#45;4dc5&#45;8412&#45;96b431fdd101</title>
<g id="a_node12"><a xlink:href="org-protocol://roam-node?node=8b69b8d4-1612-4dc5-8412-96b431fdd101" xlink:title="SQL">
<ellipse fill="#eeeeee" stroke="#c9c9c9" stroke-width="2" cx="886" cy="-18" rx="27.1" ry="18"/>
<text text-anchor="middle" x="886" y="-14.3" font-family="Times,serif" font-size="14.00" fill="#111111">SQL</text>
</a>
</g>
</g>
<!-- 1ad8c3d5&#45;97ba&#45;4905&#45;be11&#45;e6f2626127ad&#45;&gt;8b69b8d4&#45;1612&#45;4dc5&#45;8412&#45;96b431fdd101 -->
<g id="edge50" class="edge">
<title>1ad8c3d5&#45;97ba&#45;4905&#45;be11&#45;e6f2626127ad&#45;&gt;8b69b8d4&#45;1612&#45;4dc5&#45;8412&#45;96b431fdd101</title>
<path fill="none" stroke="black" d="M641.14,-218.48C653.78,-208.13 670.84,-193.68 685,-180 700.61,-164.92 701.89,-158.54 718,-144 764.45,-102.07 824.38,-60.02 858.67,-36.96"/>
<polygon fill="black" stroke="black" points="860.85,-39.72 867.22,-31.25 856.96,-33.89 860.85,-39.72"/>
</g>
<!-- e04aa1a3&#45;509c&#45;45b2&#45;ac64&#45;53d69c961214 -->
<g id="node15" class="node">
<title>e04aa1a3&#45;509c&#45;45b2&#45;ac64&#45;53d69c961214</title>
<g id="a_node15"><a xlink:href="org-protocol://roam-node?node=e04aa1a3-509c-45b2-ac64-53d69c961214" xlink:title="Rails">
<ellipse fill="#eeeeee" stroke="#c9c9c9" stroke-width="2" cx="1001" cy="-90" rx="28.7" ry="18"/>
<text text-anchor="middle" x="1001" y="-86.3" font-family="Times,serif" font-size="14.00" fill="#111111">Rails</text>
</a>
</g>
</g>
<!-- 1ad8c3d5&#45;97ba&#45;4905&#45;be11&#45;e6f2626127ad&#45;&gt;e04aa1a3&#45;509c&#45;45b2&#45;ac64&#45;53d69c961214 -->
<g id="edge51" class="edge">
<title>1ad8c3d5&#45;97ba&#45;4905&#45;be11&#45;e6f2626127ad&#45;&gt;e04aa1a3&#45;509c&#45;45b2&#45;ac64&#45;53d69c961214</title>
<path fill="none" stroke="black" d="M647.17,-221.12C666.82,-211.09 694.98,-195.85 718,-180 738.53,-165.87 738.64,-155 761,-144 827.17,-111.45 913.37,-98.69 962.41,-93.84"/>
<polygon fill="black" stroke="black" points="962.95,-97.31 972.58,-92.9 962.3,-90.34 962.95,-97.31"/>
</g>
<!-- a6980e15&#45;ecee&#45;466e&#45;9ea7&#45;2c0210243c0d -->
<g id="node18" class="node">
<title>a6980e15&#45;ecee&#45;466e&#45;9ea7&#45;2c0210243c0d</title>
<g id="a_node18"><a xlink:href="org-protocol://roam-node?node=a6980e15-ecee-466e-9ea7-2c0210243c0d" xlink:title="JavaScript">
<ellipse fill="#eeeeee" stroke="#c9c9c9" stroke-width="2" cx="76" cy="-90" rx="47.39" ry="18"/>
<text text-anchor="middle" x="76" y="-86.3" font-family="Times,serif" font-size="14.00" fill="#111111">JavaScript</text>
</a>
</g>
</g>
<!-- 1ad8c3d5&#45;97ba&#45;4905&#45;be11&#45;e6f2626127ad&#45;&gt;a6980e15&#45;ecee&#45;466e&#45;9ea7&#45;2c0210243c0d -->
<g id="edge53" class="edge">
<title>1ad8c3d5&#45;97ba&#45;4905&#45;be11&#45;e6f2626127ad&#45;&gt;a6980e15&#45;ecee&#45;466e&#45;9ea7&#45;2c0210243c0d</title>
<path fill="none" stroke="black" d="M590.45,-227.59C554.46,-220.59 495.65,-206.08 451,-180 430.91,-168.27 433.88,-154.27 413,-144 364.6,-120.19 214.46,-103.43 131.87,-95.74"/>
<polygon fill="black" stroke="black" points="132.17,-92.26 121.9,-94.83 131.54,-99.23 132.17,-92.26"/>
</g>
<!-- afccf86d&#45;70b8&#45;44c0&#45;86a8&#45;cdac25f7dfd3 -->
<g id="node19" class="node">
<title>afccf86d&#45;70b8&#45;44c0&#45;86a8&#45;cdac25f7dfd3</title>
<g id="a_node19"><a xlink:href="org-protocol://roam-node?node=afccf86d-70b8-44c0-86a8-cdac25f7dfd3" xlink:title="RSpec">
<ellipse fill="#eeeeee" stroke="#c9c9c9" stroke-width="2" cx="1072" cy="-162" rx="33.6" ry="18"/>
<text text-anchor="middle" x="1072" y="-158.3" font-family="Times,serif" font-size="14.00" fill="#111111">RSpec</text>
</a>
</g>
</g>
<!-- 1ad8c3d5&#45;97ba&#45;4905&#45;be11&#45;e6f2626127ad&#45;&gt;afccf86d&#45;70b8&#45;44c0&#45;86a8&#45;cdac25f7dfd3 -->
<g id="edge52" class="edge">
<title>1ad8c3d5&#45;97ba&#45;4905&#45;be11&#45;e6f2626127ad&#45;&gt;afccf86d&#45;70b8&#45;44c0&#45;86a8&#45;cdac25f7dfd3</title>
<path fill="none" stroke="black" d="M655.65,-227.91C735.63,-215.44 941.24,-183.38 1030.08,-169.53"/>
<polygon fill="black" stroke="black" points="1030.73,-172.98 1040.07,-167.98 1029.65,-166.06 1030.73,-172.98"/>
</g>
<!-- 585d3b5e&#45;989d&#45;4363&#45;bcc3&#45;894402fcfcf9 -->
<g id="node21" class="node">
<title>585d3b5e&#45;989d&#45;4363&#45;bcc3&#45;894402fcfcf9</title>
<g id="a_node21"><a xlink:href="org-protocol://roam-node?node=585d3b5e-989d-4363-bcc3-894402fcfcf9" xlink:title="Shell">
<ellipse fill="#eeeeee" stroke="#c9c9c9" stroke-width="2" cx="799" cy="-162" rx="28.7" ry="18"/>
<text text-anchor="middle" x="799" y="-158.3" font-family="Times,serif" font-size="14.00" fill="#111111">Shell</text>
</a>
</g>
</g>
<!-- 1ad8c3d5&#45;97ba&#45;4905&#45;be11&#45;e6f2626127ad&#45;&gt;585d3b5e&#45;989d&#45;4363&#45;bcc3&#45;894402fcfcf9 -->
<g id="edge45" class="edge">
<title>1ad8c3d5&#45;97ba&#45;4905&#45;be11&#45;e6f2626127ad&#45;&gt;585d3b5e&#45;989d&#45;4363&#45;bcc3&#45;894402fcfcf9</title>
<path fill="none" stroke="black" d="M649.73,-222.37C680.89,-209.98 732.39,-189.49 766.01,-176.12"/>
<polygon fill="black" stroke="black" points="767.41,-179.33 775.41,-172.38 764.82,-172.83 767.41,-179.33"/>
</g>
<!-- ad1527ee&#45;63b3&#45;4a9b&#45;a553&#45;10899f57c234 -->
<g id="node27" class="node">
<title>ad1527ee&#45;63b3&#45;4a9b&#45;a553&#45;10899f57c234</title>
<g id="a_node27"><a xlink:href="org-protocol://roam-node?node=ad1527ee-63b3-4a9b-a553-10899f57c234" xlink:title="TypeScript">
<ellipse fill="#eeeeee" stroke="#c9c9c9" stroke-width="2" cx="154" cy="-162" rx="50.09" ry="18"/>
<text text-anchor="middle" x="154" y="-158.3" font-family="Times,serif" font-size="14.00" fill="#111111">TypeScript</text>
</a>
</g>
</g>
<!-- 1ad8c3d5&#45;97ba&#45;4905&#45;be11&#45;e6f2626127ad&#45;&gt;ad1527ee&#45;63b3&#45;4a9b&#45;a553&#45;10899f57c234 -->
<g id="edge54" class="edge">
<title>1ad8c3d5&#45;97ba&#45;4905&#45;be11&#45;e6f2626127ad&#45;&gt;ad1527ee&#45;63b3&#45;4a9b&#45;a553&#45;10899f57c234</title>
<path fill="none" stroke="black" d="M589.23,-230.38C518.75,-224.54 351.09,-208.65 213,-180 208.89,-179.15 204.65,-178.15 200.41,-177.09"/>
<polygon fill="black" stroke="black" points="201.17,-173.67 190.61,-174.48 199.37,-180.43 201.17,-173.67"/>
</g>
<!-- 815a2c31&#45;7ddb&#45;40ad&#45;bae0&#45;f84e1cfd8de1 -->
<g id="node28" class="node">
<title>815a2c31&#45;7ddb&#45;40ad&#45;bae0&#45;f84e1cfd8de1</title>
<g id="a_node28"><a xlink:href="org-protocol://roam-node?node=815a2c31-7ddb-40ad-bae0-f84e1cfd8de1" xlink:title="Org&#45;roam">
<ellipse fill="#eeeeee" stroke="#c9c9c9" stroke-width="2" cx="506" cy="-162" rx="46.29" ry="18"/>
<text text-anchor="middle" x="506" y="-158.3" font-family="Times,serif" font-size="14.00" fill="#111111">Org&#45;roam</text>
</a>
</g>
</g>
<!-- 1ad8c3d5&#45;97ba&#45;4905&#45;be11&#45;e6f2626127ad&#45;&gt;815a2c31&#45;7ddb&#45;40ad&#45;bae0&#45;f84e1cfd8de1 -->
<g id="edge46" class="edge">
<title>1ad8c3d5&#45;97ba&#45;4905&#45;be11&#45;e6f2626127ad&#45;&gt;815a2c31&#45;7ddb&#45;40ad&#45;bae0&#45;f84e1cfd8de1</title>
<path fill="none" stroke="black" d="M598.23,-221.28C579.55,-211.09 554.11,-196.08 534.6,-183.84"/>
<polygon fill="black" stroke="black" points="536.42,-180.85 526.1,-178.44 532.66,-186.76 536.42,-180.85"/>
</g>
<!-- 8c81068f&#45;0e51&#45;4d6d&#45;bd1f&#45;392ce8cb3a21&#45;&gt;1ad8c3d5&#45;97ba&#45;4905&#45;be11&#45;e6f2626127ad -->
<g id="edge3" class="edge">
<title>8c81068f&#45;0e51&#45;4d6d&#45;bd1f&#45;392ce8cb3a21&#45;&gt;1ad8c3d5&#45;97ba&#45;4905&#45;be11&#45;e6f2626127ad</title>
<path fill="none" stroke="black" d="M373.59,-175.48C435.54,-189.01 529.84,-210.33 583.04,-222.87"/>
<polygon fill="black" stroke="black" points="582.25,-226.28 592.79,-225.17 583.86,-219.46 582.25,-226.28"/>
</g>
<!-- d694ecaa&#45;6a8b&#45;4669&#45;a95c&#45;f76de6dcbd2c -->
<g id="node5" class="node">
<title>d694ecaa&#45;6a8b&#45;4669&#45;a95c&#45;f76de6dcbd2c</title>
<g id="a_node5"><a xlink:href="org-protocol://roam-node?node=d694ecaa-6a8b-4669-a95c-f76de6dcbd2c" xlink:title="GNU Guix">
<ellipse fill="#eeeeee" stroke="#c9c9c9" stroke-width="2" cx="527" cy="-522" rx="50.09" ry="18"/>
<text text-anchor="middle" x="527" y="-518.3" font-family="Times,serif" font-size="14.00" fill="#111111">GNU Guix</text>
</a>
</g>
</g>
<!-- d694ecaa&#45;6a8b&#45;4669&#45;a95c&#45;f76de6dcbd2c&#45;&gt;a9fab970&#45;2057&#45;48ce&#45;95ee&#45;19964d639a38 -->
<g id="edge4" class="edge">
<title>d694ecaa&#45;6a8b&#45;4669&#45;a95c&#45;f76de6dcbd2c&#45;&gt;a9fab970&#45;2057&#45;48ce&#45;95ee&#45;19964d639a38</title>
<path fill="none" stroke="black" d="M560.14,-508.32C591.88,-496.18 639.69,-477.89 672.74,-465.25"/>
<polygon fill="black" stroke="black" points="674.39,-468.37 682.48,-461.53 671.89,-461.83 674.39,-468.37"/>
</g>
<!-- d694ecaa&#45;6a8b&#45;4669&#45;a95c&#45;f76de6dcbd2c&#45;&gt;1ad8c3d5&#45;97ba&#45;4905&#45;be11&#45;e6f2626127ad -->
<g id="edge5" class="edge">
<title>d694ecaa&#45;6a8b&#45;4669&#45;a95c&#45;f76de6dcbd2c&#45;&gt;1ad8c3d5&#45;97ba&#45;4905&#45;be11&#45;e6f2626127ad</title>
<path fill="none" stroke="black" d="M543.53,-504.73C552.62,-494.89 563.37,-481.64 570,-468 603.69,-398.72 616.39,-307.36 620.83,-262.4"/>
<polygon fill="black" stroke="black" points="624.33,-262.54 621.76,-252.26 617.36,-261.9 624.33,-262.54"/>
</g>
<!-- cfd092c4&#45;1bb2&#45;43d3&#45;88b1&#45;9f647809e546 -->
<g id="node7" class="node">
<title>cfd092c4&#45;1bb2&#45;43d3&#45;88b1&#45;9f647809e546</title>
<g id="a_node7"><a xlink:href="org-protocol://roam-node?node=cfd092c4-1bb2-43d3-88b1-9f647809e546" xlink:title="Ruby">
<ellipse fill="#eeeeee" stroke="#c9c9c9" stroke-width="2" cx="996" cy="-306" rx="29.8" ry="18"/>
<text text-anchor="middle" x="996" y="-302.3" font-family="Times,serif" font-size="14.00" fill="#111111">Ruby</text>
</a>
</g>
</g>
<!-- 70f249a8&#45;f8c8&#45;4a7e&#45;978c&#45;8ff04ffd09c0&#45;&gt;cfd092c4&#45;1bb2&#45;43d3&#45;88b1&#45;9f647809e546 -->
<g id="edge6" class="edge">
<title>70f249a8&#45;f8c8&#45;4a7e&#45;978c&#45;8ff04ffd09c0&#45;&gt;cfd092c4&#45;1bb2&#45;43d3&#45;88b1&#45;9f647809e546</title>
<path fill="none" stroke="black" d="M739.53,-369.77C792.04,-356.92 901.51,-330.13 958.97,-316.06"/>
<polygon fill="black" stroke="black" points="959.85,-319.45 968.73,-313.67 958.19,-312.65 959.85,-319.45"/>
</g>
<!-- cfd092c4&#45;1bb2&#45;43d3&#45;88b1&#45;9f647809e546&#45;&gt;1ad8c3d5&#45;97ba&#45;4905&#45;be11&#45;e6f2626127ad -->
<g id="edge37" class="edge">
<title>cfd092c4&#45;1bb2&#45;43d3&#45;88b1&#45;9f647809e546&#45;&gt;1ad8c3d5&#45;97ba&#45;4905&#45;be11&#45;e6f2626127ad</title>
<path fill="none" stroke="black" d="M967.96,-299.74C903.08,-287.56 742.24,-257.38 665.31,-242.94"/>
<polygon fill="black" stroke="black" points="665.51,-239.42 655.03,-241.01 664.21,-246.3 665.51,-239.42"/>
</g>
<!-- cfd092c4&#45;1bb2&#45;43d3&#45;88b1&#45;9f647809e546&#45;&gt;e04aa1a3&#45;509c&#45;45b2&#45;ac64&#45;53d69c961214 -->
<g id="edge36" class="edge">
<title>cfd092c4&#45;1bb2&#45;43d3&#45;88b1&#45;9f647809e546&#45;&gt;e04aa1a3&#45;509c&#45;45b2&#45;ac64&#45;53d69c961214</title>
<path fill="none" stroke="black" d="M992.52,-287.85C989.85,-250.74 991.64,-162.75 995.7,-118.05"/>
<polygon fill="black" stroke="black" points="999.2,-118.24 996.75,-107.94 992.23,-117.52 999.2,-118.24"/>
</g>
<!-- c7e81fac&#45;9f8b&#45;4538&#45;9851&#45;21d4ff3c2b08&#45;&gt;1ad8c3d5&#45;97ba&#45;4905&#45;be11&#45;e6f2626127ad -->
<g id="edge7" class="edge">
<title>c7e81fac&#45;9f8b&#45;4538&#45;9851&#45;21d4ff3c2b08&#45;&gt;1ad8c3d5&#45;97ba&#45;4905&#45;be11&#45;e6f2626127ad</title>
<path fill="none" stroke="black" d="M628.91,-180.28C629.71,-188.03 629.94,-197.36 629.59,-206.01"/>
<polygon fill="black" stroke="black" points="626.09,-205.83 628.88,-216.05 633.08,-206.33 626.09,-205.83"/>
</g>
<!-- 02b46258&#45;7650&#45;4a02&#45;9f0e&#45;c422555b29d0 -->
<g id="node9" class="node">
<title>02b46258&#45;7650&#45;4a02&#45;9f0e&#45;c422555b29d0</title>
<g id="a_node9"><a xlink:href="org-protocol://roam-node?node=02b46258-7650-4a02-9f0e-c422555b29d0" xlink:title="Archive">
<ellipse fill="#eeeeee" stroke="#c9c9c9" stroke-width="2" cx="522" cy="-450" rx="38.99" ry="18"/>
<text text-anchor="middle" x="522" y="-446.3" font-family="Times,serif" font-size="14.00" fill="#111111">Archive</text>
</a>
</g>
</g>
<!-- 02b46258&#45;7650&#45;4a02&#45;9f0e&#45;c422555b29d0&#45;&gt;70f249a8&#45;f8c8&#45;4a7e&#45;978c&#45;8ff04ffd09c0 -->
<g id="edge9" class="edge">
<title>02b46258&#45;7650&#45;4a02&#45;9f0e&#45;c422555b29d0&#45;&gt;70f249a8&#45;f8c8&#45;4a7e&#45;978c&#45;8ff04ffd09c0</title>
<path fill="none" stroke="black" d="M551.38,-438.06C584.41,-425.76 638.1,-405.77 673.73,-392.51"/>
<polygon fill="black" stroke="black" points="675.11,-395.72 683.26,-388.95 672.67,-389.16 675.11,-395.72"/>
</g>
<!-- d3394774&#45;aba5&#45;4167&#45;bd18&#45;f194eb2bd9ed -->
<g id="node10" class="node">
<title>d3394774&#45;aba5&#45;4167&#45;bd18&#45;f194eb2bd9ed</title>
<g id="a_node10"><a xlink:href="org-protocol://roam-node?node=d3394774-aba5-4167-bd18-f194eb2bd9ed" xlink:title="TextLint">
<ellipse fill="#eeeeee" stroke="#c9c9c9" stroke-width="2" cx="516" cy="-378" rx="41.69" ry="18"/>
<text text-anchor="middle" x="516" y="-374.3" font-family="Times,serif" font-size="14.00" fill="#111111">TextLint</text>
</a>
</g>
</g>
<!-- 02b46258&#45;7650&#45;4a02&#45;9f0e&#45;c422555b29d0&#45;&gt;d3394774&#45;aba5&#45;4167&#45;bd18&#45;f194eb2bd9ed -->
<g id="edge8" class="edge">
<title>02b46258&#45;7650&#45;4a02&#45;9f0e&#45;c422555b29d0&#45;&gt;d3394774&#45;aba5&#45;4167&#45;bd18&#45;f194eb2bd9ed</title>
<path fill="none" stroke="black" d="M520.52,-431.7C519.86,-423.98 519.06,-414.71 518.32,-406.11"/>
<polygon fill="black" stroke="black" points="521.81,-405.77 517.47,-396.1 514.83,-406.37 521.81,-405.77"/>
</g>
<!-- d3394774&#45;aba5&#45;4167&#45;bd18&#45;f194eb2bd9ed&#45;&gt;1ad8c3d5&#45;97ba&#45;4905&#45;be11&#45;e6f2626127ad -->
<g id="edge31" class="edge">
<title>d3394774&#45;aba5&#45;4167&#45;bd18&#45;f194eb2bd9ed&#45;&gt;1ad8c3d5&#45;97ba&#45;4905&#45;be11&#45;e6f2626127ad</title>
<path fill="none" stroke="black" d="M526.21,-360.47C537.68,-342.25 557.16,-312.3 576,-288 583.81,-277.93 593,-267.32 601.17,-258.27"/>
<polygon fill="black" stroke="black" points="603.87,-260.51 608.03,-250.76 598.7,-255.78 603.87,-260.51"/>
</g>
<!-- d3394774&#45;aba5&#45;4167&#45;bd18&#45;f194eb2bd9ed&#45;&gt;a6980e15&#45;ecee&#45;466e&#45;9ea7&#45;2c0210243c0d -->
<g id="edge30" class="edge">
<title>d3394774&#45;aba5&#45;4167&#45;bd18&#45;f194eb2bd9ed&#45;&gt;a6980e15&#45;ecee&#45;466e&#45;9ea7&#45;2c0210243c0d</title>
<path fill="none" stroke="black" d="M476.22,-372.29C374.39,-359.34 108.65,-319.59 57,-252 27.14,-212.92 46.9,-152.17 62.45,-117.55"/>
<polygon fill="black" stroke="black" points="65.8,-118.64 66.88,-108.11 59.46,-115.67 65.8,-118.64"/>
</g>
<!-- 7dab097c&#45;60ba&#45;43b9&#45;949f&#45;c58bf3151aa8&#45;&gt;8b69b8d4&#45;1612&#45;4dc5&#45;8412&#45;96b431fdd101 -->
<g id="edge10" class="edge">
<title>7dab097c&#45;60ba&#45;43b9&#45;949f&#45;c58bf3151aa8&#45;&gt;8b69b8d4&#45;1612&#45;4dc5&#45;8412&#45;96b431fdd101</title>
<path fill="none" stroke="black" d="M886,-143.87C886,-119.67 886,-75.21 886,-46.39"/>
<polygon fill="black" stroke="black" points="889.5,-46.19 886,-36.19 882.5,-46.19 889.5,-46.19"/>
</g>
<!-- 4bfa17d7&#45;18db&#45;47d5&#45;9f3c&#45;5f3bb3c3231f -->
<g id="node13" class="node">
<title>4bfa17d7&#45;18db&#45;47d5&#45;9f3c&#45;5f3bb3c3231f</title>
<g id="a_node13"><a xlink:href="org-protocol://roam-node?node=4bfa17d7-18db-47d5-9f3c-5f3bb3c3231f" xlink:title="ej&#45;dict">
<ellipse fill="#eeeeee" stroke="#c9c9c9" stroke-width="2" cx="388" cy="-450" rx="33.29" ry="18"/>
<text text-anchor="middle" x="388" y="-446.3" font-family="Times,serif" font-size="14.00" fill="#111111">ej&#45;dict</text>
</a>
</g>
</g>
<!-- 4bfa17d7&#45;18db&#45;47d5&#45;9f3c&#45;5f3bb3c3231f&#45;&gt;1ad8c3d5&#45;97ba&#45;4905&#45;be11&#45;e6f2626127ad -->
<g id="edge11" class="edge">
<title>4bfa17d7&#45;18db&#45;47d5&#45;9f3c&#45;5f3bb3c3231f&#45;&gt;1ad8c3d5&#45;97ba&#45;4905&#45;be11&#45;e6f2626127ad</title>
<path fill="none" stroke="black" d="M391.02,-431.98C397.7,-399.33 416.77,-327.63 461,-288 493.9,-258.52 543.51,-245.4 579.15,-239.58"/>
<polygon fill="black" stroke="black" points="579.9,-243.01 589.27,-238.07 578.87,-236.09 579.9,-243.01"/>
</g>
<!-- a23ceb84&#45;e89a&#45;4905&#45;b931&#45;1944a0b828b7 -->
<g id="node14" class="node">
<title>a23ceb84&#45;e89a&#45;4905&#45;b931&#45;1944a0b828b7</title>
<g id="a_node14"><a xlink:href="org-protocol://roam-node?node=a23ceb84-e89a-4905-b931-1944a0b828b7" xlink:title="Learning">
<ellipse fill="#eeeeee" stroke="#c9c9c9" stroke-width="2" cx="751" cy="-522" rx="42.49" ry="18"/>
<text text-anchor="middle" x="751" y="-518.3" font-family="Times,serif" font-size="14.00" fill="#111111">Learning</text>
</a>
</g>
</g>
<!-- a23ceb84&#45;e89a&#45;4905&#45;b931&#45;1944a0b828b7&#45;&gt;a9fab970&#45;2057&#45;48ce&#45;95ee&#45;19964d639a38 -->
<g id="edge12" class="edge">
<title>a23ceb84&#45;e89a&#45;4905&#45;b931&#45;1944a0b828b7&#45;&gt;a9fab970&#45;2057&#45;48ce&#45;95ee&#45;19964d639a38</title>
<path fill="none" stroke="black" d="M741.28,-504.41C736.38,-496.04 730.33,-485.71 724.86,-476.37"/>
<polygon fill="black" stroke="black" points="727.72,-474.33 719.65,-467.47 721.68,-477.87 727.72,-474.33"/>
</g>
<!-- e04aa1a3&#45;509c&#45;45b2&#45;ac64&#45;53d69c961214&#45;&gt;cfd092c4&#45;1bb2&#45;43d3&#45;88b1&#45;9f647809e546 -->
<g id="edge13" class="edge">
<title>e04aa1a3&#45;509c&#45;45b2&#45;ac64&#45;53d69c961214&#45;&gt;cfd092c4&#45;1bb2&#45;43d3&#45;88b1&#45;9f647809e546</title>
<path fill="none" stroke="black" d="M1004.46,-107.94C1007.16,-144.85 1005.38,-232.83 1001.33,-277.69"/>
<polygon fill="black" stroke="black" points="997.82,-277.54 1000.28,-287.85 1004.78,-278.26 997.82,-277.54"/>
</g>
<!-- e04aa1a3&#45;509c&#45;45b2&#45;ac64&#45;53d69c961214&#45;&gt;8b69b8d4&#45;1612&#45;4dc5&#45;8412&#45;96b431fdd101 -->
<g id="edge14" class="edge">
<title>e04aa1a3&#45;509c&#45;45b2&#45;ac64&#45;53d69c961214&#45;&gt;8b69b8d4&#45;1612&#45;4dc5&#45;8412&#45;96b431fdd101</title>
<path fill="none" stroke="black" d="M981.23,-76.97C962.77,-65.73 935.02,-48.84 914.23,-36.18"/>
<polygon fill="black" stroke="black" points="915.87,-33.09 905.51,-30.88 912.23,-39.07 915.87,-33.09"/>
</g>
<!-- 1658782a&#45;d331&#45;464b&#45;9fd7&#45;1f8233b8b7f8 -->
<g id="node16" class="node">
<title>1658782a&#45;d331&#45;464b&#45;9fd7&#45;1f8233b8b7f8</title>
<g id="a_node16"><a xlink:href="org-protocol://roam-node?node=1658782a-d331-464b-9fd7-1f8233b8b7f8" xlink:title="Docker">
<ellipse fill="#eeeeee" stroke="#c9c9c9" stroke-width="2" cx="923" cy="-234" rx="36.29" ry="18"/>
<text text-anchor="middle" x="923" y="-230.3" font-family="Times,serif" font-size="14.00" fill="#111111">Docker</text>
</a>
</g>
</g>
<!-- 1658782a&#45;d331&#45;464b&#45;9fd7&#45;1f8233b8b7f8&#45;&gt;7dab097c&#45;60ba&#45;43b9&#45;949f&#45;c58bf3151aa8 -->
<g id="edge16" class="edge">
<title>1658782a&#45;d331&#45;464b&#45;9fd7&#45;1f8233b8b7f8&#45;&gt;7dab097c&#45;60ba&#45;43b9&#45;949f&#45;c58bf3151aa8</title>
<path fill="none" stroke="black" d="M914.23,-216.41C909.92,-208.25 904.62,-198.22 899.78,-189.07"/>
<polygon fill="black" stroke="black" points="902.73,-187.16 894.96,-179.96 896.54,-190.43 902.73,-187.16"/>
</g>
<!-- 1658782a&#45;d331&#45;464b&#45;9fd7&#45;1f8233b8b7f8&#45;&gt;e04aa1a3&#45;509c&#45;45b2&#45;ac64&#45;53d69c961214 -->
<g id="edge15" class="edge">
<title>1658782a&#45;d331&#45;464b&#45;9fd7&#45;1f8233b8b7f8&#45;&gt;e04aa1a3&#45;509c&#45;45b2&#45;ac64&#45;53d69c961214</title>
<path fill="none" stroke="black" d="M932.1,-216.43C945.6,-191.85 971.06,-145.51 986.96,-116.56"/>
<polygon fill="black" stroke="black" points="990.21,-117.91 991.96,-107.46 984.08,-114.54 990.21,-117.91"/>
</g>
<!-- a0f58a2a&#45;e92d&#45;496e&#45;9c81&#45;dc5401ab314f -->
<g id="node17" class="node">
<title>a0f58a2a&#45;e92d&#45;496e&#45;9c81&#45;dc5401ab314f</title>
<g id="a_node17"><a xlink:href="org-protocol://roam-node?node=a0f58a2a-e92d-496e-9c81-dc5401ab314f" xlink:title="History">
<ellipse fill="#eeeeee" stroke="#c9c9c9" stroke-width="2" cx="585" cy="-594" rx="37.09" ry="18"/>
<text text-anchor="middle" x="585" y="-590.3" font-family="Times,serif" font-size="14.00" fill="#111111">History</text>
</a>
</g>
</g>
<!-- a0f58a2a&#45;e92d&#45;496e&#45;9c81&#45;dc5401ab314f&#45;&gt;f0cefeef&#45;6f99&#45;4ce2&#45;bff7&#45;db6e508f2c84 -->
<g id="edge19" class="edge">
<title>a0f58a2a&#45;e92d&#45;496e&#45;9c81&#45;dc5401ab314f&#45;&gt;f0cefeef&#45;6f99&#45;4ce2&#45;bff7&#45;db6e508f2c84</title>
<path fill="none" stroke="black" d="M598.16,-577.12C605.47,-568.29 614.72,-557.13 622.92,-547.24"/>
<polygon fill="black" stroke="black" points="625.8,-549.24 629.49,-539.31 620.41,-544.77 625.8,-549.24"/>
</g>
<!-- a0f58a2a&#45;e92d&#45;496e&#45;9c81&#45;dc5401ab314f&#45;&gt;1ad8c3d5&#45;97ba&#45;4905&#45;be11&#45;e6f2626127ad -->
<g id="edge17" class="edge">
<title>a0f58a2a&#45;e92d&#45;496e&#45;9c81&#45;dc5401ab314f&#45;&gt;1ad8c3d5&#45;97ba&#45;4905&#45;be11&#45;e6f2626127ad</title>
<path fill="none" stroke="black" d="M613,-581.91C618.89,-579.79 625.11,-577.7 631,-576 705.63,-554.48 747,-594.84 802,-540 830.64,-511.44 821,-491.45 821,-451 821,-451 821,-451 821,-377 821,-300.38 721.88,-261.1 663.91,-244.67"/>
<polygon fill="black" stroke="black" points="664.51,-241.21 653.94,-241.96 662.67,-247.96 664.51,-241.21"/>
</g>
<!-- a0f58a2a&#45;e92d&#45;496e&#45;9c81&#45;dc5401ab314f&#45;&gt;8c81068f&#45;0e51&#45;4d6d&#45;bd1f&#45;392ce8cb3a21 -->
<g id="edge18" class="edge">
<title>a0f58a2a&#45;e92d&#45;496e&#45;9c81&#45;dc5401ab314f&#45;&gt;8c81068f&#45;0e51&#45;4d6d&#45;bd1f&#45;392ce8cb3a21</title>
<path fill="none" stroke="black" d="M549.16,-588.96C446.06,-576.36 156,-533.57 156,-451 156,-451 156,-451 156,-305 156,-245.86 218.03,-204.96 264.11,-182.74"/>
<polygon fill="black" stroke="black" points="265.8,-185.82 273.38,-178.41 262.84,-179.47 265.8,-185.82"/>
</g>
<!-- a0f58a2a&#45;e92d&#45;496e&#45;9c81&#45;dc5401ab314f&#45;&gt;d694ecaa&#45;6a8b&#45;4669&#45;a95c&#45;f76de6dcbd2c -->
<g id="edge21" class="edge">
<title>a0f58a2a&#45;e92d&#45;496e&#45;9c81&#45;dc5401ab314f&#45;&gt;d694ecaa&#45;6a8b&#45;4669&#45;a95c&#45;f76de6dcbd2c</title>
<path fill="none" stroke="black" d="M571.84,-577.12C564.63,-568.42 555.54,-557.45 547.43,-547.66"/>
<polygon fill="black" stroke="black" points="549.99,-545.26 540.92,-539.8 544.6,-549.73 549.99,-545.26"/>
</g>
<!-- a0f58a2a&#45;e92d&#45;496e&#45;9c81&#45;dc5401ab314f&#45;&gt;d3394774&#45;aba5&#45;4167&#45;bd18&#45;f194eb2bd9ed -->
<g id="edge20" class="edge">
<title>a0f58a2a&#45;e92d&#45;496e&#45;9c81&#45;dc5401ab314f&#45;&gt;d3394774&#45;aba5&#45;4167&#45;bd18&#45;f194eb2bd9ed</title>
<path fill="none" stroke="black" d="M550.2,-587.6C522.69,-581.3 486.01,-567.92 468,-540 459.15,-526.28 465.58,-453.3 474,-432 478.25,-421.24 485.45,-410.92 492.7,-402.28"/>
<polygon fill="black" stroke="black" points="495.54,-404.36 499.57,-394.56 490.31,-399.71 495.54,-404.36"/>
</g>
<!-- a0f58a2a&#45;e92d&#45;496e&#45;9c81&#45;dc5401ab314f&#45;&gt;7dab097c&#45;60ba&#45;43b9&#45;949f&#45;c58bf3151aa8 -->
<g id="edge25" class="edge">
<title>a0f58a2a&#45;e92d&#45;496e&#45;9c81&#45;dc5401ab314f&#45;&gt;7dab097c&#45;60ba&#45;43b9&#45;949f&#45;c58bf3151aa8</title>
<path fill="none" stroke="black" d="M612.97,-581.8C618.87,-579.68 625.09,-577.63 631,-576 715.55,-552.72 757.63,-596.14 825,-540 857.53,-512.89 859,-493.34 859,-451 859,-451 859,-451 859,-305 859,-264.28 869.85,-218.13 877.79,-189.79"/>
<polygon fill="black" stroke="black" points="881.25,-190.43 880.67,-179.85 874.53,-188.49 881.25,-190.43"/>
</g>
<!-- a0f58a2a&#45;e92d&#45;496e&#45;9c81&#45;dc5401ab314f&#45;&gt;4bfa17d7&#45;18db&#45;47d5&#45;9f3c&#45;5f3bb3c3231f -->
<g id="edge22" class="edge">
<title>a0f58a2a&#45;e92d&#45;496e&#45;9c81&#45;dc5401ab314f&#45;&gt;4bfa17d7&#45;18db&#45;47d5&#45;9f3c&#45;5f3bb3c3231f</title>
<path fill="none" stroke="black" d="M549.78,-588.07C516.8,-581.85 467.82,-568.34 435,-540 415.97,-523.56 403.48,-497.48 396.19,-477.79"/>
<polygon fill="black" stroke="black" points="399.44,-476.46 392.85,-468.16 392.82,-478.76 399.44,-476.46"/>
</g>
<!-- a0f58a2a&#45;e92d&#45;496e&#45;9c81&#45;dc5401ab314f&#45;&gt;e04aa1a3&#45;509c&#45;45b2&#45;ac64&#45;53d69c961214 -->
<g id="edge23" class="edge">
<title>a0f58a2a&#45;e92d&#45;496e&#45;9c81&#45;dc5401ab314f&#45;&gt;e04aa1a3&#45;509c&#45;45b2&#45;ac64&#45;53d69c961214</title>
<path fill="none" stroke="black" d="M612.37,-581.54C618.42,-579.39 624.85,-577.39 631,-576 804.68,-536.8 862.78,-601.16 1030,-540 1094.73,-516.33 1157,-519.92 1157,-451 1157,-451 1157,-451 1157,-233 1157,-189.26 1146.02,-174.84 1115,-144 1093.37,-122.49 1061.38,-108.67 1036.79,-100.56"/>
<polygon fill="black" stroke="black" points="1037.69,-97.17 1027.1,-97.52 1035.6,-103.85 1037.69,-97.17"/>
</g>
<!-- a0f58a2a&#45;e92d&#45;496e&#45;9c81&#45;dc5401ab314f&#45;&gt;a6980e15&#45;ecee&#45;466e&#45;9ea7&#45;2c0210243c0d -->
<g id="edge24" class="edge">
<title>a0f58a2a&#45;e92d&#45;496e&#45;9c81&#45;dc5401ab314f&#45;&gt;a6980e15&#45;ecee&#45;466e&#45;9ea7&#45;2c0210243c0d</title>
<path fill="none" stroke="black" d="M547.96,-592C419.37,-587.53 0,-564.26 0,-451 0,-451 0,-451 0,-233 0,-187.13 31.2,-141.75 53.62,-115.05"/>
<polygon fill="black" stroke="black" points="56.36,-117.24 60.25,-107.39 51.06,-112.66 56.36,-117.24"/>
</g>
<!-- a0f58a2a&#45;e92d&#45;496e&#45;9c81&#45;dc5401ab314f&#45;&gt;afccf86d&#45;70b8&#45;44c0&#45;86a8&#45;cdac25f7dfd3 -->
<g id="edge26" class="edge">
<title>a0f58a2a&#45;e92d&#45;496e&#45;9c81&#45;dc5401ab314f&#45;&gt;afccf86d&#45;70b8&#45;44c0&#45;86a8&#45;cdac25f7dfd3</title>
<path fill="none" stroke="black" d="M612.45,-581.87C618.49,-579.7 624.91,-577.6 631,-576 739.26,-547.5 1119,-562.95 1119,-451 1119,-451 1119,-451 1119,-305 1119,-262.49 1099.78,-216.28 1085.92,-188.49"/>
<polygon fill="black" stroke="black" points="1088.97,-186.76 1081.29,-179.46 1082.74,-189.96 1088.97,-186.76"/>
</g>
<!-- afccf86d&#45;70b8&#45;44c0&#45;86a8&#45;cdac25f7dfd3&#45;&gt;cfd092c4&#45;1bb2&#45;43d3&#45;88b1&#45;9f647809e546 -->
<g id="edge27" class="edge">
<title>afccf86d&#45;70b8&#45;44c0&#45;86a8&#45;cdac25f7dfd3&#45;&gt;cfd092c4&#45;1bb2&#45;43d3&#45;88b1&#45;9f647809e546</title>
<path fill="none" stroke="black" d="M1063.15,-179.54C1049.97,-204.16 1025.08,-250.67 1009.58,-279.62"/>
<polygon fill="black" stroke="black" points="1006.35,-278.24 1004.72,-288.71 1012.52,-281.55 1006.35,-278.24"/>
</g>
<!-- afccf86d&#45;70b8&#45;44c0&#45;86a8&#45;cdac25f7dfd3&#45;&gt;e04aa1a3&#45;509c&#45;45b2&#45;ac64&#45;53d69c961214 -->
<g id="edge28" class="edge">
<title>afccf86d&#45;70b8&#45;44c0&#45;86a8&#45;cdac25f7dfd3&#45;&gt;e04aa1a3&#45;509c&#45;45b2&#45;ac64&#45;53d69c961214</title>
<path fill="none" stroke="black" d="M1056.59,-145.81C1046.79,-136.14 1033.93,-123.46 1023.04,-112.73"/>
<polygon fill="black" stroke="black" points="1025.47,-110.21 1015.89,-105.68 1020.55,-115.19 1025.47,-110.21"/>
</g>
<!-- 847c8c7a&#45;d53c&#45;464c&#45;9172&#45;f5826be47454 -->
<g id="node20" class="node">
<title>847c8c7a&#45;d53c&#45;464c&#45;9172&#45;f5826be47454</title>
<g id="a_node20"><a xlink:href="org-protocol://roam-node?node=847c8c7a-d53c-464c-9172-f5826be47454" xlink:title="fish">
<ellipse fill="#eeeeee" stroke="#c9c9c9" stroke-width="2" cx="799" cy="-234" rx="27" ry="18"/>
<text text-anchor="middle" x="799" y="-230.3" font-family="Times,serif" font-size="14.00" fill="#111111">fish</text>
</a>
</g>
</g>
<!-- 847c8c7a&#45;d53c&#45;464c&#45;9172&#45;f5826be47454&#45;&gt;585d3b5e&#45;989d&#45;4363&#45;bcc3&#45;894402fcfcf9 -->
<g id="edge29" class="edge">
<title>847c8c7a&#45;d53c&#45;464c&#45;9172&#45;f5826be47454&#45;&gt;585d3b5e&#45;989d&#45;4363&#45;bcc3&#45;894402fcfcf9</title>
<path fill="none" stroke="black" d="M799,-215.7C799,-207.98 799,-198.71 799,-190.11"/>
<polygon fill="black" stroke="black" points="802.5,-190.1 799,-180.1 795.5,-190.1 802.5,-190.1"/>
</g>
<!-- 120300fc&#45;27c2&#45;428e&#45;9fbc&#45;49e14172f6df -->
<g id="node22" class="node">
<title>120300fc&#45;27c2&#45;428e&#45;9fbc&#45;49e14172f6df</title>
<g id="a_node22"><a xlink:href="org-protocol://roam-node?node=120300fc-27c2-428e-9fbc-49e14172f6df" xlink:title="Test">
<ellipse fill="#eeeeee" stroke="#c9c9c9" stroke-width="2" cx="1030" cy="-378" rx="27" ry="18"/>
<text text-anchor="middle" x="1030" y="-374.3" font-family="Times,serif" font-size="14.00" fill="#111111">Test</text>
</a>
</g>
</g>
<!-- 120300fc&#45;27c2&#45;428e&#45;9fbc&#45;49e14172f6df&#45;&gt;cfd092c4&#45;1bb2&#45;43d3&#45;88b1&#45;9f647809e546 -->
<g id="edge32" class="edge">
<title>120300fc&#45;27c2&#45;428e&#45;9fbc&#45;49e14172f6df&#45;&gt;cfd092c4&#45;1bb2&#45;43d3&#45;88b1&#45;9f647809e546</title>
<path fill="none" stroke="black" d="M1022.11,-360.76C1018.1,-352.49 1013.11,-342.23 1008.58,-332.9"/>
<polygon fill="black" stroke="black" points="1011.6,-331.1 1004.08,-323.63 1005.3,-334.16 1011.6,-331.1"/>
</g>
<!-- 120300fc&#45;27c2&#45;428e&#45;9fbc&#45;49e14172f6df&#45;&gt;afccf86d&#45;70b8&#45;44c0&#45;86a8&#45;cdac25f7dfd3 -->
<g id="edge33" class="edge">
<title>120300fc&#45;27c2&#45;428e&#45;9fbc&#45;49e14172f6df&#45;&gt;afccf86d&#45;70b8&#45;44c0&#45;86a8&#45;cdac25f7dfd3</title>
<path fill="none" stroke="black" d="M1033.37,-359.85C1040.66,-322.66 1057.99,-234.37 1066.75,-189.77"/>
<polygon fill="black" stroke="black" points="1070.18,-190.42 1068.68,-179.94 1063.32,-189.07 1070.18,-190.42"/>
</g>
<!-- 4270d99a&#45;d2b5&#45;429e&#45;b33c&#45;c2e097b20730 -->
<g id="node23" class="node">
<title>4270d99a&#45;d2b5&#45;429e&#45;b33c&#45;c2e097b20730</title>
<g id="a_node23"><a xlink:href="org-protocol://roam-node?node=4270d99a-d2b5-429e-b33c-c2e097b20730" xlink:title="Zig">
<ellipse fill="#eeeeee" stroke="#c9c9c9" stroke-width="2" cx="1212" cy="-234" rx="27" ry="18"/>
<text text-anchor="middle" x="1212" y="-230.3" font-family="Times,serif" font-size="14.00" fill="#111111">Zig</text>
</a>
</g>
</g>
<!-- ddc21510&#45;6693&#45;4c1e&#45;9070&#45;db0dd2a8160b -->
<g id="node24" class="node">
<title>ddc21510&#45;6693&#45;4c1e&#45;9070&#45;db0dd2a8160b</title>
<g id="a_node24"><a xlink:href="org-protocol://roam-node?node=ddc21510-6693-4c1e-9070-db0dd2a8160b" xlink:title="Rust">
<ellipse fill="#eeeeee" stroke="#c9c9c9" stroke-width="2" cx="1212" cy="-306" rx="27" ry="18"/>
<text text-anchor="middle" x="1212" y="-302.3" font-family="Times,serif" font-size="14.00" fill="#111111">Rust</text>
</a>
</g>
</g>
<!-- 4270d99a&#45;d2b5&#45;429e&#45;b33c&#45;c2e097b20730&#45;&gt;ddc21510&#45;6693&#45;4c1e&#45;9070&#45;db0dd2a8160b -->
<g id="edge34" class="edge">
<title>4270d99a&#45;d2b5&#45;429e&#45;b33c&#45;c2e097b20730&#45;&gt;ddc21510&#45;6693&#45;4c1e&#45;9070&#45;db0dd2a8160b</title>
<path fill="none" stroke="black" d="M1217.88,-251.96C1218.71,-259.83 1218.95,-269.37 1218.58,-278.19"/>
<polygon fill="black" stroke="black" points="1215.07,-278.18 1217.84,-288.41 1222.06,-278.69 1215.07,-278.18"/>
</g>
<!-- ddc21510&#45;6693&#45;4c1e&#45;9070&#45;db0dd2a8160b&#45;&gt;1ad8c3d5&#45;97ba&#45;4905&#45;be11&#45;e6f2626127ad -->
<g id="edge42" class="edge">
<title>ddc21510&#45;6693&#45;4c1e&#45;9070&#45;db0dd2a8160b&#45;&gt;1ad8c3d5&#45;97ba&#45;4905&#45;be11&#45;e6f2626127ad</title>
<path fill="none" stroke="black" d="M1185.68,-301.92C1116.45,-293.83 923.55,-271.22 763,-252 730.56,-248.12 693.89,-243.66 666.23,-240.29"/>
<polygon fill="black" stroke="black" points="666.44,-236.79 656.09,-239.05 665.59,-243.74 666.44,-236.79"/>
</g>
<!-- ddc21510&#45;6693&#45;4c1e&#45;9070&#45;db0dd2a8160b&#45;&gt;4270d99a&#45;d2b5&#45;429e&#45;b33c&#45;c2e097b20730 -->
<g id="edge41" class="edge">
<title>ddc21510&#45;6693&#45;4c1e&#45;9070&#45;db0dd2a8160b&#45;&gt;4270d99a&#45;d2b5&#45;429e&#45;b33c&#45;c2e097b20730</title>
<path fill="none" stroke="black" d="M1206.16,-288.41C1205.3,-280.51 1205.05,-270.85 1205.41,-261.94"/>
<polygon fill="black" stroke="black" points="1208.9,-262.18 1206.12,-251.96 1201.92,-261.68 1208.9,-262.18"/>
</g>
<!-- 90c6b715&#45;9324&#45;46ce&#45;a354&#45;63d09403b066 -->
<g id="node25" class="node">
<title>90c6b715&#45;9324&#45;46ce&#45;a354&#45;63d09403b066</title>
<g id="a_node25"><a xlink:href="org-protocol://roam-node?node=90c6b715-9324-46ce-a354-63d09403b066" xlink:title="Git">
<ellipse fill="#eeeeee" stroke="#c9c9c9" stroke-width="2" cx="497" cy="-306" rx="27" ry="18"/>
<text text-anchor="middle" x="497" y="-302.3" font-family="Times,serif" font-size="14.00" fill="#111111">Git</text>
</a>
</g>
</g>
<!-- 90c6b715&#45;9324&#45;46ce&#45;a354&#45;63d09403b066&#45;&gt;1ad8c3d5&#45;97ba&#45;4905&#45;be11&#45;e6f2626127ad -->
<g id="edge35" class="edge">
<title>90c6b715&#45;9324&#45;46ce&#45;a354&#45;63d09403b066&#45;&gt;1ad8c3d5&#45;97ba&#45;4905&#45;be11&#45;e6f2626127ad</title>
<path fill="none" stroke="black" d="M517.24,-293.75C537.26,-282.63 568.19,-265.45 591.44,-252.53"/>
<polygon fill="black" stroke="black" points="593.21,-255.56 600.25,-247.64 589.81,-249.44 593.21,-255.56"/>
</g>
<!-- dc50d818&#45;d7d1&#45;48a8&#45;ad76&#45;62ead617c670 -->
<g id="node26" class="node">
<title>dc50d818&#45;d7d1&#45;48a8&#45;ad76&#45;62ead617c670</title>
<g id="a_node26"><a xlink:href="org-protocol://roam-node?node=dc50d818-d7d1-48a8-ad76-62ead617c670" xlink:title="React">
<ellipse fill="#eeeeee" stroke="#c9c9c9" stroke-width="2" cx="97" cy="-234" rx="30.59" ry="18"/>
<text text-anchor="middle" x="97" y="-230.3" font-family="Times,serif" font-size="14.00" fill="#111111">React</text>
</a>
</g>
</g>
<!-- dc50d818&#45;d7d1&#45;48a8&#45;ad76&#45;62ead617c670&#45;&gt;a6980e15&#45;ecee&#45;466e&#45;9ea7&#45;2c0210243c0d -->
<g id="edge38" class="edge">
<title>dc50d818&#45;d7d1&#45;48a8&#45;ad76&#45;62ead617c670&#45;&gt;a6980e15&#45;ecee&#45;466e&#45;9ea7&#45;2c0210243c0d</title>
<path fill="none" stroke="black" d="M94.47,-215.87C90.89,-191.67 84.31,-147.21 80.05,-118.39"/>
<polygon fill="black" stroke="black" points="83.47,-117.57 78.54,-108.19 76.54,-118.59 83.47,-117.57"/>
</g>
<!-- dc50d818&#45;d7d1&#45;48a8&#45;ad76&#45;62ead617c670&#45;&gt;ad1527ee&#45;63b3&#45;4a9b&#45;a553&#45;10899f57c234 -->
<g id="edge39" class="edge">
<title>dc50d818&#45;d7d1&#45;48a8&#45;ad76&#45;62ead617c670&#45;&gt;ad1527ee&#45;63b3&#45;4a9b&#45;a553&#45;10899f57c234</title>
<path fill="none" stroke="black" d="M109.65,-217.46C116.82,-208.65 125.96,-197.43 134.08,-187.46"/>
<polygon fill="black" stroke="black" points="136.99,-189.43 140.59,-179.47 131.56,-185.01 136.99,-189.43"/>
</g>
<!-- ad1527ee&#45;63b3&#45;4a9b&#45;a553&#45;10899f57c234&#45;&gt;a6980e15&#45;ecee&#45;466e&#45;9ea7&#45;2c0210243c0d -->
<g id="edge43" class="edge">
<title>ad1527ee&#45;63b3&#45;4a9b&#45;a553&#45;10899f57c234&#45;&gt;a6980e15&#45;ecee&#45;466e&#45;9ea7&#45;2c0210243c0d</title>
<path fill="none" stroke="black" d="M136.3,-145.12C125.93,-135.81 112.66,-123.9 101.21,-113.62"/>
<polygon fill="black" stroke="black" points="103.41,-110.9 93.63,-106.82 98.73,-116.11 103.41,-110.9"/>
</g>
<!-- 815a2c31&#45;7ddb&#45;40ad&#45;bae0&#45;f84e1cfd8de1&#45;&gt;1ad8c3d5&#45;97ba&#45;4905&#45;be11&#45;e6f2626127ad -->
<g id="edge55" class="edge">
<title>815a2c31&#45;7ddb&#45;40ad&#45;bae0&#45;f84e1cfd8de1&#45;&gt;1ad8c3d5&#45;97ba&#45;4905&#45;be11&#45;e6f2626127ad</title>
<path fill="none" stroke="black" d="M534.21,-176.6C553.03,-187 577.47,-201.49 596.03,-213.18"/>
<polygon fill="black" stroke="black" points="594.3,-216.23 604.61,-218.67 598.07,-210.33 594.3,-216.23"/>
</g>
<!-- d29202e8&#45;f21c&#45;41e0&#45;9ddf&#45;bad77a01de6a -->
<g id="node29" class="node">
<title>d29202e8&#45;f21c&#45;41e0&#45;9ddf&#45;bad77a01de6a</title>
<g id="a_node29"><a xlink:href="org-protocol://roam-node?node=d29202e8-f21c-41e0-9ddf-bad77a01de6a" xlink:title="OBS">
<ellipse fill="#eeeeee" stroke="#c9c9c9" stroke-width="2" cx="668" cy="-594" rx="27.9" ry="18"/>
<text text-anchor="middle" x="668" y="-590.3" font-family="Times,serif" font-size="14.00" fill="#111111">OBS</text>
</a>
</g>
</g>
<!-- b4f27aef&#45;22ec&#45;45c0&#45;be50&#45;810f3a0cf9bc -->
<g id="node30" class="node">
<title>b4f27aef&#45;22ec&#45;45c0&#45;be50&#45;810f3a0cf9bc</title>
<g id="a_node30"><a xlink:href="org-protocol://roam-node?node=b4f27aef-22ec-45c0-be50-810f3a0cf9bc" xlink:title="Money">
<ellipse fill="#eeeeee" stroke="#c9c9c9" stroke-width="2" cx="750" cy="-594" rx="36.29" ry="18"/>
<text text-anchor="middle" x="750" y="-590.3" font-family="Times,serif" font-size="14.00" fill="#111111">Money</text>
</a>
</g>
</g>
<!-- a6c9c9ad&#45;d9b1&#45;4e13&#45;8992&#45;75d8590e464c -->
<g id="node31" class="node">
<title>a6c9c9ad&#45;d9b1&#45;4e13&#45;8992&#45;75d8590e464c</title>
<g id="a_node31"><a xlink:href="org-protocol://roam-node?node=a6c9c9ad-d9b1-4e13-8992-75d8590e464c" xlink:title="Python">
<ellipse fill="#eeeeee" stroke="#c9c9c9" stroke-width="2" cx="840" cy="-594" rx="36" ry="18"/>
<text text-anchor="middle" x="840" y="-590.3" font-family="Times,serif" font-size="14.00" fill="#111111">Python</text>
</a>
</g>
</g>
<!-- 868ac56a&#45;2d42&#45;48d7&#45;ab7f&#45;7047c85a8f39 -->
<g id="node32" class="node">
<title>868ac56a&#45;2d42&#45;48d7&#45;ab7f&#45;7047c85a8f39</title>
<g id="a_node32"><a xlink:href="org-protocol://roam-node?node=868ac56a-2d42-48d7-ab7f-7047c85a8f39" xlink:title="Programing Language">
<ellipse fill="#eeeeee" stroke="#c9c9c9" stroke-width="2" cx="983" cy="-594" rx="89.88" ry="18"/>
<text text-anchor="middle" x="983" y="-590.3" font-family="Times,serif" font-size="14.00" fill="#111111">Programing Language</text>
</a>
</g>
</g>
<!-- fad0d446&#45;fe06&#45;4614&#45;af63&#45;a0c5ecc11c9c -->
<g id="node33" class="node">
<title>fad0d446&#45;fe06&#45;4614&#45;af63&#45;a0c5ecc11c9c</title>
<g id="a_node33"><a xlink:href="org-protocol://roam-node?node=fad0d446-fe06-4614-af63-a0c5ecc11c9c" xlink:title="workflow">
<ellipse fill="#eeeeee" stroke="#c9c9c9" stroke-width="2" cx="1135" cy="-594" rx="44.39" ry="18"/>
<text text-anchor="middle" x="1135" y="-590.3" font-family="Times,serif" font-size="14.00" fill="#111111">workflow</text>
</a>
</g>
</g>
</g>
</svg>
